<svg xmlns="http://www.w3.org/2000/svg" xmlns:xlink="http://www.w3.org/1999/xlink" width="200" zoomAndPan="magnify" viewBox="0 0 150 74.999997" height="100" preserveAspectRatio="xMidYMid meet" version="1.0"><defs><clipPath id="e8c00569f8"><path d="M 0.765625 2.769531 L 149.230469 2.769531 L 149.230469 72.226562 L 0.765625 72.226562 Z M 0.765625 2.769531 " clip-rule="nonzero"/></clipPath><clipPath id="d879161f3f"><path d="M 133.589844 25.570312 C 133.386719 25.304688 133.183594 25.035156 132.980469 24.765625 C 125.964844 15.511719 112.5 12.285156 101.910156 17.046875 C 96.78125 19.351562 93.859375 23.601562 90.230469 27.707031 L 71.476562 48.90625 C 66.503906 54.527344 60.742188 61.863281 54.808594 66.292969 C 49.667969 70.128906 44.0625 71.972656 35.265625 71.972656 C 25.355469 71.972656 16.496094 68.929688 9.925781 61.332031 C 4.046875 54.535156 0.855469 46.628906 0.855469 37.601562 C 0.855469 29.324219 3.449219 21.878906 8.566406 15.378906 C 15.210938 6.941406 24.113281 2.886719 34.820312 2.886719 C 45.816406 2.886719 54.972656 7.023438 61.820312 15.664062 C 64.683594 19.269531 66.601562 23.265625 67.753906 27.511719 L 56.355469 40.378906 L 13.726562 40.378906 C 14.234375 45.503906 16.085938 50.113281 19.796875 53.921875 C 23.847656 58.082031 28.753906 60.054688 34.550781 60.054688 C 37.429688 60.054688 40.238281 59.554688 42.941406 58.570312 C 50.246094 55.914062 55.03125 48.804688 60.144531 43.050781 C 64.820312 37.792969 69.492188 32.53125 74.164062 27.269531 C 79.871094 20.84375 86.90625 11.378906 94.144531 7.449219 C 109.347656 -0.808594 130.878906 1.929688 141.804688 15.707031 C 146.941406 22.179688 149.039062 29.898438 149.113281 38.089844 C 149.121094 38.867188 149.128906 39.644531 149.136719 40.421875 C 129.996094 40.421875 110.855469 40.421875 91.714844 40.421875 C 91.109375 36.46875 91.914062 31.617188 96.210938 28.964844 C 109.152344 28.964844 122.089844 28.964844 135.027344 28.964844 C 134.628906 27.804688 134.152344 26.660156 133.589844 25.570312 Z M 136.066406 46.632812 C 136.441406 46.011719 136.816406 45.390625 137.191406 44.765625 C 140.738281 46.632812 144.28125 48.496094 147.828125 50.359375 C 147.476562 51.039062 147.125 51.71875 146.777344 52.398438 C 144.6875 56.445312 142.058594 60.3125 138.675781 63.390625 C 135.613281 66.175781 132.132812 68.34375 128.261719 69.816406 C 114.941406 74.890625 96.335938 71.625 86.394531 62.089844 C 82.386719 58.242188 79.53125 53.882812 77.851562 49.027344 C 80.136719 46.492188 82.421875 43.957031 84.707031 41.421875 C 86.027344 39.992188 87.347656 38.5625 88.667969 37.128906 C 88.667969 37.191406 88.667969 37.25 88.667969 37.3125 C 88.667969 41.414062 89.726562 45.214844 91.789062 48.761719 C 93.859375 52.328125 96.695312 55.097656 100.3125 57.078125 C 104.117188 59.160156 108.277344 60.050781 112.605469 60.050781 C 122.035156 60.054688 131.636719 53.976562 136.066406 46.632812 Z M 55.046875 28.921875 C 54.261719 26.644531 53.191406 24.425781 51.707031 22.582031 C 49.769531 20.175781 47.265625 18.425781 44.476562 17.136719 C 41.453125 15.738281 38.269531 15.039062 34.9375 15.039062 C 29.558594 15.039062 24.863281 16.679688 20.832031 20.257812 C 18.257812 22.546875 16.5 25.675781 15.269531 28.925781 L 55.046875 28.925781 Z M 55.046875 28.921875 " clip-rule="nonzero"/></clipPath></defs><g clip-path="url(#e8c00569f8)"><g clip-path="url(#d879161f3f)"><rect x="-15" width="180" fill="#1e57be" y="-7.5" height="89.999996" fill-opacity="1"/></g></g></svg>