<svg xmlns="http://www.w3.org/2000/svg" xmlns:xlink="http://www.w3.org/1999/xlink" width="2000" zoomAndPan="magnify" viewBox="0 0 1500 431.999984" height="576" preserveAspectRatio="xMidYMid meet" version="1.0"><defs><g/><clipPath id="25c09be170"><path d="M 44.710938 135.863281 L 387.289062 135.863281 L 387.289062 296.136719 L 44.710938 296.136719 Z M 44.710938 135.863281 " clip-rule="nonzero"/></clipPath><clipPath id="5a4172e2fa"><path d="M 351.199219 188.484375 C 350.730469 187.867188 350.261719 187.242188 349.792969 186.625 C 333.601562 165.269531 302.539062 157.824219 278.101562 168.808594 C 266.265625 174.136719 259.523438 183.9375 251.148438 193.40625 L 207.878906 242.328125 C 196.40625 255.300781 183.109375 272.222656 169.417969 282.441406 C 157.550781 291.300781 144.617188 295.546875 124.320312 295.546875 C 101.457031 295.546875 81.007812 288.53125 65.851562 271.003906 C 52.289062 255.3125 44.925781 237.070312 44.925781 216.242188 C 44.925781 197.144531 50.902344 179.960938 62.714844 164.960938 C 78.050781 145.496094 98.585938 136.136719 123.296875 136.136719 C 148.667969 136.136719 169.792969 145.683594 185.601562 165.617188 C 192.203125 173.945312 196.628906 183.164062 199.285156 192.964844 L 172.988281 222.652344 L 74.621094 222.652344 C 75.792969 234.476562 80.0625 245.113281 88.628906 253.902344 C 97.976562 263.5 109.296875 268.046875 122.671875 268.046875 C 129.3125 268.046875 135.792969 266.898438 142.03125 264.628906 C 158.890625 258.496094 169.929688 242.09375 181.726562 228.820312 C 192.515625 216.679688 203.296875 204.539062 214.082031 192.402344 C 227.25 177.574219 243.480469 155.730469 260.179688 146.660156 C 295.265625 127.609375 344.941406 133.933594 370.15625 165.71875 C 382.007812 180.652344 386.847656 198.46875 387.023438 217.363281 C 387.039062 219.160156 387.058594 220.957031 387.074219 222.753906 C 342.910156 222.753906 298.738281 222.753906 254.574219 222.753906 C 253.183594 213.628906 255.039062 202.433594 264.953125 196.316406 C 294.808594 196.316406 324.664062 196.316406 354.519531 196.316406 C 353.597656 193.636719 352.503906 190.992188 351.199219 188.484375 Z M 356.914062 237.082031 C 357.78125 235.648438 358.648438 234.210938 359.515625 232.773438 C 367.691406 237.078125 375.875 241.378906 384.050781 245.679688 C 383.246094 247.25 382.433594 248.820312 381.625 250.390625 C 376.808594 259.726562 370.742188 268.644531 362.9375 275.746094 C 355.867188 282.171875 347.835938 287.179688 338.902344 290.582031 C 308.167969 302.285156 265.242188 294.753906 242.296875 272.742188 C 233.050781 263.871094 226.460938 253.8125 222.582031 242.605469 C 227.855469 236.753906 233.132812 230.90625 238.40625 225.058594 C 241.453125 221.753906 244.5 218.457031 247.550781 215.152344 C 247.550781 215.292969 247.546875 215.433594 247.546875 215.574219 C 247.546875 225.039062 249.992188 233.8125 254.746094 241.996094 C 259.523438 250.21875 266.070312 256.613281 274.410156 261.179688 C 283.199219 265.984375 292.792969 268.046875 302.777344 268.046875 C 324.542969 268.046875 346.695312 254.027344 356.914062 237.082031 Z M 169.964844 196.214844 C 168.152344 190.960938 165.6875 185.839844 162.261719 181.585938 C 157.792969 176.035156 152.011719 171.996094 145.578125 169.023438 C 138.601562 165.792969 131.25 164.175781 123.566406 164.175781 C 111.152344 164.175781 100.316406 167.96875 91.019531 176.222656 C 85.074219 181.5 81.023438 188.726562 78.179688 196.21875 L 169.964844 196.21875 Z M 169.964844 196.214844 " clip-rule="nonzero"/></clipPath></defs><path fill="#1a4789" d="M 432 366.304688 C 432 402.5625 402.613281 431.949219 366.359375 431.949219 L 65.660156 431.949219 C 29.40625 431.949219 0.015625 402.5625 0.015625 366.304688 L 0.015625 65.609375 C 0.015625 29.355469 29.40625 -0.0351562 65.660156 -0.0351562 L 366.359375 -0.0351562 C 402.613281 -0.0351562 432 29.355469 432 65.609375 Z M 432 366.304688 " fill-opacity="1" fill-rule="nonzero"/><path fill="#1a4789" d="M 286.25 249.523438 L 293.238281 195.359375 L 239.597656 195.359375 L 239.597656 160.777344 C 239.597656 145.09375 243.972656 134.40625 266.457031 134.40625 L 295.117188 134.390625 L 295.117188 85.949219 C 290.167969 85.289062 273.15625 83.8125 253.328125 83.8125 C 211.972656 83.8125 183.675781 109.058594 183.675781 155.417969 L 183.675781 195.359375 L 136.902344 195.359375 L 136.902344 249.523438 L 183.675781 249.523438 L 183.675781 388.5 L 239.597656 388.5 L 239.597656 249.523438 Z M 286.25 249.523438 " fill-opacity="1" fill-rule="nonzero"/><g clip-path="url(#25c09be170)"><g clip-path="url(#5a4172e2fa)"><path fill="#ffffff" d="M 0.078125 -0.953125 L 432.078125 -0.953125 L 432.078125 431.046875 L 0.078125 431.046875 Z M 0.078125 -0.953125 " fill-opacity="1" fill-rule="evenodd"/></g></g><g fill="#1a4789" fill-opacity="1"><g transform="translate(504.69198, 279.510383)"><g><path d="M 74.394531 -129.503906 C 38.214844 -129.503906 10.902344 -103.507812 10.902344 -63.375 C 10.902344 -22.761719 40.132812 2.753906 75.710938 2.753906 C 95 2.753906 113.808594 -5.390625 127.945312 -20.246094 C 130.460938 -22.761719 130.460938 -25.15625 128.066406 -26.953125 L 116.324219 -39.894531 C 114.046875 -41.691406 112.25 -41.570312 109.976562 -39.414062 C 100.511719 -29.710938 88.292969 -24.558594 76.550781 -24.558594 C 58.101562 -24.558594 41.929688 -36.898438 41.089844 -59.0625 L 131.300781 -59.0625 C 134.773438 -59.0625 136.570312 -60.257812 136.570312 -64.570312 C 136.570312 -103.507812 110.574219 -129.503906 74.394531 -129.503906 Z M 74.992188 -103.984375 C 88.050781 -103.984375 100.75 -96.917969 104.464844 -80.746094 L 43.246094 -80.746094 C 47.800781 -97.035156 62.296875 -103.984375 74.992188 -103.984375 Z M 74.992188 -103.984375 "/></g></g></g><g fill="#1a4789" fill-opacity="1"><g transform="translate(651.662515, 279.510383)"><g><path d="M 84.9375 -129.503906 C 70.800781 -129.503906 55.585938 -123.992188 42.886719 -111.53125 L 40.011719 -122.554688 C 39.292969 -125.546875 37.378906 -126.867188 34.621094 -126.867188 L 21.324219 -126.867188 C 18.210938 -126.867188 16.414062 -125.070312 16.414062 -121.953125 L 16.414062 -4.910156 C 16.414062 -1.675781 18.210938 0 21.324219 0 L 42.410156 0 C 45.644531 0 47.320312 -1.675781 47.320312 -4.910156 L 47.320312 -73.195312 C 47.320312 -91.285156 59.898438 -102.308594 75.472656 -102.308594 C 91.40625 -102.308594 100.988281 -90.566406 100.988281 -73.914062 L 100.988281 -4.910156 C 100.988281 -1.675781 102.667969 0 105.902344 0 L 126.988281 0 C 130.101562 0 131.898438 -1.675781 131.898438 -4.910156 L 131.898438 -78.347656 C 131.898438 -103.265625 119.558594 -129.503906 84.9375 -129.503906 Z M 84.9375 -129.503906 "/></g></g></g><g fill="#1a4789" fill-opacity="1"><g transform="translate(798.633051, 279.510383)"><g><path d="M 148.429688 -179.097656 C 148.429688 -182.332031 146.632812 -184.011719 143.519531 -184.011719 L 122.433594 -184.011719 C 119.199219 -184.011719 117.523438 -182.332031 117.523438 -179.097656 L 117.640625 -113.328125 C 106.261719 -123.75 90.925781 -129.503906 74.992188 -129.503906 C 38.457031 -129.503906 10.78125 -99.910156 10.78125 -63.375 C 10.78125 -26.953125 38.457031 2.753906 74.992188 2.753906 C 93.324219 2.753906 110.214844 -4.671875 121.476562 -17.730469 L 125.070312 -4.3125 C 125.789062 -1.316406 127.707031 0 130.460938 0 L 143.757812 0 C 146.871094 0 148.667969 -1.675781 148.667969 -4.910156 Z M 80.144531 -24.917969 C 58.941406 -24.917969 41.691406 -42.167969 41.691406 -63.375 C 41.691406 -84.699219 58.941406 -101.949219 80.144531 -101.949219 C 101.46875 -101.949219 118.71875 -84.699219 118.71875 -63.375 C 118.71875 -42.167969 101.46875 -24.917969 80.144531 -24.917969 Z M 80.144531 -24.917969 "/></g></g></g><g fill="#1a4789" fill-opacity="1"><g transform="translate(963.690423, 279.510383)"><g><path d="M 78.46875 2.753906 C 117.402344 2.753906 146.753906 -24.558594 146.753906 -63.375 C 146.753906 -102.308594 117.402344 -129.503906 78.46875 -129.503906 C 39.894531 -129.503906 10.542969 -102.308594 10.542969 -63.375 C 10.542969 -24.558594 39.894531 2.753906 78.46875 2.753906 Z M 78.46875 -24.917969 C 57.023438 -24.917969 41.332031 -40.972656 41.332031 -63.375 C 41.332031 -85.894531 57.023438 -101.949219 78.46875 -101.949219 C 100.390625 -101.949219 115.964844 -85.894531 115.964844 -63.375 C 115.964844 -40.972656 100.390625 -24.917969 78.46875 -24.917969 Z M 78.46875 -24.917969 "/></g></g></g><g fill="#1a4789" fill-opacity="1"><g transform="translate(1121.081854, 279.510383)"><g><path d="M 42.410156 0 C 45.644531 0 47.320312 -1.675781 47.320312 -4.910156 L 47.320312 -68.40625 C 47.320312 -90.089844 56.304688 -101.347656 72.238281 -101.347656 C 74.753906 -101.347656 78.109375 -100.988281 81.824219 -100.152344 C 84.9375 -99.433594 87.09375 -100.511719 87.8125 -103.507812 L 92.605469 -121.835938 C 93.324219 -124.710938 92.246094 -126.988281 89.371094 -127.824219 C 85.417969 -128.902344 81.464844 -129.503906 77.988281 -129.503906 C 65.171875 -129.503906 52.113281 -123.75 43.246094 -109.136719 L 39.894531 -122.554688 C 39.175781 -125.546875 37.257812 -126.867188 34.503906 -126.867188 L 21.203125 -126.867188 C 18.089844 -126.867188 16.292969 -125.070312 16.292969 -121.953125 L 16.414062 -4.910156 C 16.414062 -1.675781 18.210938 0 21.324219 0 Z M 42.410156 0 "/></g></g></g><g fill="#1a4789" fill-opacity="1"><g transform="translate(1219.181991, 279.510383)"><g><path d="M 53.910156 2.753906 C 78.109375 2.753906 102.066406 -7.066406 102.066406 -36.539062 C 102.066406 -57.261719 85.65625 -67.207031 70.203125 -74.632812 C 55.945312 -81.464844 42.527344 -85.894531 42.527344 -94.28125 C 42.527344 -100.988281 48.398438 -104.105469 57.023438 -104.105469 C 64.332031 -104.105469 73.796875 -101.949219 83.019531 -98.59375 C 86.136719 -97.515625 88.292969 -98.472656 89.25 -101.589844 L 94.28125 -117.640625 C 95.480469 -120.757812 94.160156 -122.914062 91.285156 -123.75 C 79.304688 -127.585938 66.96875 -129.503906 57.023438 -129.503906 C 33.542969 -129.503906 11.859375 -117.523438 11.859375 -90.925781 C 11.859375 -72.117188 26.714844 -62.414062 41.332031 -54.628906 C 55.824219 -46.839844 70.679688 -41.691406 70.679688 -34.023438 C 70.679688 -25.039062 63.734375 -22.042969 54.269531 -22.042969 C 45.761719 -22.042969 34.980469 -24.320312 24.320312 -28.390625 C 20.964844 -29.589844 19.167969 -28.75 18.089844 -25.757812 L 12.339844 -9.464844 C 11.261719 -6.707031 11.859375 -4.433594 15.574219 -3.355469 C 29.351562 0.71875 41.929688 2.753906 53.910156 2.753906 Z M 53.910156 2.753906 "/></g></g></g><g fill="#1a4789" fill-opacity="1"><g transform="translate(1331.655773, 279.510383)"><g><path d="M 74.394531 -129.503906 C 38.214844 -129.503906 10.902344 -103.507812 10.902344 -63.375 C 10.902344 -22.761719 40.132812 2.753906 75.710938 2.753906 C 95 2.753906 113.808594 -5.390625 127.945312 -20.246094 C 130.460938 -22.761719 130.460938 -25.15625 128.066406 -26.953125 L 116.324219 -39.894531 C 114.046875 -41.691406 112.25 -41.570312 109.976562 -39.414062 C 100.511719 -29.710938 88.292969 -24.558594 76.550781 -24.558594 C 58.101562 -24.558594 41.929688 -36.898438 41.089844 -59.0625 L 131.300781 -59.0625 C 134.773438 -59.0625 136.570312 -60.257812 136.570312 -64.570312 C 136.570312 -103.507812 110.574219 -129.503906 74.394531 -129.503906 Z M 74.992188 -103.984375 C 88.050781 -103.984375 100.75 -96.917969 104.464844 -80.746094 L 43.246094 -80.746094 C 47.800781 -97.035156 62.296875 -103.984375 74.992188 -103.984375 Z M 74.992188 -103.984375 "/></g></g></g><g fill="#1a4789" fill-opacity="1"><g transform="translate(504.69198, 370.203469)"><g><path d="M 16.265625 -19.792969 C 21.710938 -18.492188 25.421875 -17.070312 27.398438 -15.460938 C 28.761719 -14.347656 29.441406 -12.925781 29.441406 -11.195312 C 29.441406 -9.464844 29.070312 -8.039062 28.328125 -7.050781 C 26.472656 -4.453125 23.132812 -3.15625 18.429688 -3.15625 C 11.875 -3.15625 8.164062 -5.382812 7.359375 -9.835938 L 2.289062 -9.835938 C 3.773438 -2.722656 9.152344 0.804688 18.429688 0.804688 C 22.574219 0.804688 26.039062 -0.0625 28.824219 -1.917969 C 32.164062 -4.082031 33.894531 -7.296875 33.894531 -11.503906 C 33.894531 -14.96875 32.535156 -17.628906 29.8125 -19.484375 C 27.894531 -20.84375 24.800781 -22.082031 20.535156 -23.195312 C 16.203125 -24.308594 13.421875 -25.234375 12.121094 -25.914062 C 9.277344 -27.339844 7.855469 -29.316406 7.917969 -31.914062 C 7.917969 -33.277344 8.164062 -34.449219 8.78125 -35.316406 C 10.390625 -37.730469 13.234375 -38.964844 17.316406 -38.964844 C 23.070312 -38.964844 26.347656 -37.109375 27.214844 -33.523438 L 31.914062 -33.523438 C 30.367188 -39.585938 25.484375 -42.675781 17.316406 -42.675781 C 13.605469 -42.675781 10.328125 -41.6875 7.609375 -39.707031 C 4.824219 -37.730469 3.402344 -34.820312 3.402344 -30.863281 C 3.402344 -25.484375 7.730469 -21.773438 16.265625 -19.792969 Z M 16.265625 -19.792969 "/></g></g></g><g fill="#1a4789" fill-opacity="1"><g transform="translate(540.193191, 370.203469)"><g><path d="M 1.238281 -23.195312 L 8.039062 -23.195312 L 8.039062 0 L 12.371094 0 L 12.371094 -23.195312 L 19.113281 -23.195312 L 19.113281 -27.214844 L 12.371094 -27.214844 L 12.371094 -37.789062 L 8.039062 -37.789062 L 8.039062 -27.214844 L 1.238281 -27.214844 Z M 1.238281 -23.195312 "/></g></g></g><g fill="#1a4789" fill-opacity="1"><g transform="translate(560.541471, 370.203469)"><g><path d="M 18.617188 -21.585938 L 18.617188 -27.214844 C 17.75 -27.585938 16.824219 -27.769531 15.894531 -27.769531 C 12.804688 -27.769531 10.578125 -26.039062 9.152344 -22.699219 L 8.96875 -21.585938 L 8.96875 -27.214844 L 4.640625 -27.214844 L 4.640625 0 L 8.96875 0 L 8.96875 -13.605469 C 8.96875 -15.832031 9.464844 -17.8125 10.515625 -19.605469 C 11.007812 -20.535156 11.691406 -21.339844 12.492188 -21.957031 C 13.296875 -22.574219 14.289062 -22.945312 15.402344 -22.945312 C 16.515625 -22.945312 17.566406 -22.453125 18.617188 -21.585938 Z M 18.617188 -21.585938 "/></g></g></g><g fill="#1a4789" fill-opacity="1"><g transform="translate(579.776414, 370.203469)"><g><path d="M 31.234375 -14.226562 C 31.234375 -17.9375 29.75 -21.152344 26.90625 -23.9375 C 24.121094 -26.597656 20.78125 -27.957031 17.007812 -27.957031 C 13.050781 -27.957031 9.710938 -26.535156 6.925781 -23.75 C 4.144531 -20.96875 2.785156 -17.628906 2.785156 -13.730469 C 2.785156 -9.773438 4.144531 -6.433594 6.925781 -3.710938 C 8.226562 -2.414062 9.710938 -1.421875 11.441406 -0.679688 C 13.175781 0.0625 15.214844 0.433594 17.628906 0.433594 C 20.039062 0.433594 22.390625 -0.308594 24.742188 -1.792969 C 27.089844 -3.277344 28.824219 -5.382812 29.996094 -7.980469 L 25.050781 -7.980469 C 24.058594 -6.679688 22.886719 -5.691406 21.460938 -4.949219 C 20.039062 -4.207031 18.554688 -3.898438 17.007812 -3.898438 C 14.660156 -3.898438 12.554688 -4.640625 10.699219 -6.183594 C 8.84375 -7.667969 7.667969 -9.585938 7.296875 -11.9375 L 31.234375 -11.9375 Z M 26.65625 -15.648438 L 7.359375 -15.648438 C 7.609375 -16.761719 8.039062 -17.8125 8.660156 -18.800781 C 10.636719 -22.019531 13.421875 -23.628906 17.007812 -23.628906 C 19.296875 -23.628906 21.339844 -22.886719 23.132812 -21.402344 C 24.988281 -19.855469 26.101562 -17.9375 26.65625 -15.648438 Z M 26.65625 -15.648438 "/></g></g></g><g fill="#1a4789" fill-opacity="1"><g transform="translate(613.483999, 370.203469)"><g><path d="M 26.285156 -13.605469 C 26.285156 -10.949219 25.359375 -8.597656 23.503906 -6.679688 C 21.648438 -4.699219 19.359375 -3.710938 16.699219 -3.710938 C 13.976562 -3.710938 11.691406 -4.699219 9.835938 -6.679688 C 7.980469 -8.597656 7.113281 -10.949219 7.113281 -13.605469 C 7.113281 -16.203125 7.980469 -18.554688 9.835938 -20.535156 C 11.691406 -22.515625 13.976562 -23.503906 16.699219 -23.503906 C 19.359375 -23.503906 21.648438 -22.515625 23.503906 -20.535156 C 25.359375 -18.554688 26.285156 -16.203125 26.285156 -13.605469 Z M 30.617188 0 L 30.617188 -27.214844 L 26.285156 -27.214844 L 26.285156 -22.515625 C 26.039062 -22.886719 25.730469 -23.195312 25.484375 -23.503906 C 22.886719 -26.347656 19.730469 -27.832031 16.019531 -27.832031 C 12.246094 -27.832031 9.09375 -26.347656 6.496094 -23.503906 C 4.019531 -20.660156 2.785156 -17.378906 2.785156 -13.605469 C 2.785156 -9.773438 4.019531 -6.496094 6.496094 -3.710938 C 9.09375 -0.804688 12.246094 0.617188 16.019531 0.617188 C 19.730469 0.617188 22.886719 -0.804688 25.484375 -3.710938 C 25.730469 -3.957031 26.039062 -4.269531 26.285156 -4.640625 L 26.285156 0 Z M 30.617188 0 "/></g></g></g><g fill="#1a4789" fill-opacity="1"><g transform="translate(648.737831, 370.203469)"><g><path d="M 39.152344 -0.125 L 43.480469 -0.125 L 43.480469 -17.132812 C 43.480469 -20.164062 42.675781 -22.699219 41.191406 -24.679688 C 40.449219 -25.667969 39.460938 -26.410156 38.347656 -27.027344 C 37.171875 -27.648438 35.625 -27.957031 33.769531 -27.957031 C 31.851562 -27.957031 30.183594 -27.398438 28.761719 -26.410156 C 27.460938 -25.421875 26.410156 -24.246094 25.542969 -22.761719 C 25.234375 -23.441406 24.863281 -24.058594 24.429688 -24.679688 C 23.6875 -25.667969 22.699219 -26.410156 21.585938 -27.027344 C 20.410156 -27.648438 18.863281 -27.957031 17.007812 -27.957031 C 15.089844 -27.957031 13.421875 -27.398438 12 -26.410156 C 10.761719 -25.484375 9.773438 -24.371094 8.96875 -22.945312 L 8.96875 -27.339844 L 4.640625 -27.339844 L 4.640625 -0.125 L 8.96875 -0.125 L 8.96875 -14.039062 C 9.152344 -16.203125 9.710938 -18.121094 10.636719 -19.667969 C 11.257812 -20.78125 12.183594 -21.773438 13.296875 -22.515625 C 14.410156 -23.257812 15.585938 -23.628906 16.886719 -23.628906 C 18.121094 -23.628906 19.113281 -23.378906 19.730469 -23.007812 C 21.460938 -21.894531 22.390625 -19.917969 22.390625 -17.132812 L 22.390625 -0.125 L 26.71875 -0.125 L 26.71875 -17.132812 C 26.71875 -17.441406 26.65625 -17.8125 26.65625 -18.121094 C 26.84375 -18.679688 27.089844 -19.171875 27.398438 -19.667969 C 28.019531 -20.78125 28.945312 -21.773438 30.058594 -22.515625 C 31.171875 -23.257812 32.347656 -23.628906 33.648438 -23.628906 C 34.882812 -23.628906 35.875 -23.378906 36.492188 -23.007812 C 38.222656 -21.894531 39.152344 -19.917969 39.152344 -17.132812 Z M 39.152344 -0.125 "/></g></g></g><g fill="#1a4789" fill-opacity="1"><g transform="translate(695.928475, 370.203469)"><g><path d="M 8.96875 0 L 8.96875 -46.386719 L 4.640625 -46.386719 L 4.640625 0 Z M 8.96875 0 "/></g></g></g><g fill="#1a4789" fill-opacity="1"><g transform="translate(709.535224, 370.203469)"><g><path d="M 9.03125 -36.617188 C 8.472656 -37.109375 7.792969 -37.417969 7.050781 -37.417969 C 6.308594 -37.417969 5.628906 -37.109375 5.132812 -36.617188 C 4.578125 -36.058594 4.328125 -35.378906 4.328125 -34.636719 C 4.328125 -33.894531 4.578125 -33.214844 5.132812 -32.71875 C 5.628906 -32.164062 6.308594 -31.914062 7.050781 -31.914062 C 7.792969 -31.914062 8.472656 -32.164062 9.03125 -32.71875 C 9.523438 -33.214844 9.835938 -33.894531 9.835938 -34.636719 C 9.835938 -35.378906 9.523438 -36.058594 9.03125 -36.617188 Z M 9.277344 0 L 9.277344 -27.214844 L 4.949219 -27.214844 L 4.949219 0 Z M 9.277344 0 "/></g></g></g><g fill="#1a4789" fill-opacity="1"><g transform="translate(723.698576, 370.203469)"><g><path d="M 23.441406 0 L 27.769531 0 L 27.769531 -17.007812 C 27.769531 -20.164062 26.90625 -22.699219 25.296875 -24.617188 C 24.429688 -25.605469 23.441406 -26.347656 22.265625 -26.90625 C 21.03125 -27.460938 19.484375 -27.769531 17.566406 -27.769531 C 15.585938 -27.769531 13.917969 -27.214844 12.433594 -26.226562 C 11.007812 -25.296875 9.835938 -24.058594 8.96875 -22.515625 L 8.96875 -27.214844 L 4.640625 -27.214844 L 4.640625 0 L 8.96875 0 L 8.96875 -11.378906 C 8.96875 -14.84375 9.585938 -17.566406 10.886719 -19.605469 C 11.628906 -20.71875 12.554688 -21.648438 13.730469 -22.390625 C 14.84375 -23.070312 16.390625 -23.441406 18.246094 -23.441406 C 20.101562 -23.441406 21.402344 -22.761719 22.203125 -21.523438 C 23.007812 -20.289062 23.441406 -18.742188 23.441406 -17.007812 Z M 23.441406 0 "/></g></g></g><g fill="#1a4789" fill-opacity="1"><g transform="translate(755.17962, 370.203469)"><g><path d="M 9.03125 -36.617188 C 8.472656 -37.109375 7.792969 -37.417969 7.050781 -37.417969 C 6.308594 -37.417969 5.628906 -37.109375 5.132812 -36.617188 C 4.578125 -36.058594 4.328125 -35.378906 4.328125 -34.636719 C 4.328125 -33.894531 4.578125 -33.214844 5.132812 -32.71875 C 5.628906 -32.164062 6.308594 -31.914062 7.050781 -31.914062 C 7.792969 -31.914062 8.472656 -32.164062 9.03125 -32.71875 C 9.523438 -33.214844 9.835938 -33.894531 9.835938 -34.636719 C 9.835938 -35.378906 9.523438 -36.058594 9.03125 -36.617188 Z M 9.277344 0 L 9.277344 -27.214844 L 4.949219 -27.214844 L 4.949219 0 Z M 9.277344 0 "/></g></g></g><g fill="#1a4789" fill-opacity="1"><g transform="translate(769.342971, 370.203469)"><g><path d="M 23.441406 0 L 27.769531 0 L 27.769531 -17.007812 C 27.769531 -20.164062 26.90625 -22.699219 25.296875 -24.617188 C 24.429688 -25.605469 23.441406 -26.347656 22.265625 -26.90625 C 21.03125 -27.460938 19.484375 -27.769531 17.566406 -27.769531 C 15.585938 -27.769531 13.917969 -27.214844 12.433594 -26.226562 C 11.007812 -25.296875 9.835938 -24.058594 8.96875 -22.515625 L 8.96875 -27.214844 L 4.640625 -27.214844 L 4.640625 0 L 8.96875 0 L 8.96875 -11.378906 C 8.96875 -14.84375 9.585938 -17.566406 10.886719 -19.605469 C 11.628906 -20.71875 12.554688 -21.648438 13.730469 -22.390625 C 14.84375 -23.070312 16.390625 -23.441406 18.246094 -23.441406 C 20.101562 -23.441406 21.402344 -22.761719 22.203125 -21.523438 C 23.007812 -20.289062 23.441406 -18.742188 23.441406 -17.007812 Z M 23.441406 0 "/></g></g></g><g fill="#1a4789" fill-opacity="1"><g transform="translate(800.824015, 370.203469)"><g><path d="M 26.65625 -13.605469 C 26.65625 -10.949219 25.730469 -8.597656 23.875 -6.679688 C 22.019531 -4.699219 19.730469 -3.710938 17.070312 -3.710938 C 14.410156 -3.710938 12.121094 -4.699219 10.265625 -6.679688 C 8.410156 -8.597656 7.484375 -10.886719 7.484375 -13.605469 C 7.484375 -16.265625 8.410156 -18.554688 10.265625 -20.535156 C 12.121094 -22.515625 14.410156 -23.503906 17.070312 -23.503906 C 19.730469 -23.503906 22.019531 -22.515625 23.875 -20.535156 C 25.730469 -18.554688 26.65625 -16.203125 26.65625 -13.605469 Z M 7.359375 3.710938 L 2.90625 3.710938 C 3.402344 6.617188 4.699219 9.152344 6.925781 11.320312 C 9.648438 14.101562 12.988281 15.460938 16.886719 15.460938 C 20.71875 15.460938 24.058594 14.101562 26.84375 11.320312 C 29.566406 8.597656 30.988281 5.257812 30.988281 1.359375 L 30.988281 -27.214844 L 26.65625 -27.214844 L 26.65625 -22.636719 C 26.410156 -22.886719 26.164062 -23.195312 25.914062 -23.503906 C 23.195312 -26.347656 20.039062 -27.832031 16.453125 -27.832031 C 12.617188 -27.832031 9.464844 -26.347656 6.867188 -23.503906 C 4.390625 -20.660156 3.15625 -17.378906 3.15625 -13.605469 C 3.15625 -9.773438 4.390625 -6.496094 6.867188 -3.710938 C 9.464844 -0.804688 12.617188 0.617188 16.453125 0.617188 C 20.164062 0.617188 23.316406 -0.804688 25.914062 -3.710938 C 26.164062 -3.957031 26.410156 -4.269531 26.65625 -4.515625 L 26.65625 1.359375 C 26.65625 4.082031 25.667969 6.371094 23.75 8.289062 C 21.832031 10.207031 19.546875 11.132812 16.886719 11.132812 C 14.164062 11.132812 11.875 10.207031 9.957031 8.289062 C 8.597656 6.925781 7.730469 5.441406 7.359375 3.710938 Z M 7.359375 3.710938 "/></g></g></g><g fill="#1a4789" fill-opacity="1"><g transform="translate(836.448916, 370.203469)"><g/></g></g><g fill="#1a4789" fill-opacity="1"><g transform="translate(853.148096, 370.203469)"><g><path d="M 43.234375 -12.863281 L 38.472656 -12.863281 C 36.988281 -10.144531 34.945312 -7.917969 32.347656 -6.308594 C 29.75 -4.640625 26.84375 -3.835938 23.75 -3.835938 C 19.113281 -3.835938 15.152344 -5.503906 11.875 -8.96875 C 8.660156 -12.246094 7.113281 -16.265625 7.113281 -20.96875 C 7.113281 -25.667969 8.660156 -29.6875 11.875 -33.027344 C 13.359375 -34.574219 15.152344 -35.8125 17.195312 -36.738281 C 19.171875 -37.667969 21.152344 -38.160156 23.132812 -38.160156 C 25.050781 -38.160156 26.71875 -37.914062 28.203125 -37.480469 C 32.71875 -36.121094 36.121094 -33.398438 38.410156 -29.253906 L 43.171875 -29.253906 C 41.5625 -33.214844 39.027344 -36.429688 35.503906 -38.90625 C 31.914062 -41.378906 28.019531 -42.617188 23.75 -42.617188 C 17.875 -42.617188 12.925781 -40.449219 8.84375 -36.183594 C 6.925781 -34.203125 5.441406 -31.851562 4.390625 -29.253906 C 3.277344 -26.65625 2.785156 -23.875 2.785156 -20.96875 C 2.785156 -15.03125 4.761719 -10.019531 8.84375 -5.8125 C 12.925781 -1.484375 17.875 0.617188 23.75 0.617188 C 28.019531 0.617188 31.914062 -0.617188 35.5625 -3.09375 C 39.089844 -5.566406 41.625 -8.78125 43.234375 -12.863281 Z M 43.234375 -12.863281 "/></g></g></g><g fill="#1a4789" fill-opacity="1"><g transform="translate(898.23589, 370.203469)"><g><path d="M 26.90625 -13.730469 C 26.90625 -11.007812 25.914062 -8.722656 24 -6.804688 C 22.019531 -4.824219 19.730469 -3.898438 17.007812 -3.898438 C 14.289062 -3.898438 11.9375 -4.824219 10.019531 -6.804688 C 8.039062 -8.722656 7.113281 -11.007812 7.113281 -13.730469 C 7.113281 -16.453125 8.039062 -18.742188 10.019531 -20.71875 C 11.9375 -22.636719 14.289062 -23.628906 17.007812 -23.628906 C 19.730469 -23.628906 22.019531 -22.636719 24 -20.71875 C 25.914062 -18.742188 26.90625 -16.453125 26.90625 -13.730469 Z M 31.234375 -13.730469 C 31.234375 -17.628906 29.8125 -20.96875 27.027344 -23.75 C 24.246094 -26.535156 20.90625 -27.957031 17.007812 -27.957031 C 13.050781 -27.957031 9.710938 -26.535156 6.925781 -23.75 C 4.144531 -20.96875 2.785156 -17.628906 2.785156 -13.730469 C 2.785156 -9.773438 4.144531 -6.433594 6.925781 -3.710938 C 9.710938 -0.929688 13.113281 0.433594 17.007812 0.433594 C 20.84375 0.433594 24.246094 -0.929688 27.027344 -3.710938 C 29.8125 -6.433594 31.234375 -9.773438 31.234375 -13.730469 Z M 31.234375 -13.730469 "/></g></g></g><g fill="#1a4789" fill-opacity="1"><g transform="translate(932.252697, 370.203469)"><g><path d="M 8.96875 15.460938 L 8.96875 -4.640625 C 9.152344 -4.269531 9.464844 -3.957031 9.710938 -3.710938 C 12.308594 -0.804688 15.460938 0.617188 19.234375 0.617188 C 22.945312 0.617188 26.101562 -0.804688 28.699219 -3.710938 C 31.171875 -6.496094 32.472656 -9.773438 32.472656 -13.605469 C 32.472656 -17.378906 31.171875 -20.660156 28.699219 -23.503906 C 26.101562 -26.347656 22.945312 -27.832031 19.234375 -27.832031 C 15.460938 -27.832031 12.308594 -26.347656 9.710938 -23.503906 C 9.464844 -23.195312 9.152344 -22.886719 8.96875 -22.515625 L 8.96875 -27.214844 L 4.640625 -27.214844 L 4.640625 15.460938 Z M 28.140625 -13.605469 C 28.140625 -10.949219 27.214844 -8.597656 25.359375 -6.679688 C 23.503906 -4.699219 21.214844 -3.710938 18.554688 -3.710938 C 15.832031 -3.710938 13.546875 -4.699219 11.691406 -6.679688 C 9.835938 -8.597656 8.96875 -10.949219 8.96875 -13.605469 C 8.96875 -16.203125 9.835938 -18.554688 11.691406 -20.535156 C 13.546875 -22.515625 15.832031 -23.503906 18.554688 -23.503906 C 21.214844 -23.503906 23.503906 -22.515625 25.359375 -20.535156 C 27.214844 -18.554688 28.140625 -16.203125 28.140625 -13.605469 Z M 28.140625 -13.605469 "/></g></g></g><g fill="#1a4789" fill-opacity="1"><g transform="translate(967.50653, 370.203469)"><g><path d="M 8.101562 15.460938 L 26.90625 -27.214844 L 22.082031 -27.214844 L 14.289062 -8.96875 L 5.566406 -27.214844 L 0.617188 -27.214844 L 12 -4.453125 L 2.84375 15.460938 Z M 8.101562 15.460938 "/></g></g></g><g fill="#1a4789" fill-opacity="1"><g transform="translate(993.792293, 370.203469)"><g><path d="M 18.617188 -21.585938 L 18.617188 -27.214844 C 17.75 -27.585938 16.824219 -27.769531 15.894531 -27.769531 C 12.804688 -27.769531 10.578125 -26.039062 9.152344 -22.699219 L 8.96875 -21.585938 L 8.96875 -27.214844 L 4.640625 -27.214844 L 4.640625 0 L 8.96875 0 L 8.96875 -13.605469 C 8.96875 -15.832031 9.464844 -17.8125 10.515625 -19.605469 C 11.007812 -20.535156 11.691406 -21.339844 12.492188 -21.957031 C 13.296875 -22.574219 14.289062 -22.945312 15.402344 -22.945312 C 16.515625 -22.945312 17.566406 -22.453125 18.617188 -21.585938 Z M 18.617188 -21.585938 "/></g></g></g><g fill="#1a4789" fill-opacity="1"><g transform="translate(1013.027236, 370.203469)"><g><path d="M 9.03125 -36.617188 C 8.472656 -37.109375 7.792969 -37.417969 7.050781 -37.417969 C 6.308594 -37.417969 5.628906 -37.109375 5.132812 -36.617188 C 4.578125 -36.058594 4.328125 -35.378906 4.328125 -34.636719 C 4.328125 -33.894531 4.578125 -33.214844 5.132812 -32.71875 C 5.628906 -32.164062 6.308594 -31.914062 7.050781 -31.914062 C 7.792969 -31.914062 8.472656 -32.164062 9.03125 -32.71875 C 9.523438 -33.214844 9.835938 -33.894531 9.835938 -34.636719 C 9.835938 -35.378906 9.523438 -36.058594 9.03125 -36.617188 Z M 9.277344 0 L 9.277344 -27.214844 L 4.949219 -27.214844 L 4.949219 0 Z M 9.277344 0 "/></g></g></g><g fill="#1a4789" fill-opacity="1"><g transform="translate(1027.190588, 370.203469)"><g><path d="M 26.65625 -13.605469 C 26.65625 -10.949219 25.730469 -8.597656 23.875 -6.679688 C 22.019531 -4.699219 19.730469 -3.710938 17.070312 -3.710938 C 14.410156 -3.710938 12.121094 -4.699219 10.265625 -6.679688 C 8.410156 -8.597656 7.484375 -10.886719 7.484375 -13.605469 C 7.484375 -16.265625 8.410156 -18.554688 10.265625 -20.535156 C 12.121094 -22.515625 14.410156 -23.503906 17.070312 -23.503906 C 19.730469 -23.503906 22.019531 -22.515625 23.875 -20.535156 C 25.730469 -18.554688 26.65625 -16.203125 26.65625 -13.605469 Z M 7.359375 3.710938 L 2.90625 3.710938 C 3.402344 6.617188 4.699219 9.152344 6.925781 11.320312 C 9.648438 14.101562 12.988281 15.460938 16.886719 15.460938 C 20.71875 15.460938 24.058594 14.101562 26.84375 11.320312 C 29.566406 8.597656 30.988281 5.257812 30.988281 1.359375 L 30.988281 -27.214844 L 26.65625 -27.214844 L 26.65625 -22.636719 C 26.410156 -22.886719 26.164062 -23.195312 25.914062 -23.503906 C 23.195312 -26.347656 20.039062 -27.832031 16.453125 -27.832031 C 12.617188 -27.832031 9.464844 -26.347656 6.867188 -23.503906 C 4.390625 -20.660156 3.15625 -17.378906 3.15625 -13.605469 C 3.15625 -9.773438 4.390625 -6.496094 6.867188 -3.710938 C 9.464844 -0.804688 12.617188 0.617188 16.453125 0.617188 C 20.164062 0.617188 23.316406 -0.804688 25.914062 -3.710938 C 26.164062 -3.957031 26.410156 -4.269531 26.65625 -4.515625 L 26.65625 1.359375 C 26.65625 4.082031 25.667969 6.371094 23.75 8.289062 C 21.832031 10.207031 19.546875 11.132812 16.886719 11.132812 C 14.164062 11.132812 11.875 10.207031 9.957031 8.289062 C 8.597656 6.925781 7.730469 5.441406 7.359375 3.710938 Z M 7.359375 3.710938 "/></g></g></g><g fill="#1a4789" fill-opacity="1"><g transform="translate(1062.815488, 370.203469)"><g><path d="M 8.96875 0 L 8.96875 -11.378906 C 8.96875 -15.152344 9.585938 -18 10.886719 -19.976562 C 11.628906 -21.089844 12.554688 -21.894531 13.730469 -22.515625 C 14.84375 -23.132812 16.390625 -23.441406 18.246094 -23.441406 C 20.101562 -23.441406 21.402344 -22.761719 22.203125 -21.523438 C 23.007812 -20.289062 23.441406 -18.742188 23.441406 -17.007812 L 23.441406 0 L 27.769531 0 L 27.769531 -17.007812 C 27.769531 -20.164062 26.90625 -22.699219 25.296875 -24.617188 C 24.429688 -25.605469 23.441406 -26.347656 22.265625 -26.90625 C 21.03125 -27.460938 19.484375 -27.769531 17.566406 -27.769531 C 15.585938 -27.769531 13.917969 -27.214844 12.433594 -26.226562 C 11.007812 -25.296875 9.835938 -24.058594 8.96875 -22.515625 L 8.96875 -46.386719 L 4.640625 -46.386719 L 4.640625 0 Z M 8.96875 0 "/></g></g></g><g fill="#1a4789" fill-opacity="1"><g transform="translate(1094.296532, 370.203469)"><g><path d="M 1.238281 -23.195312 L 8.039062 -23.195312 L 8.039062 0 L 12.371094 0 L 12.371094 -23.195312 L 19.113281 -23.195312 L 19.113281 -27.214844 L 12.371094 -27.214844 L 12.371094 -37.789062 L 8.039062 -37.789062 L 8.039062 -27.214844 L 1.238281 -27.214844 Z M 1.238281 -23.195312 "/></g></g></g><g fill="#1a4789" fill-opacity="1"><g transform="translate(1114.644812, 370.203469)"><g/></g></g><g fill="#1a4789" fill-opacity="1"><g transform="translate(1131.343992, 370.203469)"><g><path d="M 43.234375 -12.863281 L 38.472656 -12.863281 C 36.988281 -10.144531 34.945312 -7.917969 32.347656 -6.308594 C 29.75 -4.640625 26.84375 -3.835938 23.75 -3.835938 C 19.113281 -3.835938 15.152344 -5.503906 11.875 -8.96875 C 8.660156 -12.246094 7.113281 -16.265625 7.113281 -20.96875 C 7.113281 -25.667969 8.660156 -29.6875 11.875 -33.027344 C 13.359375 -34.574219 15.152344 -35.8125 17.195312 -36.738281 C 19.171875 -37.667969 21.152344 -38.160156 23.132812 -38.160156 C 25.050781 -38.160156 26.71875 -37.914062 28.203125 -37.480469 C 32.71875 -36.121094 36.121094 -33.398438 38.410156 -29.253906 L 43.171875 -29.253906 C 41.5625 -33.214844 39.027344 -36.429688 35.503906 -38.90625 C 31.914062 -41.378906 28.019531 -42.617188 23.75 -42.617188 C 17.875 -42.617188 12.925781 -40.449219 8.84375 -36.183594 C 6.925781 -34.203125 5.441406 -31.851562 4.390625 -29.253906 C 3.277344 -26.65625 2.785156 -23.875 2.785156 -20.96875 C 2.785156 -15.03125 4.761719 -10.019531 8.84375 -5.8125 C 12.925781 -1.484375 17.875 0.617188 23.75 0.617188 C 28.019531 0.617188 31.914062 -0.617188 35.5625 -3.09375 C 39.089844 -5.566406 41.625 -8.78125 43.234375 -12.863281 Z M 43.234375 -12.863281 "/></g></g></g><g fill="#1a4789" fill-opacity="1"><g transform="translate(1176.431785, 370.203469)"><g><path d="M 26.90625 -13.730469 C 26.90625 -11.007812 25.914062 -8.722656 24 -6.804688 C 22.019531 -4.824219 19.730469 -3.898438 17.007812 -3.898438 C 14.289062 -3.898438 11.9375 -4.824219 10.019531 -6.804688 C 8.039062 -8.722656 7.113281 -11.007812 7.113281 -13.730469 C 7.113281 -16.453125 8.039062 -18.742188 10.019531 -20.71875 C 11.9375 -22.636719 14.289062 -23.628906 17.007812 -23.628906 C 19.730469 -23.628906 22.019531 -22.636719 24 -20.71875 C 25.914062 -18.742188 26.90625 -16.453125 26.90625 -13.730469 Z M 31.234375 -13.730469 C 31.234375 -17.628906 29.8125 -20.96875 27.027344 -23.75 C 24.246094 -26.535156 20.90625 -27.957031 17.007812 -27.957031 C 13.050781 -27.957031 9.710938 -26.535156 6.925781 -23.75 C 4.144531 -20.96875 2.785156 -17.628906 2.785156 -13.730469 C 2.785156 -9.773438 4.144531 -6.433594 6.925781 -3.710938 C 9.710938 -0.929688 13.113281 0.433594 17.007812 0.433594 C 20.84375 0.433594 24.246094 -0.929688 27.027344 -3.710938 C 29.8125 -6.433594 31.234375 -9.773438 31.234375 -13.730469 Z M 31.234375 -13.730469 "/></g></g></g><g fill="#1a4789" fill-opacity="1"><g transform="translate(1210.448593, 370.203469)"><g><path d="M 8.96875 0 L 8.96875 -46.386719 L 4.640625 -46.386719 L 4.640625 0 Z M 8.96875 0 "/></g></g></g><g fill="#1a4789" fill-opacity="1"><g transform="translate(1224.055342, 370.203469)"><g><path d="M 8.96875 0 L 8.96875 -46.386719 L 4.640625 -46.386719 L 4.640625 0 Z M 8.96875 0 "/></g></g></g><g fill="#1a4789" fill-opacity="1"><g transform="translate(1237.662091, 370.203469)"><g><path d="M 26.285156 -13.605469 C 26.285156 -10.949219 25.359375 -8.597656 23.503906 -6.679688 C 21.648438 -4.699219 19.359375 -3.710938 16.699219 -3.710938 C 13.976562 -3.710938 11.691406 -4.699219 9.835938 -6.679688 C 7.980469 -8.597656 7.113281 -10.949219 7.113281 -13.605469 C 7.113281 -16.203125 7.980469 -18.554688 9.835938 -20.535156 C 11.691406 -22.515625 13.976562 -23.503906 16.699219 -23.503906 C 19.359375 -23.503906 21.648438 -22.515625 23.503906 -20.535156 C 25.359375 -18.554688 26.285156 -16.203125 26.285156 -13.605469 Z M 30.617188 0 L 30.617188 -27.214844 L 26.285156 -27.214844 L 26.285156 -22.515625 C 26.039062 -22.886719 25.730469 -23.195312 25.484375 -23.503906 C 22.886719 -26.347656 19.730469 -27.832031 16.019531 -27.832031 C 12.246094 -27.832031 9.09375 -26.347656 6.496094 -23.503906 C 4.019531 -20.660156 2.785156 -17.378906 2.785156 -13.605469 C 2.785156 -9.773438 4.019531 -6.496094 6.496094 -3.710938 C 9.09375 -0.804688 12.246094 0.617188 16.019531 0.617188 C 19.730469 0.617188 22.886719 -0.804688 25.484375 -3.710938 C 25.730469 -3.957031 26.039062 -4.269531 26.285156 -4.640625 L 26.285156 0 Z M 30.617188 0 "/></g></g></g><g fill="#1a4789" fill-opacity="1"><g transform="translate(1272.915924, 370.203469)"><g><path d="M 8.96875 0 L 8.96875 -4.640625 C 9.152344 -4.269531 9.464844 -3.957031 9.710938 -3.710938 C 12.308594 -0.804688 15.460938 0.617188 19.234375 0.617188 C 22.945312 0.617188 26.101562 -0.804688 28.699219 -3.710938 C 31.171875 -6.496094 32.472656 -9.773438 32.472656 -13.605469 C 32.472656 -17.378906 31.171875 -20.660156 28.699219 -23.503906 C 26.101562 -26.347656 22.945312 -27.832031 19.234375 -27.832031 C 15.460938 -27.832031 12.308594 -26.347656 9.710938 -23.503906 C 9.464844 -23.195312 9.152344 -22.886719 8.96875 -22.515625 L 8.96875 -46.386719 L 4.640625 -46.386719 L 4.640625 0 Z M 28.140625 -13.605469 C 28.140625 -10.949219 27.214844 -8.597656 25.359375 -6.679688 C 23.503906 -4.699219 21.214844 -3.710938 18.554688 -3.710938 C 15.832031 -3.710938 13.546875 -4.699219 11.691406 -6.679688 C 9.835938 -8.597656 8.96875 -10.949219 8.96875 -13.605469 C 8.96875 -16.203125 9.835938 -18.554688 11.691406 -20.535156 C 13.546875 -22.515625 15.832031 -23.503906 18.554688 -23.503906 C 21.214844 -23.503906 23.503906 -22.515625 25.359375 -20.535156 C 27.214844 -18.554688 28.140625 -16.203125 28.140625 -13.605469 Z M 28.140625 -13.605469 "/></g></g></g><g fill="#1a4789" fill-opacity="1"><g transform="translate(1308.169756, 370.203469)"><g><path d="M 26.90625 -13.730469 C 26.90625 -11.007812 25.914062 -8.722656 24 -6.804688 C 22.019531 -4.824219 19.730469 -3.898438 17.007812 -3.898438 C 14.289062 -3.898438 11.9375 -4.824219 10.019531 -6.804688 C 8.039062 -8.722656 7.113281 -11.007812 7.113281 -13.730469 C 7.113281 -16.453125 8.039062 -18.742188 10.019531 -20.71875 C 11.9375 -22.636719 14.289062 -23.628906 17.007812 -23.628906 C 19.730469 -23.628906 22.019531 -22.636719 24 -20.71875 C 25.914062 -18.742188 26.90625 -16.453125 26.90625 -13.730469 Z M 31.234375 -13.730469 C 31.234375 -17.628906 29.8125 -20.96875 27.027344 -23.75 C 24.246094 -26.535156 20.90625 -27.957031 17.007812 -27.957031 C 13.050781 -27.957031 9.710938 -26.535156 6.925781 -23.75 C 4.144531 -20.96875 2.785156 -17.628906 2.785156 -13.730469 C 2.785156 -9.773438 4.144531 -6.433594 6.925781 -3.710938 C 9.710938 -0.929688 13.113281 0.433594 17.007812 0.433594 C 20.84375 0.433594 24.246094 -0.929688 27.027344 -3.710938 C 29.8125 -6.433594 31.234375 -9.773438 31.234375 -13.730469 Z M 31.234375 -13.730469 "/></g></g></g><g fill="#1a4789" fill-opacity="1"><g transform="translate(1342.186564, 370.203469)"><g><path d="M 18.617188 -21.585938 L 18.617188 -27.214844 C 17.75 -27.585938 16.824219 -27.769531 15.894531 -27.769531 C 12.804688 -27.769531 10.578125 -26.039062 9.152344 -22.699219 L 8.96875 -21.585938 L 8.96875 -27.214844 L 4.640625 -27.214844 L 4.640625 0 L 8.96875 0 L 8.96875 -13.605469 C 8.96875 -15.832031 9.464844 -17.8125 10.515625 -19.605469 C 11.007812 -20.535156 11.691406 -21.339844 12.492188 -21.957031 C 13.296875 -22.574219 14.289062 -22.945312 15.402344 -22.945312 C 16.515625 -22.945312 17.566406 -22.453125 18.617188 -21.585938 Z M 18.617188 -21.585938 "/></g></g></g><g fill="#1a4789" fill-opacity="1"><g transform="translate(1361.421508, 370.203469)"><g><path d="M 26.285156 -13.605469 C 26.285156 -10.949219 25.359375 -8.597656 23.503906 -6.679688 C 21.648438 -4.699219 19.359375 -3.710938 16.699219 -3.710938 C 13.976562 -3.710938 11.691406 -4.699219 9.835938 -6.679688 C 7.980469 -8.597656 7.113281 -10.949219 7.113281 -13.605469 C 7.113281 -16.203125 7.980469 -18.554688 9.835938 -20.535156 C 11.691406 -22.515625 13.976562 -23.503906 16.699219 -23.503906 C 19.359375 -23.503906 21.648438 -22.515625 23.503906 -20.535156 C 25.359375 -18.554688 26.285156 -16.203125 26.285156 -13.605469 Z M 30.617188 0 L 30.617188 -27.214844 L 26.285156 -27.214844 L 26.285156 -22.515625 C 26.039062 -22.886719 25.730469 -23.195312 25.484375 -23.503906 C 22.886719 -26.347656 19.730469 -27.832031 16.019531 -27.832031 C 12.246094 -27.832031 9.09375 -26.347656 6.496094 -23.503906 C 4.019531 -20.660156 2.785156 -17.378906 2.785156 -13.605469 C 2.785156 -9.773438 4.019531 -6.496094 6.496094 -3.710938 C 9.09375 -0.804688 12.246094 0.617188 16.019531 0.617188 C 19.730469 0.617188 22.886719 -0.804688 25.484375 -3.710938 C 25.730469 -3.957031 26.039062 -4.269531 26.285156 -4.640625 L 26.285156 0 Z M 30.617188 0 "/></g></g></g><g fill="#1a4789" fill-opacity="1"><g transform="translate(1396.67534, 370.203469)"><g><path d="M 1.238281 -23.195312 L 8.039062 -23.195312 L 8.039062 0 L 12.371094 0 L 12.371094 -23.195312 L 19.113281 -23.195312 L 19.113281 -27.214844 L 12.371094 -27.214844 L 12.371094 -37.789062 L 8.039062 -37.789062 L 8.039062 -27.214844 L 1.238281 -27.214844 Z M 1.238281 -23.195312 "/></g></g></g><g fill="#1a4789" fill-opacity="1"><g transform="translate(1417.023619, 370.203469)"><g><path d="M 9.03125 -36.617188 C 8.472656 -37.109375 7.792969 -37.417969 7.050781 -37.417969 C 6.308594 -37.417969 5.628906 -37.109375 5.132812 -36.617188 C 4.578125 -36.058594 4.328125 -35.378906 4.328125 -34.636719 C 4.328125 -33.894531 4.578125 -33.214844 5.132812 -32.71875 C 5.628906 -32.164062 6.308594 -31.914062 7.050781 -31.914062 C 7.792969 -31.914062 8.472656 -32.164062 9.03125 -32.71875 C 9.523438 -33.214844 9.835938 -33.894531 9.835938 -34.636719 C 9.835938 -35.378906 9.523438 -36.058594 9.03125 -36.617188 Z M 9.277344 0 L 9.277344 -27.214844 L 4.949219 -27.214844 L 4.949219 0 Z M 9.277344 0 "/></g></g></g><g fill="#1a4789" fill-opacity="1"><g transform="translate(1431.186971, 370.203469)"><g><path d="M 26.90625 -13.730469 C 26.90625 -11.007812 25.914062 -8.722656 24 -6.804688 C 22.019531 -4.824219 19.730469 -3.898438 17.007812 -3.898438 C 14.289062 -3.898438 11.9375 -4.824219 10.019531 -6.804688 C 8.039062 -8.722656 7.113281 -11.007812 7.113281 -13.730469 C 7.113281 -16.453125 8.039062 -18.742188 10.019531 -20.71875 C 11.9375 -22.636719 14.289062 -23.628906 17.007812 -23.628906 C 19.730469 -23.628906 22.019531 -22.636719 24 -20.71875 C 25.914062 -18.742188 26.90625 -16.453125 26.90625 -13.730469 Z M 31.234375 -13.730469 C 31.234375 -17.628906 29.8125 -20.96875 27.027344 -23.75 C 24.246094 -26.535156 20.90625 -27.957031 17.007812 -27.957031 C 13.050781 -27.957031 9.710938 -26.535156 6.925781 -23.75 C 4.144531 -20.96875 2.785156 -17.628906 2.785156 -13.730469 C 2.785156 -9.773438 4.144531 -6.433594 6.925781 -3.710938 C 9.710938 -0.929688 13.113281 0.433594 17.007812 0.433594 C 20.84375 0.433594 24.246094 -0.929688 27.027344 -3.710938 C 29.8125 -6.433594 31.234375 -9.773438 31.234375 -13.730469 Z M 31.234375 -13.730469 "/></g></g></g><g fill="#1a4789" fill-opacity="1"><g transform="translate(1465.203778, 370.203469)"><g><path d="M 23.441406 0 L 27.769531 0 L 27.769531 -17.007812 C 27.769531 -20.164062 26.90625 -22.699219 25.296875 -24.617188 C 24.429688 -25.605469 23.441406 -26.347656 22.265625 -26.90625 C 21.03125 -27.460938 19.484375 -27.769531 17.566406 -27.769531 C 15.585938 -27.769531 13.917969 -27.214844 12.433594 -26.226562 C 11.007812 -25.296875 9.835938 -24.058594 8.96875 -22.515625 L 8.96875 -27.214844 L 4.640625 -27.214844 L 4.640625 0 L 8.96875 0 L 8.96875 -11.378906 C 8.96875 -14.84375 9.585938 -17.566406 10.886719 -19.605469 C 11.628906 -20.71875 12.554688 -21.648438 13.730469 -22.390625 C 14.84375 -23.070312 16.390625 -23.441406 18.246094 -23.441406 C 20.101562 -23.441406 21.402344 -22.761719 22.203125 -21.523438 C 23.007812 -20.289062 23.441406 -18.742188 23.441406 -17.007812 Z M 23.441406 0 "/></g></g></g></svg>