<svg xmlns="http://www.w3.org/2000/svg" xmlns:xlink="http://www.w3.org/1999/xlink" width="500" zoomAndPan="magnify" viewBox="0 0 375 374.999991" height="500" preserveAspectRatio="xMidYMid meet" version="1.0"><defs><clipPath id="6dd11c05a8"><path d="M 98 131.753906 L 277 131.753906 L 277 215.511719 L 98 215.511719 Z M 98 131.753906 " clip-rule="nonzero"/></clipPath><clipPath id="2caa350df2"><path d="M 258.148438 159.25 C 257.902344 158.929688 257.660156 158.605469 257.414062 158.28125 C 248.953125 147.121094 232.71875 143.230469 219.945312 148.96875 C 213.761719 151.753906 210.238281 156.875 205.859375 161.824219 L 183.25 187.390625 C 177.253906 194.167969 170.304688 203.011719 163.148438 208.355469 C 156.949219 212.984375 150.1875 215.203125 139.582031 215.203125 C 127.632812 215.203125 116.949219 211.535156 109.027344 202.375 C 101.9375 194.175781 98.089844 184.644531 98.089844 173.757812 C 98.089844 163.777344 101.214844 154.796875 107.386719 146.957031 C 115.402344 136.785156 126.132812 131.894531 139.046875 131.894531 C 152.304688 131.894531 163.34375 136.886719 171.605469 147.300781 C 175.058594 151.652344 177.371094 156.472656 178.757812 161.59375 L 165.015625 177.105469 L 113.609375 177.105469 C 114.222656 183.289062 116.453125 188.84375 120.929688 193.4375 C 125.8125 198.453125 131.730469 200.832031 138.722656 200.832031 C 142.191406 200.832031 145.578125 200.230469 148.835938 199.042969 C 157.648438 195.839844 163.417969 187.269531 169.582031 180.332031 C 175.21875 173.988281 180.855469 167.640625 186.492188 161.300781 C 193.371094 153.550781 201.855469 142.132812 210.582031 137.394531 C 228.917969 127.441406 254.878906 130.742188 268.054688 147.355469 C 274.246094 155.160156 276.777344 164.46875 276.871094 174.34375 C 276.878906 175.28125 276.886719 176.222656 276.894531 177.160156 C 253.816406 177.160156 230.730469 177.160156 207.652344 177.160156 C 206.925781 172.390625 207.894531 166.542969 213.074219 163.34375 C 228.679688 163.34375 244.28125 163.34375 259.882812 163.34375 C 259.402344 161.945312 258.828125 160.5625 258.148438 159.25 Z M 261.132812 184.648438 C 261.585938 183.898438 262.039062 183.148438 262.492188 182.398438 C 266.765625 184.644531 271.042969 186.894531 275.316406 189.140625 C 274.894531 189.964844 274.472656 190.78125 274.050781 191.601562 C 271.53125 196.480469 268.359375 201.144531 264.28125 204.855469 C 260.585938 208.214844 256.390625 210.832031 251.722656 212.605469 C 235.660156 218.722656 213.226562 214.789062 201.234375 203.285156 C 196.402344 198.648438 192.960938 193.390625 190.933594 187.535156 C 193.6875 184.476562 196.445312 181.421875 199.203125 178.363281 C 200.792969 176.640625 202.386719 174.914062 203.980469 173.1875 C 203.980469 173.261719 203.980469 173.335938 203.980469 173.40625 C 203.980469 178.355469 205.257812 182.941406 207.742188 187.21875 C 210.238281 191.515625 213.660156 194.855469 218.019531 197.242188 C 222.609375 199.753906 227.625 200.832031 232.84375 200.832031 C 244.21875 200.832031 255.792969 193.503906 261.132812 184.648438 Z M 163.4375 163.292969 C 162.488281 160.546875 161.199219 157.871094 159.410156 155.648438 C 157.074219 152.746094 154.054688 150.636719 150.691406 149.082031 C 147.042969 147.394531 143.203125 146.546875 139.1875 146.546875 C 132.699219 146.546875 127.035156 148.53125 122.179688 152.84375 C 119.070312 155.601562 116.957031 159.378906 115.46875 163.292969 Z M 163.4375 163.292969 " clip-rule="nonzero"/></clipPath></defs><path fill="#000000" d="M 299.058594 167.082031 C 299.058594 195.8125 288.113281 223.09375 268.246094 243.890625 C 265.425781 246.835938 262.710938 249.601562 260.140625 252.222656 C 246.304688 266.261719 237.304688 275.363281 233.515625 292.769531 L 141.890625 292.769531 C 138.847656 274.988281 130.394531 266.835938 116.933594 253.816406 C 114.214844 251.199219 111.371094 248.429688 108.382812 245.414062 C 86.589844 223.394531 75.148438 194.214844 76.195312 163.242188 C 78.164062 104.839844 127.304688 56.535156 185.746094 55.585938 C 216.113281 55.136719 244.308594 66.460938 265.777344 87.582031 C 287.242188 108.730469 299.058594 136.933594 299.058594 167.082031 Z M 158.894531 338.355469 L 143.683594 338.355469 C 147.375 359.253906 165.648438 375.191406 187.589844 375.191406 C 209.53125 375.191406 227.804688 359.253906 231.496094 338.355469 Z M 129.523438 38.878906 C 130.695312 41.746094 133.460938 43.464844 136.378906 43.464844 C 137.328125 43.464844 138.300781 43.292969 139.222656 42.894531 C 143.011719 41.320312 144.804688 36.984375 143.234375 33.191406 L 131.890625 5.710938 C 130.320312 1.917969 125.957031 0.148438 122.191406 1.695312 C 118.402344 3.265625 116.609375 7.605469 118.179688 11.394531 Z M 235.933594 42.894531 C 236.855469 43.265625 237.828125 43.464844 238.773438 43.464844 C 241.691406 43.464844 244.460938 41.746094 245.632812 38.878906 L 257 11.394531 C 258.570312 7.605469 256.777344 3.242188 252.984375 1.695312 C 249.195312 0.125 244.832031 1.917969 243.289062 5.710938 L 231.917969 33.191406 C 230.347656 36.984375 232.144531 41.320312 235.933594 42.894531 Z M 311.175781 115.859375 C 312.125 115.859375 313.097656 115.6875 314.019531 115.289062 L 341.46875 103.914062 C 345.257812 102.34375 347.054688 97.980469 345.484375 94.214844 C 343.914062 90.425781 339.550781 88.628906 335.785156 90.199219 L 308.335938 101.570312 C 304.546875 103.144531 302.75 107.507812 304.320312 111.273438 C 305.492188 114.140625 308.261719 115.859375 311.175781 115.859375 Z M 341.46875 215.339844 L 314.019531 203.964844 C 310.253906 202.394531 305.890625 204.191406 304.320312 207.980469 C 302.75 211.773438 304.546875 216.136719 308.335938 217.683594 L 335.785156 229.054688 C 336.707031 229.429688 337.679688 229.628906 338.628906 229.628906 C 341.542969 229.628906 344.3125 227.90625 345.484375 225.039062 C 347.054688 221.273438 345.257812 216.910156 341.46875 215.339844 Z M 61.160156 203.964844 L 33.710938 215.339844 C 29.921875 216.910156 28.125 221.273438 29.695312 225.039062 C 30.867188 227.90625 33.660156 229.628906 36.550781 229.628906 C 37.5 229.628906 38.472656 229.453125 39.394531 229.054688 L 66.84375 217.683594 C 70.632812 216.113281 72.429688 211.746094 70.859375 207.980469 C 69.3125 204.191406 64.949219 202.394531 61.160156 203.964844 Z M 66.84375 101.570312 L 39.394531 90.199219 C 35.605469 88.628906 31.242188 90.425781 29.695312 94.214844 C 28.125 98.003906 29.921875 102.371094 33.710938 103.914062 L 61.160156 115.289062 C 62.082031 115.660156 63.054688 115.859375 64.003906 115.859375 C 66.917969 115.859375 69.6875 114.140625 70.859375 111.273438 C 72.453125 107.480469 70.632812 103.144531 66.84375 101.570312 Z M 157.871094 307.957031 L 143.011719 307.957031 L 143.011719 323.167969 L 232.167969 323.167969 L 232.167969 307.957031 Z M 157.871094 307.957031 " fill-opacity="1" fill-rule="nonzero"/><g clip-path="url(#6dd11c05a8)"><g clip-path="url(#2caa350df2)"><path fill="#ffffff" d="M 74.65625 60.253906 L 300.414062 60.253906 L 300.414062 286.015625 L 74.65625 286.015625 Z M 74.65625 60.253906 " fill-opacity="1" fill-rule="evenodd"/></g></g></svg>