<svg xmlns="http://www.w3.org/2000/svg" xmlns:xlink="http://www.w3.org/1999/xlink" width="2000" zoomAndPan="magnify" viewBox="0 0 1500 431.999984" height="576" preserveAspectRatio="xMidYMid meet" version="1.0"><defs><g/><clipPath id="4de0c1c019"><path d="M 123 158.039062 L 309 158.039062 L 309 245.132812 L 123 245.132812 Z M 123 158.039062 " clip-rule="nonzero"/></clipPath><clipPath id="d453d11c93"><path d="M 289.46875 186.632812 C 289.210938 186.296875 288.957031 185.960938 288.703125 185.625 C 279.90625 174.019531 263.023438 169.972656 249.742188 175.941406 C 243.3125 178.835938 239.648438 184.164062 235.097656 189.308594 L 211.585938 215.894531 C 205.351562 222.941406 198.125 232.136719 190.6875 237.691406 C 184.238281 242.503906 177.207031 244.8125 166.179688 244.8125 C 153.753906 244.8125 142.644531 241 134.40625 231.472656 C 127.035156 222.949219 123.035156 213.035156 123.035156 201.71875 C 123.035156 191.339844 126.285156 182 132.703125 173.851562 C 141.035156 163.273438 152.195312 158.1875 165.625 158.1875 C 179.410156 158.1875 190.890625 163.375 199.480469 174.207031 C 203.066406 178.734375 205.472656 183.742188 206.914062 189.066406 L 192.628906 205.199219 L 139.171875 205.199219 C 139.8125 211.625 142.128906 217.40625 146.785156 222.183594 C 151.863281 227.398438 158.015625 229.867188 165.285156 229.867188 C 168.894531 229.867188 172.414062 229.246094 175.804688 228.011719 C 184.964844 224.679688 190.964844 215.765625 197.375 208.550781 C 203.238281 201.957031 209.097656 195.359375 214.957031 188.761719 C 222.113281 180.707031 230.929688 168.835938 240.003906 163.90625 C 259.070312 153.554688 286.066406 156.992188 299.769531 174.261719 C 306.207031 182.378906 308.839844 192.058594 308.933594 202.328125 C 308.941406 203.304688 308.953125 204.28125 308.960938 205.253906 C 284.960938 205.253906 260.960938 205.253906 236.960938 205.253906 C 236.203125 200.296875 237.214844 194.214844 242.597656 190.890625 C 258.824219 190.890625 275.046875 190.890625 291.269531 190.890625 C 290.769531 189.433594 290.175781 187.996094 289.46875 186.632812 Z M 292.570312 213.042969 C 293.042969 212.261719 293.515625 211.480469 293.984375 210.703125 C 298.429688 213.039062 302.875 215.375 307.320312 217.714844 C 306.878906 218.566406 306.441406 219.417969 306 220.273438 C 303.382812 225.347656 300.085938 230.195312 295.84375 234.050781 C 292.003906 237.546875 287.636719 240.265625 282.785156 242.113281 C 266.082031 248.472656 242.757812 244.378906 230.289062 232.421875 C 225.261719 227.601562 221.683594 222.132812 219.578125 216.042969 C 222.441406 212.863281 225.308594 209.6875 228.175781 206.507812 C 229.828125 204.710938 231.488281 202.921875 233.144531 201.125 C 233.144531 201.199219 233.140625 201.277344 233.140625 201.355469 C 233.140625 206.5 234.46875 211.265625 237.054688 215.714844 C 239.648438 220.179688 243.207031 223.65625 247.738281 226.136719 C 252.515625 228.746094 257.730469 229.867188 263.152344 229.867188 C 274.980469 229.867188 287.019531 222.25 292.570312 213.042969 Z M 190.984375 190.835938 C 189.996094 187.980469 188.660156 185.195312 186.796875 182.886719 C 184.367188 179.871094 181.226562 177.675781 177.730469 176.058594 C 173.941406 174.304688 169.945312 173.425781 165.769531 173.425781 C 159.023438 173.425781 153.136719 175.484375 148.082031 179.972656 C 144.851562 182.839844 142.652344 186.765625 141.109375 190.835938 Z M 190.984375 190.835938 " clip-rule="nonzero"/></clipPath><clipPath id="f5f88607b5"><path d="M 128.207031 161.328125 L 303.777344 161.328125 L 303.777344 243.46875 L 128.207031 243.46875 Z M 128.207031 161.328125 " clip-rule="nonzero"/></clipPath><clipPath id="6101c3e147"><path d="M 285.285156 188.296875 C 285.042969 187.980469 284.804688 187.660156 284.5625 187.34375 C 276.265625 176.398438 260.34375 172.585938 247.820312 178.214844 C 241.753906 180.945312 238.300781 185.96875 234.007812 190.820312 L 211.832031 215.894531 C 205.949219 222.539062 199.136719 231.214844 192.121094 236.449219 C 186.039062 240.992188 179.410156 243.167969 169.007812 243.167969 C 157.289062 243.167969 146.808594 239.570312 139.042969 230.589844 C 132.089844 222.546875 128.316406 213.199219 128.316406 202.523438 C 128.316406 192.734375 131.382812 183.929688 137.433594 176.242188 C 145.292969 166.265625 155.816406 161.46875 168.484375 161.46875 C 181.484375 161.46875 192.3125 166.363281 200.414062 176.578125 C 203.796875 180.847656 206.066406 185.570312 207.425781 190.59375 L 193.949219 205.808594 L 143.535156 205.808594 C 144.136719 211.867188 146.324219 217.320312 150.714844 221.824219 C 155.503906 226.742188 161.308594 229.074219 168.164062 229.074219 C 171.566406 229.074219 174.886719 228.484375 178.085938 227.320312 C 186.726562 224.179688 192.382812 215.773438 198.429688 208.96875 C 203.957031 202.75 209.484375 196.527344 215.011719 190.304688 C 221.757812 182.707031 230.078125 171.511719 238.636719 166.863281 C 256.617188 157.101562 282.078125 160.339844 295 176.628906 C 301.070312 184.285156 303.554688 193.414062 303.644531 203.097656 C 303.652344 204.019531 303.660156 204.941406 303.667969 205.859375 C 281.035156 205.859375 258.398438 205.859375 235.761719 205.859375 C 235.050781 201.183594 236 195.449219 241.082031 192.3125 C 256.382812 192.3125 271.683594 192.3125 286.984375 192.3125 C 286.511719 190.9375 285.953125 189.582031 285.285156 188.296875 Z M 288.210938 213.203125 C 288.65625 212.46875 289.101562 211.734375 289.542969 210.996094 C 293.734375 213.203125 297.929688 215.40625 302.121094 217.609375 C 301.707031 218.414062 301.292969 219.21875 300.878906 220.023438 C 298.410156 224.808594 295.296875 229.378906 291.296875 233.019531 C 287.675781 236.3125 283.558594 238.878906 278.980469 240.621094 C 263.230469 246.621094 241.230469 242.761719 229.46875 231.480469 C 224.730469 226.933594 221.355469 221.777344 219.367188 216.035156 C 222.070312 213.035156 224.773438 210.039062 227.476562 207.042969 C 229.039062 205.347656 230.601562 203.65625 232.164062 201.964844 C 232.164062 202.035156 232.160156 202.109375 232.160156 202.179688 C 232.160156 207.03125 233.414062 211.527344 235.851562 215.722656 C 238.296875 219.9375 241.652344 223.214844 245.929688 225.554688 C 250.433594 228.015625 255.351562 229.074219 260.46875 229.074219 C 271.621094 229.074219 282.972656 221.886719 288.210938 213.203125 Z M 192.402344 192.261719 C 191.472656 189.566406 190.210938 186.941406 188.453125 184.761719 C 186.160156 181.917969 183.199219 179.847656 179.902344 178.324219 C 176.328125 176.667969 172.558594 175.839844 168.621094 175.839844 C 162.257812 175.839844 156.703125 177.78125 151.941406 182.015625 C 148.894531 184.71875 146.816406 188.421875 145.359375 192.261719 Z M 192.402344 192.261719 " clip-rule="nonzero"/></clipPath></defs><g fill="#1a4789" fill-opacity="1"><g transform="translate(476.17919, 217.132615)"><g><path d="M 39.402344 -68.589844 C 20.242188 -68.589844 5.773438 -54.820312 5.773438 -33.566406 C 5.773438 -12.054688 21.257812 1.460938 40.101562 1.460938 C 50.316406 1.460938 60.277344 -2.855469 67.765625 -10.722656 C 69.097656 -12.054688 69.097656 -13.324219 67.828125 -14.277344 L 61.609375 -21.128906 C 60.40625 -22.082031 59.453125 -22.019531 58.25 -20.875 C 53.234375 -15.734375 46.765625 -13.007812 40.546875 -13.007812 C 30.773438 -13.007812 22.207031 -19.542969 21.765625 -31.28125 L 69.542969 -31.28125 C 71.382812 -31.28125 72.335938 -31.917969 72.335938 -34.199219 C 72.335938 -54.820312 58.566406 -68.589844 39.402344 -68.589844 Z M 39.71875 -55.074219 C 46.636719 -55.074219 53.363281 -51.332031 55.328125 -42.765625 L 22.90625 -42.765625 C 25.316406 -51.394531 32.996094 -55.074219 39.71875 -55.074219 Z M 39.71875 -55.074219 "/></g></g></g><g fill="#1a4789" fill-opacity="1"><g transform="translate(554.029122, 217.132615)"><g><path d="M 44.988281 -68.589844 C 37.5 -68.589844 29.441406 -65.671875 22.714844 -59.074219 L 21.191406 -64.910156 C 20.8125 -66.496094 19.796875 -67.195312 18.335938 -67.195312 L 11.292969 -67.195312 C 9.644531 -67.195312 8.691406 -66.242188 8.691406 -64.59375 L 8.691406 -2.601562 C 8.691406 -0.886719 9.644531 0 11.292969 0 L 22.460938 0 C 24.175781 0 25.0625 -0.886719 25.0625 -2.601562 L 25.0625 -38.769531 C 25.0625 -48.351562 31.726562 -54.1875 39.972656 -54.1875 C 48.414062 -54.1875 53.488281 -47.96875 53.488281 -39.148438 L 53.488281 -2.601562 C 53.488281 -0.886719 54.378906 0 56.089844 0 L 67.257812 0 C 68.910156 0 69.859375 -0.886719 69.859375 -2.601562 L 69.859375 -41.496094 C 69.859375 -54.695312 63.324219 -68.589844 44.988281 -68.589844 Z M 44.988281 -68.589844 "/></g></g></g><g fill="#1a4789" fill-opacity="1"><g transform="translate(631.879054, 217.132615)"><g><path d="M 78.617188 -94.859375 C 78.617188 -96.574219 77.664062 -97.460938 76.015625 -97.460938 L 64.847656 -97.460938 C 63.132812 -97.460938 62.246094 -96.574219 62.246094 -94.859375 L 62.308594 -60.023438 C 56.28125 -65.546875 48.160156 -68.589844 39.71875 -68.589844 C 20.367188 -68.589844 5.710938 -52.917969 5.710938 -33.566406 C 5.710938 -14.277344 20.367188 1.460938 39.71875 1.460938 C 49.429688 1.460938 58.375 -2.472656 64.339844 -9.390625 L 66.242188 -2.285156 C 66.625 -0.699219 67.640625 0 69.097656 0 L 76.140625 0 C 77.792969 0 78.742188 -0.886719 78.742188 -2.601562 Z M 42.449219 -13.199219 C 31.21875 -13.199219 22.082031 -22.335938 22.082031 -33.566406 C 22.082031 -44.859375 31.21875 -53.996094 42.449219 -53.996094 C 53.742188 -53.996094 62.878906 -44.859375 62.878906 -33.566406 C 62.878906 -22.335938 53.742188 -13.199219 42.449219 -13.199219 Z M 42.449219 -13.199219 "/></g></g></g><g fill="#1a4789" fill-opacity="1"><g transform="translate(719.309502, 217.132615)"><g><path d="M 41.5625 1.460938 C 62.183594 1.460938 77.726562 -13.007812 77.726562 -33.566406 C 77.726562 -54.1875 62.183594 -68.589844 41.5625 -68.589844 C 21.128906 -68.589844 5.582031 -54.1875 5.582031 -33.566406 C 5.582031 -13.007812 21.128906 1.460938 41.5625 1.460938 Z M 41.5625 -13.199219 C 30.203125 -13.199219 21.890625 -21.699219 21.890625 -33.566406 C 21.890625 -45.496094 30.203125 -53.996094 41.5625 -53.996094 C 53.171875 -53.996094 61.421875 -45.496094 61.421875 -33.566406 C 61.421875 -21.699219 53.171875 -13.199219 41.5625 -13.199219 Z M 41.5625 -13.199219 "/></g></g></g><g fill="#1a4789" fill-opacity="1"><g transform="translate(802.67932, 217.132615)"><g><path d="M 22.460938 0 C 24.175781 0 25.0625 -0.886719 25.0625 -2.601562 L 25.0625 -36.230469 C 25.0625 -47.714844 29.820312 -53.679688 38.261719 -53.679688 C 39.59375 -53.679688 41.371094 -53.488281 43.335938 -53.046875 C 44.988281 -52.664062 46.128906 -53.234375 46.511719 -54.820312 L 49.046875 -64.53125 C 49.429688 -66.054688 48.859375 -67.257812 47.335938 -67.703125 C 45.242188 -68.273438 43.148438 -68.589844 41.308594 -68.589844 C 34.515625 -68.589844 27.601562 -65.546875 22.90625 -57.804688 L 21.128906 -64.910156 C 20.75 -66.496094 19.734375 -67.195312 18.273438 -67.195312 L 11.230469 -67.195312 C 9.582031 -67.195312 8.628906 -66.242188 8.628906 -64.59375 L 8.691406 -2.601562 C 8.691406 -0.886719 9.644531 0 11.292969 0 Z M 22.460938 0 "/></g></g></g><g fill="#1a4789" fill-opacity="1"><g transform="translate(854.642733, 217.132615)"><g><path d="M 28.554688 1.460938 C 41.371094 1.460938 54.0625 -3.742188 54.0625 -19.351562 C 54.0625 -30.328125 45.367188 -35.597656 37.183594 -39.53125 C 29.632812 -43.148438 22.523438 -45.496094 22.523438 -49.9375 C 22.523438 -53.488281 25.632812 -55.140625 30.203125 -55.140625 C 34.074219 -55.140625 39.085938 -53.996094 43.972656 -52.21875 C 45.621094 -51.648438 46.765625 -52.15625 47.269531 -53.808594 L 49.9375 -62.308594 C 50.570312 -63.960938 49.871094 -65.101562 48.351562 -65.546875 C 42.003906 -67.574219 35.46875 -68.589844 30.203125 -68.589844 C 17.765625 -68.589844 6.28125 -62.246094 6.28125 -48.160156 C 6.28125 -38.199219 14.148438 -33.058594 21.890625 -28.933594 C 29.566406 -24.808594 37.4375 -22.082031 37.4375 -18.019531 C 37.4375 -13.261719 33.757812 -11.675781 28.742188 -11.675781 C 24.238281 -11.675781 18.527344 -12.878906 12.878906 -15.039062 C 11.105469 -15.671875 10.152344 -15.226562 9.582031 -13.640625 L 6.535156 -5.011719 C 5.964844 -3.554688 6.28125 -2.347656 8.25 -1.777344 C 15.546875 0.378906 22.207031 1.460938 28.554688 1.460938 Z M 28.554688 1.460938 "/></g></g></g><g fill="#1a4789" fill-opacity="1"><g transform="translate(914.219828, 217.132615)"><g><path d="M 39.402344 -68.589844 C 20.242188 -68.589844 5.773438 -54.820312 5.773438 -33.566406 C 5.773438 -12.054688 21.257812 1.460938 40.101562 1.460938 C 50.316406 1.460938 60.277344 -2.855469 67.765625 -10.722656 C 69.097656 -12.054688 69.097656 -13.324219 67.828125 -14.277344 L 61.609375 -21.128906 C 60.40625 -22.082031 59.453125 -22.019531 58.25 -20.875 C 53.234375 -15.734375 46.765625 -13.007812 40.546875 -13.007812 C 30.773438 -13.007812 22.207031 -19.542969 21.765625 -31.28125 L 69.542969 -31.28125 C 71.382812 -31.28125 72.335938 -31.917969 72.335938 -34.199219 C 72.335938 -54.820312 58.566406 -68.589844 39.402344 -68.589844 Z M 39.71875 -55.074219 C 46.636719 -55.074219 53.363281 -51.332031 55.328125 -42.765625 L 22.90625 -42.765625 C 25.316406 -51.394531 32.996094 -55.074219 39.71875 -55.074219 Z M 39.71875 -55.074219 "/></g></g></g><g fill="#1a4789" fill-opacity="1"><g transform="translate(992.06976, 217.132615)"><g/></g></g><g fill="#1a4789" fill-opacity="1"><g transform="translate(1031.026433, 217.132615)"><g><path d="M 34.199219 -68.589844 C 26.777344 -68.589844 18.78125 -67.195312 11.230469 -64.71875 C 9.644531 -64.148438 9.011719 -63.070312 9.582031 -61.421875 L 12.246094 -53.046875 C 12.753906 -51.394531 13.894531 -50.953125 15.546875 -51.523438 C 21.382812 -53.679688 27.472656 -55.074219 32.742188 -55.074219 C 40.609375 -55.074219 46.574219 -51.964844 46.574219 -43.273438 L 46.574219 -39.023438 C 41.75 -40.226562 36.992188 -40.863281 32.488281 -40.863281 C 17.386719 -40.863281 5.648438 -33.628906 5.648438 -19.164062 C 5.648438 -5.203125 16.308594 1.460938 28.234375 1.460938 C 35.46875 1.460938 43.527344 -0.953125 48.921875 -8.25 L 50.507812 -2.285156 C 50.824219 -0.699219 51.839844 0 53.363281 0 L 60.34375 0 C 62.054688 0 62.945312 -0.886719 62.945312 -2.601562 L 62.945312 -43.972656 C 62.945312 -61.929688 50 -68.589844 34.199219 -68.589844 Z M 32.167969 -10.46875 C 26.714844 -10.46875 22.019531 -13.261719 22.019531 -19.417969 C 22.019531 -26.523438 28.171875 -29.316406 36.292969 -29.316406 C 39.59375 -29.316406 43.019531 -28.871094 46.574219 -28.046875 L 46.574219 -25.191406 C 46.574219 -14.148438 38.199219 -10.46875 32.167969 -10.46875 Z M 32.167969 -10.46875 "/></g></g></g><g fill="#1a4789" fill-opacity="1"><g transform="translate(1102.087464, 217.132615)"><g><path d="M 44.988281 -68.589844 C 37.5 -68.589844 29.441406 -65.671875 22.714844 -59.074219 L 21.191406 -64.910156 C 20.8125 -66.496094 19.796875 -67.195312 18.335938 -67.195312 L 11.292969 -67.195312 C 9.644531 -67.195312 8.691406 -66.242188 8.691406 -64.59375 L 8.691406 -2.601562 C 8.691406 -0.886719 9.644531 0 11.292969 0 L 22.460938 0 C 24.175781 0 25.0625 -0.886719 25.0625 -2.601562 L 25.0625 -38.769531 C 25.0625 -48.351562 31.726562 -54.1875 39.972656 -54.1875 C 48.414062 -54.1875 53.488281 -47.96875 53.488281 -39.148438 L 53.488281 -2.601562 C 53.488281 -0.886719 54.378906 0 56.089844 0 L 67.257812 0 C 68.910156 0 69.859375 -0.886719 69.859375 -2.601562 L 69.859375 -41.496094 C 69.859375 -54.695312 63.324219 -68.589844 44.988281 -68.589844 Z M 44.988281 -68.589844 "/></g></g></g><g fill="#1a4789" fill-opacity="1"><g transform="translate(1179.937396, 217.132615)"><g/></g></g><g fill="#1a4789" fill-opacity="1"><g transform="translate(1218.894068, 217.132615)"><g><path d="M 16.816406 -73.667969 C 22.523438 -73.667969 26.777344 -77.980469 26.777344 -83.691406 C 26.777344 -89.339844 22.523438 -93.78125 16.816406 -93.78125 C 11.105469 -93.78125 6.789062 -89.339844 6.789062 -83.691406 C 6.789062 -77.980469 11.105469 -73.667969 16.816406 -73.667969 Z M 22.460938 0 C 24.175781 0 25.0625 -0.886719 25.0625 -2.601562 L 25.0625 -64.59375 C 25.0625 -66.242188 24.175781 -67.195312 22.460938 -67.195312 L 11.292969 -67.195312 C 9.644531 -67.195312 8.691406 -66.242188 8.691406 -64.59375 L 8.691406 -2.601562 C 8.691406 -0.886719 9.644531 0 11.292969 0 Z M 22.460938 0 "/></g></g></g><g fill="#1a4789" fill-opacity="1"><g transform="translate(1252.774953, 217.132615)"><g><path d="M 78.617188 -94.859375 C 78.617188 -96.574219 77.664062 -97.460938 76.015625 -97.460938 L 64.847656 -97.460938 C 63.132812 -97.460938 62.246094 -96.574219 62.246094 -94.859375 L 62.308594 -60.023438 C 56.28125 -65.546875 48.160156 -68.589844 39.71875 -68.589844 C 20.367188 -68.589844 5.710938 -52.917969 5.710938 -33.566406 C 5.710938 -14.277344 20.367188 1.460938 39.71875 1.460938 C 49.429688 1.460938 58.375 -2.472656 64.339844 -9.390625 L 66.242188 -2.285156 C 66.625 -0.699219 67.640625 0 69.097656 0 L 76.140625 0 C 77.792969 0 78.742188 -0.886719 78.742188 -2.601562 Z M 42.449219 -13.199219 C 31.21875 -13.199219 22.082031 -22.335938 22.082031 -33.566406 C 22.082031 -44.859375 31.21875 -53.996094 42.449219 -53.996094 C 53.742188 -53.996094 62.878906 -44.859375 62.878906 -33.566406 C 62.878906 -22.335938 53.742188 -13.199219 42.449219 -13.199219 Z M 42.449219 -13.199219 "/></g></g></g><g fill="#1a4789" fill-opacity="1"><g transform="translate(1340.205402, 217.132615)"><g><path d="M 39.402344 -68.589844 C 20.242188 -68.589844 5.773438 -54.820312 5.773438 -33.566406 C 5.773438 -12.054688 21.257812 1.460938 40.101562 1.460938 C 50.316406 1.460938 60.277344 -2.855469 67.765625 -10.722656 C 69.097656 -12.054688 69.097656 -13.324219 67.828125 -14.277344 L 61.609375 -21.128906 C 60.40625 -22.082031 59.453125 -22.019531 58.25 -20.875 C 53.234375 -15.734375 46.765625 -13.007812 40.546875 -13.007812 C 30.773438 -13.007812 22.207031 -19.542969 21.765625 -31.28125 L 69.542969 -31.28125 C 71.382812 -31.28125 72.335938 -31.917969 72.335938 -34.199219 C 72.335938 -54.820312 58.566406 -68.589844 39.402344 -68.589844 Z M 39.71875 -55.074219 C 46.636719 -55.074219 53.363281 -51.332031 55.328125 -42.765625 L 22.90625 -42.765625 C 25.316406 -51.394531 32.996094 -55.074219 39.71875 -55.074219 Z M 39.71875 -55.074219 "/></g></g></g><g fill="#1a4789" fill-opacity="1"><g transform="translate(1418.055333, 217.132615)"><g><path d="M 34.199219 -68.589844 C 26.777344 -68.589844 18.78125 -67.195312 11.230469 -64.71875 C 9.644531 -64.148438 9.011719 -63.070312 9.582031 -61.421875 L 12.246094 -53.046875 C 12.753906 -51.394531 13.894531 -50.953125 15.546875 -51.523438 C 21.382812 -53.679688 27.472656 -55.074219 32.742188 -55.074219 C 40.609375 -55.074219 46.574219 -51.964844 46.574219 -43.273438 L 46.574219 -39.023438 C 41.75 -40.226562 36.992188 -40.863281 32.488281 -40.863281 C 17.386719 -40.863281 5.648438 -33.628906 5.648438 -19.164062 C 5.648438 -5.203125 16.308594 1.460938 28.234375 1.460938 C 35.46875 1.460938 43.527344 -0.953125 48.921875 -8.25 L 50.507812 -2.285156 C 50.824219 -0.699219 51.839844 0 53.363281 0 L 60.34375 0 C 62.054688 0 62.945312 -0.886719 62.945312 -2.601562 L 62.945312 -43.972656 C 62.945312 -61.929688 50 -68.589844 34.199219 -68.589844 Z M 32.167969 -10.46875 C 26.714844 -10.46875 22.019531 -13.261719 22.019531 -19.417969 C 22.019531 -26.523438 28.171875 -29.316406 36.292969 -29.316406 C 39.59375 -29.316406 43.019531 -28.871094 46.574219 -28.046875 L 46.574219 -25.191406 C 46.574219 -14.148438 38.199219 -10.46875 32.167969 -10.46875 Z M 32.167969 -10.46875 "/></g></g></g><g fill="#1a4789" fill-opacity="1"><g transform="translate(476.17919, 318.571605)"><g><path d="M 16.734375 -20.359375 C 22.332031 -19.023438 26.148438 -17.558594 28.183594 -15.90625 C 29.585938 -14.761719 30.285156 -13.296875 30.285156 -11.515625 C 30.285156 -9.734375 29.902344 -8.269531 29.140625 -7.253906 C 27.230469 -4.582031 23.796875 -3.246094 18.960938 -3.246094 C 12.214844 -3.246094 8.398438 -5.535156 7.570312 -10.117188 L 2.355469 -10.117188 C 3.882812 -2.800781 9.417969 0.828125 18.960938 0.828125 C 23.222656 0.828125 26.785156 -0.0625 29.648438 -1.972656 C 33.082031 -4.199219 34.867188 -7.507812 34.867188 -11.832031 C 34.867188 -15.398438 33.464844 -18.132812 30.667969 -20.042969 C 28.695312 -21.441406 25.511719 -22.714844 21.121094 -23.859375 C 16.667969 -25.003906 13.804688 -25.957031 12.46875 -26.65625 C 9.542969 -28.121094 8.082031 -30.15625 8.144531 -32.828125 C 8.144531 -34.230469 8.398438 -35.4375 9.035156 -36.328125 C 10.6875 -38.808594 13.617188 -40.082031 17.8125 -40.082031 C 23.730469 -40.082031 27.101562 -38.171875 27.992188 -34.484375 L 32.828125 -34.484375 C 31.238281 -40.71875 26.210938 -43.898438 17.8125 -43.898438 C 13.996094 -43.898438 10.625 -42.882812 7.824219 -40.847656 C 4.960938 -38.808594 3.5 -35.820312 3.5 -31.746094 C 3.5 -26.210938 7.953125 -22.394531 16.734375 -20.359375 Z M 16.734375 -20.359375 "/></g></g></g><g fill="#1a4789" fill-opacity="1"><g transform="translate(512.697416, 318.571605)"><g><path d="M 1.273438 -23.859375 L 8.269531 -23.859375 L 8.269531 0 L 12.722656 0 L 12.722656 -23.859375 L 19.660156 -23.859375 L 19.660156 -27.992188 L 12.722656 -27.992188 L 12.722656 -38.875 L 8.269531 -38.875 L 8.269531 -27.992188 L 1.273438 -27.992188 Z M 1.273438 -23.859375 "/></g></g></g><g fill="#1a4789" fill-opacity="1"><g transform="translate(533.628619, 318.571605)"><g><path d="M 19.152344 -22.203125 L 19.152344 -27.992188 C 18.261719 -28.375 17.304688 -28.566406 16.351562 -28.566406 C 13.171875 -28.566406 10.878906 -26.785156 9.417969 -23.351562 L 9.226562 -22.203125 L 9.226562 -27.992188 L 4.773438 -27.992188 L 4.773438 0 L 9.226562 0 L 9.226562 -13.996094 C 9.226562 -16.289062 9.734375 -18.324219 10.816406 -20.167969 C 11.324219 -21.121094 12.023438 -21.949219 12.851562 -22.585938 C 13.679688 -23.222656 14.695312 -23.605469 15.84375 -23.605469 C 16.988281 -23.605469 18.070312 -23.09375 19.152344 -22.203125 Z M 19.152344 -22.203125 "/></g></g></g><g fill="#1a4789" fill-opacity="1"><g transform="translate(553.414592, 318.571605)"><g><path d="M 32.128906 -14.632812 C 32.128906 -18.449219 30.601562 -21.757812 27.675781 -24.621094 C 24.8125 -27.359375 21.378906 -28.757812 17.496094 -28.757812 C 13.425781 -28.757812 9.988281 -27.292969 7.125 -24.429688 C 4.261719 -21.566406 2.863281 -18.132812 2.863281 -14.125 C 2.863281 -10.050781 4.261719 -6.617188 7.125 -3.816406 C 8.460938 -2.480469 9.988281 -1.464844 11.769531 -0.699219 C 13.550781 0.0625 15.652344 0.445312 18.132812 0.445312 C 20.613281 0.445312 23.03125 -0.316406 25.449219 -1.84375 C 27.867188 -3.371094 29.648438 -5.535156 30.855469 -8.207031 L 25.765625 -8.207031 C 24.75 -6.871094 23.539062 -5.851562 22.078125 -5.089844 C 20.613281 -4.328125 19.085938 -4.007812 17.496094 -4.007812 C 15.078125 -4.007812 12.914062 -4.773438 11.007812 -6.363281 C 9.097656 -7.890625 7.890625 -9.863281 7.507812 -12.277344 L 32.128906 -12.277344 Z M 27.421875 -16.097656 L 7.570312 -16.097656 C 7.824219 -17.242188 8.269531 -18.324219 8.90625 -19.339844 C 10.941406 -22.648438 13.804688 -24.304688 17.496094 -24.304688 C 19.851562 -24.304688 21.949219 -23.539062 23.796875 -22.011719 C 25.703125 -20.421875 26.847656 -18.449219 27.421875 -16.097656 Z M 27.421875 -16.097656 "/></g></g></g><g fill="#1a4789" fill-opacity="1"><g transform="translate(588.087808, 318.571605)"><g><path d="M 27.039062 -13.996094 C 27.039062 -11.261719 26.085938 -8.84375 24.175781 -6.871094 C 22.269531 -4.835938 19.914062 -3.816406 17.179688 -3.816406 C 14.378906 -3.816406 12.023438 -4.835938 10.117188 -6.871094 C 8.207031 -8.84375 7.316406 -11.261719 7.316406 -13.996094 C 7.316406 -16.667969 8.207031 -19.085938 10.117188 -21.121094 C 12.023438 -23.160156 14.378906 -24.175781 17.179688 -24.175781 C 19.914062 -24.175781 22.269531 -23.160156 24.175781 -21.121094 C 26.085938 -19.085938 27.039062 -16.667969 27.039062 -13.996094 Z M 31.492188 0 L 31.492188 -27.992188 L 27.039062 -27.992188 L 27.039062 -23.160156 C 26.785156 -23.539062 26.46875 -23.859375 26.210938 -24.175781 C 23.539062 -27.101562 20.296875 -28.628906 16.476562 -28.628906 C 12.597656 -28.628906 9.351562 -27.101562 6.679688 -24.175781 C 4.136719 -21.25 2.863281 -17.878906 2.863281 -13.996094 C 2.863281 -10.050781 4.136719 -6.679688 6.679688 -3.816406 C 9.351562 -0.828125 12.597656 0.636719 16.476562 0.636719 C 20.296875 0.636719 23.539062 -0.828125 26.210938 -3.816406 C 26.46875 -4.070312 26.785156 -4.390625 27.039062 -4.773438 L 27.039062 0 Z M 31.492188 0 "/></g></g></g><g fill="#1a4789" fill-opacity="1"><g transform="translate(624.351568, 318.571605)"><g><path d="M 40.273438 -0.128906 L 44.726562 -0.128906 L 44.726562 -17.625 C 44.726562 -20.742188 43.898438 -23.351562 42.371094 -25.386719 C 41.609375 -26.402344 40.589844 -27.167969 39.445312 -27.804688 C 38.238281 -28.4375 36.648438 -28.757812 34.738281 -28.757812 C 32.765625 -28.757812 31.046875 -28.183594 29.585938 -27.167969 C 28.25 -26.148438 27.167969 -24.941406 26.277344 -23.414062 C 25.957031 -24.113281 25.578125 -24.75 25.132812 -25.386719 C 24.367188 -26.402344 23.351562 -27.167969 22.203125 -27.804688 C 20.996094 -28.4375 19.40625 -28.757812 17.496094 -28.757812 C 15.523438 -28.757812 13.804688 -28.183594 12.34375 -27.167969 C 11.070312 -26.210938 10.050781 -25.066406 9.226562 -23.605469 L 9.226562 -28.121094 L 4.773438 -28.121094 L 4.773438 -0.128906 L 9.226562 -0.128906 L 9.226562 -14.441406 C 9.417969 -16.667969 9.988281 -18.640625 10.941406 -20.230469 C 11.578125 -21.378906 12.535156 -22.394531 13.679688 -23.160156 C 14.824219 -23.921875 16.03125 -24.304688 17.367188 -24.304688 C 18.640625 -24.304688 19.660156 -24.050781 20.296875 -23.667969 C 22.078125 -22.523438 23.03125 -20.488281 23.03125 -17.625 L 23.03125 -0.128906 L 27.484375 -0.128906 L 27.484375 -17.625 C 27.484375 -17.941406 27.421875 -18.324219 27.421875 -18.640625 C 27.613281 -19.214844 27.867188 -19.722656 28.183594 -20.230469 C 28.820312 -21.378906 29.777344 -22.394531 30.921875 -23.160156 C 32.066406 -23.921875 33.273438 -24.304688 34.609375 -24.304688 C 35.882812 -24.304688 36.902344 -24.050781 37.539062 -23.667969 C 39.320312 -22.523438 40.273438 -20.488281 40.273438 -17.625 Z M 40.273438 -0.128906 "/></g></g></g><g fill="#1a4789" fill-opacity="1"><g transform="translate(672.894097, 318.571605)"><g><path d="M 9.226562 0 L 9.226562 -47.71875 L 4.773438 -47.71875 L 4.773438 0 Z M 9.226562 0 "/></g></g></g><g fill="#1a4789" fill-opacity="1"><g transform="translate(686.890643, 318.571605)"><g><path d="M 9.289062 -37.664062 C 8.714844 -38.171875 8.015625 -38.492188 7.253906 -38.492188 C 6.488281 -38.492188 5.789062 -38.171875 5.28125 -37.664062 C 4.707031 -37.09375 4.453125 -36.390625 4.453125 -35.628906 C 4.453125 -34.867188 4.707031 -34.164062 5.28125 -33.65625 C 5.789062 -33.082031 6.488281 -32.828125 7.253906 -32.828125 C 8.015625 -32.828125 8.714844 -33.082031 9.289062 -33.65625 C 9.796875 -34.164062 10.117188 -34.867188 10.117188 -35.628906 C 10.117188 -36.390625 9.796875 -37.09375 9.289062 -37.664062 Z M 9.542969 0 L 9.542969 -27.992188 L 5.089844 -27.992188 L 5.089844 0 Z M 9.542969 0 "/></g></g></g><g fill="#1a4789" fill-opacity="1"><g transform="translate(701.459737, 318.571605)"><g><path d="M 24.113281 0 L 28.566406 0 L 28.566406 -17.496094 C 28.566406 -20.742188 27.675781 -23.351562 26.023438 -25.320312 C 25.132812 -26.339844 24.113281 -27.101562 22.902344 -27.675781 C 21.632812 -28.25 20.042969 -28.566406 18.070312 -28.566406 C 16.03125 -28.566406 14.316406 -27.992188 12.789062 -26.976562 C 11.324219 -26.023438 10.117188 -24.75 9.226562 -23.160156 L 9.226562 -27.992188 L 4.773438 -27.992188 L 4.773438 0 L 9.226562 0 L 9.226562 -11.707031 C 9.226562 -15.269531 9.863281 -18.070312 11.199219 -20.167969 C 11.960938 -21.3125 12.914062 -22.269531 14.125 -23.03125 C 15.269531 -23.730469 16.859375 -24.113281 18.769531 -24.113281 C 20.675781 -24.113281 22.011719 -23.414062 22.839844 -22.140625 C 23.667969 -20.867188 24.113281 -19.277344 24.113281 -17.496094 Z M 24.113281 0 "/></g></g></g><g fill="#1a4789" fill-opacity="1"><g transform="translate(733.842628, 318.571605)"><g><path d="M 9.289062 -37.664062 C 8.714844 -38.171875 8.015625 -38.492188 7.253906 -38.492188 C 6.488281 -38.492188 5.789062 -38.171875 5.28125 -37.664062 C 4.707031 -37.09375 4.453125 -36.390625 4.453125 -35.628906 C 4.453125 -34.867188 4.707031 -34.164062 5.28125 -33.65625 C 5.789062 -33.082031 6.488281 -32.828125 7.253906 -32.828125 C 8.015625 -32.828125 8.714844 -33.082031 9.289062 -33.65625 C 9.796875 -34.164062 10.117188 -34.867188 10.117188 -35.628906 C 10.117188 -36.390625 9.796875 -37.09375 9.289062 -37.664062 Z M 9.542969 0 L 9.542969 -27.992188 L 5.089844 -27.992188 L 5.089844 0 Z M 9.542969 0 "/></g></g></g><g fill="#1a4789" fill-opacity="1"><g transform="translate(748.411722, 318.571605)"><g><path d="M 24.113281 0 L 28.566406 0 L 28.566406 -17.496094 C 28.566406 -20.742188 27.675781 -23.351562 26.023438 -25.320312 C 25.132812 -26.339844 24.113281 -27.101562 22.902344 -27.675781 C 21.632812 -28.25 20.042969 -28.566406 18.070312 -28.566406 C 16.03125 -28.566406 14.316406 -27.992188 12.789062 -26.976562 C 11.324219 -26.023438 10.117188 -24.75 9.226562 -23.160156 L 9.226562 -27.992188 L 4.773438 -27.992188 L 4.773438 0 L 9.226562 0 L 9.226562 -11.707031 C 9.226562 -15.269531 9.863281 -18.070312 11.199219 -20.167969 C 11.960938 -21.3125 12.914062 -22.269531 14.125 -23.03125 C 15.269531 -23.730469 16.859375 -24.113281 18.769531 -24.113281 C 20.675781 -24.113281 22.011719 -23.414062 22.839844 -22.140625 C 23.667969 -20.867188 24.113281 -19.277344 24.113281 -17.496094 Z M 24.113281 0 "/></g></g></g><g fill="#1a4789" fill-opacity="1"><g transform="translate(780.794613, 318.571605)"><g><path d="M 27.421875 -13.996094 C 27.421875 -11.261719 26.46875 -8.84375 24.558594 -6.871094 C 22.648438 -4.835938 20.296875 -3.816406 17.558594 -3.816406 C 14.824219 -3.816406 12.46875 -4.835938 10.5625 -6.871094 C 8.652344 -8.84375 7.699219 -11.199219 7.699219 -13.996094 C 7.699219 -16.734375 8.652344 -19.085938 10.5625 -21.121094 C 12.46875 -23.160156 14.824219 -24.175781 17.558594 -24.175781 C 20.296875 -24.175781 22.648438 -23.160156 24.558594 -21.121094 C 26.46875 -19.085938 27.421875 -16.667969 27.421875 -13.996094 Z M 7.570312 3.816406 L 2.992188 3.816406 C 3.5 6.808594 4.835938 9.417969 7.125 11.644531 C 9.925781 14.507812 13.359375 15.90625 17.367188 15.90625 C 21.3125 15.90625 24.75 14.507812 27.613281 11.644531 C 30.410156 8.84375 31.875 5.40625 31.875 1.398438 L 31.875 -27.992188 L 27.421875 -27.992188 L 27.421875 -23.285156 C 27.167969 -23.539062 26.914062 -23.859375 26.65625 -24.175781 C 23.859375 -27.101562 20.613281 -28.628906 16.921875 -28.628906 C 12.980469 -28.628906 9.734375 -27.101562 7.0625 -24.175781 C 4.515625 -21.25 3.246094 -17.878906 3.246094 -13.996094 C 3.246094 -10.050781 4.515625 -6.679688 7.0625 -3.816406 C 9.734375 -0.828125 12.980469 0.636719 16.921875 0.636719 C 20.742188 0.636719 23.984375 -0.828125 26.65625 -3.816406 C 26.914062 -4.070312 27.167969 -4.390625 27.421875 -4.644531 L 27.421875 1.398438 C 27.421875 4.199219 26.402344 6.554688 24.429688 8.527344 C 22.457031 10.496094 20.105469 11.453125 17.367188 11.453125 C 14.570312 11.453125 12.214844 10.496094 10.242188 8.527344 C 8.84375 7.125 7.953125 5.597656 7.570312 3.816406 Z M 7.570312 3.816406 "/></g></g></g><g fill="#1a4789" fill-opacity="1"><g transform="translate(817.440071, 318.571605)"><g/></g></g><g fill="#1a4789" fill-opacity="1"><g transform="translate(834.617638, 318.571605)"><g><path d="M 44.472656 -13.234375 L 39.574219 -13.234375 C 38.046875 -10.433594 35.945312 -8.144531 33.273438 -6.488281 C 30.601562 -4.773438 27.613281 -3.945312 24.429688 -3.945312 C 19.660156 -3.945312 15.585938 -5.664062 12.214844 -9.226562 C 8.90625 -12.597656 7.316406 -16.734375 7.316406 -21.566406 C 7.316406 -26.402344 8.90625 -30.539062 12.214844 -33.976562 C 13.742188 -35.566406 15.585938 -36.835938 17.6875 -37.792969 C 19.722656 -38.746094 21.757812 -39.253906 23.796875 -39.253906 C 25.765625 -39.253906 27.484375 -39 29.011719 -38.554688 C 33.65625 -37.15625 37.15625 -34.355469 39.511719 -30.09375 L 44.410156 -30.09375 C 42.753906 -34.164062 40.144531 -37.472656 36.519531 -40.019531 C 32.828125 -42.5625 28.820312 -43.835938 24.429688 -43.835938 C 18.386719 -43.835938 13.296875 -41.609375 9.097656 -37.21875 C 7.125 -35.183594 5.597656 -32.765625 4.515625 -30.09375 C 3.371094 -27.421875 2.863281 -24.558594 2.863281 -21.566406 C 2.863281 -15.460938 4.898438 -10.308594 9.097656 -5.980469 C 13.296875 -1.527344 18.386719 0.636719 24.429688 0.636719 C 28.820312 0.636719 32.828125 -0.636719 36.582031 -3.179688 C 40.210938 -5.726562 42.816406 -9.035156 44.472656 -13.234375 Z M 44.472656 -13.234375 "/></g></g></g><g fill="#1a4789" fill-opacity="1"><g transform="translate(880.997076, 318.571605)"><g><path d="M 27.675781 -14.125 C 27.675781 -11.324219 26.65625 -8.972656 24.6875 -7 C 22.648438 -4.960938 20.296875 -4.007812 17.496094 -4.007812 C 14.695312 -4.007812 12.277344 -4.960938 10.308594 -7 C 8.269531 -8.972656 7.316406 -11.324219 7.316406 -14.125 C 7.316406 -16.921875 8.269531 -19.277344 10.308594 -21.3125 C 12.277344 -23.285156 14.695312 -24.304688 17.496094 -24.304688 C 20.296875 -24.304688 22.648438 -23.285156 24.6875 -21.3125 C 26.65625 -19.277344 27.675781 -16.921875 27.675781 -14.125 Z M 32.128906 -14.125 C 32.128906 -18.132812 30.667969 -21.566406 27.804688 -24.429688 C 24.941406 -27.292969 21.503906 -28.757812 17.496094 -28.757812 C 13.425781 -28.757812 9.988281 -27.292969 7.125 -24.429688 C 4.261719 -21.566406 2.863281 -18.132812 2.863281 -14.125 C 2.863281 -10.050781 4.261719 -6.617188 7.125 -3.816406 C 9.988281 -0.953125 13.488281 0.445312 17.496094 0.445312 C 21.441406 0.445312 24.941406 -0.953125 27.804688 -3.816406 C 30.667969 -6.617188 32.128906 -10.050781 32.128906 -14.125 Z M 32.128906 -14.125 "/></g></g></g><g fill="#1a4789" fill-opacity="1"><g transform="translate(915.988374, 318.571605)"><g><path d="M 9.226562 15.90625 L 9.226562 -4.773438 C 9.417969 -4.390625 9.734375 -4.070312 9.988281 -3.816406 C 12.660156 -0.828125 15.90625 0.636719 19.785156 0.636719 C 23.605469 0.636719 26.847656 -0.828125 29.519531 -3.816406 C 32.066406 -6.679688 33.402344 -10.050781 33.402344 -13.996094 C 33.402344 -17.878906 32.066406 -21.25 29.519531 -24.175781 C 26.847656 -27.101562 23.605469 -28.628906 19.785156 -28.628906 C 15.90625 -28.628906 12.660156 -27.101562 9.988281 -24.175781 C 9.734375 -23.859375 9.417969 -23.539062 9.226562 -23.160156 L 9.226562 -27.992188 L 4.773438 -27.992188 L 4.773438 15.90625 Z M 28.949219 -13.996094 C 28.949219 -11.261719 27.992188 -8.84375 26.085938 -6.871094 C 24.175781 -4.835938 21.824219 -3.816406 19.085938 -3.816406 C 16.289062 -3.816406 13.933594 -4.835938 12.023438 -6.871094 C 10.117188 -8.84375 9.226562 -11.261719 9.226562 -13.996094 C 9.226562 -16.667969 10.117188 -19.085938 12.023438 -21.121094 C 13.933594 -23.160156 16.289062 -24.175781 19.085938 -24.175781 C 21.824219 -24.175781 24.175781 -23.160156 26.085938 -21.121094 C 27.992188 -19.085938 28.949219 -16.667969 28.949219 -13.996094 Z M 28.949219 -13.996094 "/></g></g></g><g fill="#1a4789" fill-opacity="1"><g transform="translate(952.252134, 318.571605)"><g><path d="M 8.335938 15.90625 L 27.675781 -27.992188 L 22.714844 -27.992188 L 14.695312 -9.226562 L 5.726562 -27.992188 L 0.636719 -27.992188 L 12.34375 -4.582031 L 2.925781 15.90625 Z M 8.335938 15.90625 "/></g></g></g><g fill="#1a4789" fill-opacity="1"><g transform="translate(979.290913, 318.571605)"><g><path d="M 19.152344 -22.203125 L 19.152344 -27.992188 C 18.261719 -28.375 17.304688 -28.566406 16.351562 -28.566406 C 13.171875 -28.566406 10.878906 -26.785156 9.417969 -23.351562 L 9.226562 -22.203125 L 9.226562 -27.992188 L 4.773438 -27.992188 L 4.773438 0 L 9.226562 0 L 9.226562 -13.996094 C 9.226562 -16.289062 9.734375 -18.324219 10.816406 -20.167969 C 11.324219 -21.121094 12.023438 -21.949219 12.851562 -22.585938 C 13.679688 -23.222656 14.695312 -23.605469 15.84375 -23.605469 C 16.988281 -23.605469 18.070312 -23.09375 19.152344 -22.203125 Z M 19.152344 -22.203125 "/></g></g></g><g fill="#1a4789" fill-opacity="1"><g transform="translate(999.076886, 318.571605)"><g><path d="M 9.289062 -37.664062 C 8.714844 -38.171875 8.015625 -38.492188 7.253906 -38.492188 C 6.488281 -38.492188 5.789062 -38.171875 5.28125 -37.664062 C 4.707031 -37.09375 4.453125 -36.390625 4.453125 -35.628906 C 4.453125 -34.867188 4.707031 -34.164062 5.28125 -33.65625 C 5.789062 -33.082031 6.488281 -32.828125 7.253906 -32.828125 C 8.015625 -32.828125 8.714844 -33.082031 9.289062 -33.65625 C 9.796875 -34.164062 10.117188 -34.867188 10.117188 -35.628906 C 10.117188 -36.390625 9.796875 -37.09375 9.289062 -37.664062 Z M 9.542969 0 L 9.542969 -27.992188 L 5.089844 -27.992188 L 5.089844 0 Z M 9.542969 0 "/></g></g></g><g fill="#1a4789" fill-opacity="1"><g transform="translate(1013.64598, 318.571605)"><g><path d="M 27.421875 -13.996094 C 27.421875 -11.261719 26.46875 -8.84375 24.558594 -6.871094 C 22.648438 -4.835938 20.296875 -3.816406 17.558594 -3.816406 C 14.824219 -3.816406 12.46875 -4.835938 10.5625 -6.871094 C 8.652344 -8.84375 7.699219 -11.199219 7.699219 -13.996094 C 7.699219 -16.734375 8.652344 -19.085938 10.5625 -21.121094 C 12.46875 -23.160156 14.824219 -24.175781 17.558594 -24.175781 C 20.296875 -24.175781 22.648438 -23.160156 24.558594 -21.121094 C 26.46875 -19.085938 27.421875 -16.667969 27.421875 -13.996094 Z M 7.570312 3.816406 L 2.992188 3.816406 C 3.5 6.808594 4.835938 9.417969 7.125 11.644531 C 9.925781 14.507812 13.359375 15.90625 17.367188 15.90625 C 21.3125 15.90625 24.75 14.507812 27.613281 11.644531 C 30.410156 8.84375 31.875 5.40625 31.875 1.398438 L 31.875 -27.992188 L 27.421875 -27.992188 L 27.421875 -23.285156 C 27.167969 -23.539062 26.914062 -23.859375 26.65625 -24.175781 C 23.859375 -27.101562 20.613281 -28.628906 16.921875 -28.628906 C 12.980469 -28.628906 9.734375 -27.101562 7.0625 -24.175781 C 4.515625 -21.25 3.246094 -17.878906 3.246094 -13.996094 C 3.246094 -10.050781 4.515625 -6.679688 7.0625 -3.816406 C 9.734375 -0.828125 12.980469 0.636719 16.921875 0.636719 C 20.742188 0.636719 23.984375 -0.828125 26.65625 -3.816406 C 26.914062 -4.070312 27.167969 -4.390625 27.421875 -4.644531 L 27.421875 1.398438 C 27.421875 4.199219 26.402344 6.554688 24.429688 8.527344 C 22.457031 10.496094 20.105469 11.453125 17.367188 11.453125 C 14.570312 11.453125 12.214844 10.496094 10.242188 8.527344 C 8.84375 7.125 7.953125 5.597656 7.570312 3.816406 Z M 7.570312 3.816406 "/></g></g></g><g fill="#1a4789" fill-opacity="1"><g transform="translate(1050.291438, 318.571605)"><g><path d="M 9.226562 0 L 9.226562 -11.707031 C 9.226562 -15.585938 9.863281 -18.515625 11.199219 -20.550781 C 11.960938 -21.695312 12.914062 -22.523438 14.125 -23.160156 C 15.269531 -23.796875 16.859375 -24.113281 18.769531 -24.113281 C 20.675781 -24.113281 22.011719 -23.414062 22.839844 -22.140625 C 23.667969 -20.867188 24.113281 -19.277344 24.113281 -17.496094 L 24.113281 0 L 28.566406 0 L 28.566406 -17.496094 C 28.566406 -20.742188 27.675781 -23.351562 26.023438 -25.320312 C 25.132812 -26.339844 24.113281 -27.101562 22.902344 -27.675781 C 21.632812 -28.25 20.042969 -28.566406 18.070312 -28.566406 C 16.03125 -28.566406 14.316406 -27.992188 12.789062 -26.976562 C 11.324219 -26.023438 10.117188 -24.75 9.226562 -23.160156 L 9.226562 -47.71875 L 4.773438 -47.71875 L 4.773438 0 Z M 9.226562 0 "/></g></g></g><g fill="#1a4789" fill-opacity="1"><g transform="translate(1082.674329, 318.571605)"><g><path d="M 1.273438 -23.859375 L 8.269531 -23.859375 L 8.269531 0 L 12.722656 0 L 12.722656 -23.859375 L 19.660156 -23.859375 L 19.660156 -27.992188 L 12.722656 -27.992188 L 12.722656 -38.875 L 8.269531 -38.875 L 8.269531 -27.992188 L 1.273438 -27.992188 Z M 1.273438 -23.859375 "/></g></g></g><g fill="#1a4789" fill-opacity="1"><g transform="translate(1103.605532, 318.571605)"><g/></g></g><g fill="#1a4789" fill-opacity="1"><g transform="translate(1120.783099, 318.571605)"><g><path d="M 44.472656 -13.234375 L 39.574219 -13.234375 C 38.046875 -10.433594 35.945312 -8.144531 33.273438 -6.488281 C 30.601562 -4.773438 27.613281 -3.945312 24.429688 -3.945312 C 19.660156 -3.945312 15.585938 -5.664062 12.214844 -9.226562 C 8.90625 -12.597656 7.316406 -16.734375 7.316406 -21.566406 C 7.316406 -26.402344 8.90625 -30.539062 12.214844 -33.976562 C 13.742188 -35.566406 15.585938 -36.835938 17.6875 -37.792969 C 19.722656 -38.746094 21.757812 -39.253906 23.796875 -39.253906 C 25.765625 -39.253906 27.484375 -39 29.011719 -38.554688 C 33.65625 -37.15625 37.15625 -34.355469 39.511719 -30.09375 L 44.410156 -30.09375 C 42.753906 -34.164062 40.144531 -37.472656 36.519531 -40.019531 C 32.828125 -42.5625 28.820312 -43.835938 24.429688 -43.835938 C 18.386719 -43.835938 13.296875 -41.609375 9.097656 -37.21875 C 7.125 -35.183594 5.597656 -32.765625 4.515625 -30.09375 C 3.371094 -27.421875 2.863281 -24.558594 2.863281 -21.566406 C 2.863281 -15.460938 4.898438 -10.308594 9.097656 -5.980469 C 13.296875 -1.527344 18.386719 0.636719 24.429688 0.636719 C 28.820312 0.636719 32.828125 -0.636719 36.582031 -3.179688 C 40.210938 -5.726562 42.816406 -9.035156 44.472656 -13.234375 Z M 44.472656 -13.234375 "/></g></g></g><g fill="#1a4789" fill-opacity="1"><g transform="translate(1167.162537, 318.571605)"><g><path d="M 27.675781 -14.125 C 27.675781 -11.324219 26.65625 -8.972656 24.6875 -7 C 22.648438 -4.960938 20.296875 -4.007812 17.496094 -4.007812 C 14.695312 -4.007812 12.277344 -4.960938 10.308594 -7 C 8.269531 -8.972656 7.316406 -11.324219 7.316406 -14.125 C 7.316406 -16.921875 8.269531 -19.277344 10.308594 -21.3125 C 12.277344 -23.285156 14.695312 -24.304688 17.496094 -24.304688 C 20.296875 -24.304688 22.648438 -23.285156 24.6875 -21.3125 C 26.65625 -19.277344 27.675781 -16.921875 27.675781 -14.125 Z M 32.128906 -14.125 C 32.128906 -18.132812 30.667969 -21.566406 27.804688 -24.429688 C 24.941406 -27.292969 21.503906 -28.757812 17.496094 -28.757812 C 13.425781 -28.757812 9.988281 -27.292969 7.125 -24.429688 C 4.261719 -21.566406 2.863281 -18.132812 2.863281 -14.125 C 2.863281 -10.050781 4.261719 -6.617188 7.125 -3.816406 C 9.988281 -0.953125 13.488281 0.445312 17.496094 0.445312 C 21.441406 0.445312 24.941406 -0.953125 27.804688 -3.816406 C 30.667969 -6.617188 32.128906 -10.050781 32.128906 -14.125 Z M 32.128906 -14.125 "/></g></g></g><g fill="#1a4789" fill-opacity="1"><g transform="translate(1202.153835, 318.571605)"><g><path d="M 9.226562 0 L 9.226562 -47.71875 L 4.773438 -47.71875 L 4.773438 0 Z M 9.226562 0 "/></g></g></g><g fill="#1a4789" fill-opacity="1"><g transform="translate(1216.150381, 318.571605)"><g><path d="M 9.226562 0 L 9.226562 -47.71875 L 4.773438 -47.71875 L 4.773438 0 Z M 9.226562 0 "/></g></g></g><g fill="#1a4789" fill-opacity="1"><g transform="translate(1230.146927, 318.571605)"><g><path d="M 27.039062 -13.996094 C 27.039062 -11.261719 26.085938 -8.84375 24.175781 -6.871094 C 22.269531 -4.835938 19.914062 -3.816406 17.179688 -3.816406 C 14.378906 -3.816406 12.023438 -4.835938 10.117188 -6.871094 C 8.207031 -8.84375 7.316406 -11.261719 7.316406 -13.996094 C 7.316406 -16.667969 8.207031 -19.085938 10.117188 -21.121094 C 12.023438 -23.160156 14.378906 -24.175781 17.179688 -24.175781 C 19.914062 -24.175781 22.269531 -23.160156 24.175781 -21.121094 C 26.085938 -19.085938 27.039062 -16.667969 27.039062 -13.996094 Z M 31.492188 0 L 31.492188 -27.992188 L 27.039062 -27.992188 L 27.039062 -23.160156 C 26.785156 -23.539062 26.46875 -23.859375 26.210938 -24.175781 C 23.539062 -27.101562 20.296875 -28.628906 16.476562 -28.628906 C 12.597656 -28.628906 9.351562 -27.101562 6.679688 -24.175781 C 4.136719 -21.25 2.863281 -17.878906 2.863281 -13.996094 C 2.863281 -10.050781 4.136719 -6.679688 6.679688 -3.816406 C 9.351562 -0.828125 12.597656 0.636719 16.476562 0.636719 C 20.296875 0.636719 23.539062 -0.828125 26.210938 -3.816406 C 26.46875 -4.070312 26.785156 -4.390625 27.039062 -4.773438 L 27.039062 0 Z M 31.492188 0 "/></g></g></g><g fill="#1a4789" fill-opacity="1"><g transform="translate(1266.410687, 318.571605)"><g><path d="M 9.226562 0 L 9.226562 -4.773438 C 9.417969 -4.390625 9.734375 -4.070312 9.988281 -3.816406 C 12.660156 -0.828125 15.90625 0.636719 19.785156 0.636719 C 23.605469 0.636719 26.847656 -0.828125 29.519531 -3.816406 C 32.066406 -6.679688 33.402344 -10.050781 33.402344 -13.996094 C 33.402344 -17.878906 32.066406 -21.25 29.519531 -24.175781 C 26.847656 -27.101562 23.605469 -28.628906 19.785156 -28.628906 C 15.90625 -28.628906 12.660156 -27.101562 9.988281 -24.175781 C 9.734375 -23.859375 9.417969 -23.539062 9.226562 -23.160156 L 9.226562 -47.71875 L 4.773438 -47.71875 L 4.773438 0 Z M 28.949219 -13.996094 C 28.949219 -11.261719 27.992188 -8.84375 26.085938 -6.871094 C 24.175781 -4.835938 21.824219 -3.816406 19.085938 -3.816406 C 16.289062 -3.816406 13.933594 -4.835938 12.023438 -6.871094 C 10.117188 -8.84375 9.226562 -11.261719 9.226562 -13.996094 C 9.226562 -16.667969 10.117188 -19.085938 12.023438 -21.121094 C 13.933594 -23.160156 16.289062 -24.175781 19.085938 -24.175781 C 21.824219 -24.175781 24.175781 -23.160156 26.085938 -21.121094 C 27.992188 -19.085938 28.949219 -16.667969 28.949219 -13.996094 Z M 28.949219 -13.996094 "/></g></g></g><g fill="#1a4789" fill-opacity="1"><g transform="translate(1302.674447, 318.571605)"><g><path d="M 27.675781 -14.125 C 27.675781 -11.324219 26.65625 -8.972656 24.6875 -7 C 22.648438 -4.960938 20.296875 -4.007812 17.496094 -4.007812 C 14.695312 -4.007812 12.277344 -4.960938 10.308594 -7 C 8.269531 -8.972656 7.316406 -11.324219 7.316406 -14.125 C 7.316406 -16.921875 8.269531 -19.277344 10.308594 -21.3125 C 12.277344 -23.285156 14.695312 -24.304688 17.496094 -24.304688 C 20.296875 -24.304688 22.648438 -23.285156 24.6875 -21.3125 C 26.65625 -19.277344 27.675781 -16.921875 27.675781 -14.125 Z M 32.128906 -14.125 C 32.128906 -18.132812 30.667969 -21.566406 27.804688 -24.429688 C 24.941406 -27.292969 21.503906 -28.757812 17.496094 -28.757812 C 13.425781 -28.757812 9.988281 -27.292969 7.125 -24.429688 C 4.261719 -21.566406 2.863281 -18.132812 2.863281 -14.125 C 2.863281 -10.050781 4.261719 -6.617188 7.125 -3.816406 C 9.988281 -0.953125 13.488281 0.445312 17.496094 0.445312 C 21.441406 0.445312 24.941406 -0.953125 27.804688 -3.816406 C 30.667969 -6.617188 32.128906 -10.050781 32.128906 -14.125 Z M 32.128906 -14.125 "/></g></g></g><g fill="#1a4789" fill-opacity="1"><g transform="translate(1337.665745, 318.571605)"><g><path d="M 19.152344 -22.203125 L 19.152344 -27.992188 C 18.261719 -28.375 17.304688 -28.566406 16.351562 -28.566406 C 13.171875 -28.566406 10.878906 -26.785156 9.417969 -23.351562 L 9.226562 -22.203125 L 9.226562 -27.992188 L 4.773438 -27.992188 L 4.773438 0 L 9.226562 0 L 9.226562 -13.996094 C 9.226562 -16.289062 9.734375 -18.324219 10.816406 -20.167969 C 11.324219 -21.121094 12.023438 -21.949219 12.851562 -22.585938 C 13.679688 -23.222656 14.695312 -23.605469 15.84375 -23.605469 C 16.988281 -23.605469 18.070312 -23.09375 19.152344 -22.203125 Z M 19.152344 -22.203125 "/></g></g></g><g fill="#1a4789" fill-opacity="1"><g transform="translate(1357.451718, 318.571605)"><g><path d="M 27.039062 -13.996094 C 27.039062 -11.261719 26.085938 -8.84375 24.175781 -6.871094 C 22.269531 -4.835938 19.914062 -3.816406 17.179688 -3.816406 C 14.378906 -3.816406 12.023438 -4.835938 10.117188 -6.871094 C 8.207031 -8.84375 7.316406 -11.261719 7.316406 -13.996094 C 7.316406 -16.667969 8.207031 -19.085938 10.117188 -21.121094 C 12.023438 -23.160156 14.378906 -24.175781 17.179688 -24.175781 C 19.914062 -24.175781 22.269531 -23.160156 24.175781 -21.121094 C 26.085938 -19.085938 27.039062 -16.667969 27.039062 -13.996094 Z M 31.492188 0 L 31.492188 -27.992188 L 27.039062 -27.992188 L 27.039062 -23.160156 C 26.785156 -23.539062 26.46875 -23.859375 26.210938 -24.175781 C 23.539062 -27.101562 20.296875 -28.628906 16.476562 -28.628906 C 12.597656 -28.628906 9.351562 -27.101562 6.679688 -24.175781 C 4.136719 -21.25 2.863281 -17.878906 2.863281 -13.996094 C 2.863281 -10.050781 4.136719 -6.679688 6.679688 -3.816406 C 9.351562 -0.828125 12.597656 0.636719 16.476562 0.636719 C 20.296875 0.636719 23.539062 -0.828125 26.210938 -3.816406 C 26.46875 -4.070312 26.785156 -4.390625 27.039062 -4.773438 L 27.039062 0 Z M 31.492188 0 "/></g></g></g><g fill="#1a4789" fill-opacity="1"><g transform="translate(1393.715478, 318.571605)"><g><path d="M 1.273438 -23.859375 L 8.269531 -23.859375 L 8.269531 0 L 12.722656 0 L 12.722656 -23.859375 L 19.660156 -23.859375 L 19.660156 -27.992188 L 12.722656 -27.992188 L 12.722656 -38.875 L 8.269531 -38.875 L 8.269531 -27.992188 L 1.273438 -27.992188 Z M 1.273438 -23.859375 "/></g></g></g><g fill="#1a4789" fill-opacity="1"><g transform="translate(1414.646681, 318.571605)"><g><path d="M 9.289062 -37.664062 C 8.714844 -38.171875 8.015625 -38.492188 7.253906 -38.492188 C 6.488281 -38.492188 5.789062 -38.171875 5.28125 -37.664062 C 4.707031 -37.09375 4.453125 -36.390625 4.453125 -35.628906 C 4.453125 -34.867188 4.707031 -34.164062 5.28125 -33.65625 C 5.789062 -33.082031 6.488281 -32.828125 7.253906 -32.828125 C 8.015625 -32.828125 8.714844 -33.082031 9.289062 -33.65625 C 9.796875 -34.164062 10.117188 -34.867188 10.117188 -35.628906 C 10.117188 -36.390625 9.796875 -37.09375 9.289062 -37.664062 Z M 9.542969 0 L 9.542969 -27.992188 L 5.089844 -27.992188 L 5.089844 0 Z M 9.542969 0 "/></g></g></g><g fill="#1a4789" fill-opacity="1"><g transform="translate(1429.215774, 318.571605)"><g><path d="M 27.675781 -14.125 C 27.675781 -11.324219 26.65625 -8.972656 24.6875 -7 C 22.648438 -4.960938 20.296875 -4.007812 17.496094 -4.007812 C 14.695312 -4.007812 12.277344 -4.960938 10.308594 -7 C 8.269531 -8.972656 7.316406 -11.324219 7.316406 -14.125 C 7.316406 -16.921875 8.269531 -19.277344 10.308594 -21.3125 C 12.277344 -23.285156 14.695312 -24.304688 17.496094 -24.304688 C 20.296875 -24.304688 22.648438 -23.285156 24.6875 -21.3125 C 26.65625 -19.277344 27.675781 -16.921875 27.675781 -14.125 Z M 32.128906 -14.125 C 32.128906 -18.132812 30.667969 -21.566406 27.804688 -24.429688 C 24.941406 -27.292969 21.503906 -28.757812 17.496094 -28.757812 C 13.425781 -28.757812 9.988281 -27.292969 7.125 -24.429688 C 4.261719 -21.566406 2.863281 -18.132812 2.863281 -14.125 C 2.863281 -10.050781 4.261719 -6.617188 7.125 -3.816406 C 9.988281 -0.953125 13.488281 0.445312 17.496094 0.445312 C 21.441406 0.445312 24.941406 -0.953125 27.804688 -3.816406 C 30.667969 -6.617188 32.128906 -10.050781 32.128906 -14.125 Z M 32.128906 -14.125 "/></g></g></g><g fill="#1a4789" fill-opacity="1"><g transform="translate(1464.207072, 318.571605)"><g><path d="M 24.113281 0 L 28.566406 0 L 28.566406 -17.496094 C 28.566406 -20.742188 27.675781 -23.351562 26.023438 -25.320312 C 25.132812 -26.339844 24.113281 -27.101562 22.902344 -27.675781 C 21.632812 -28.25 20.042969 -28.566406 18.070312 -28.566406 C 16.03125 -28.566406 14.316406 -27.992188 12.789062 -26.976562 C 11.324219 -26.023438 10.117188 -24.75 9.226562 -23.160156 L 9.226562 -27.992188 L 4.773438 -27.992188 L 4.773438 0 L 9.226562 0 L 9.226562 -11.707031 C 9.226562 -15.269531 9.863281 -18.070312 11.199219 -20.167969 C 11.960938 -21.3125 12.914062 -22.269531 14.125 -23.03125 C 15.269531 -23.730469 16.859375 -24.113281 18.769531 -24.113281 C 20.675781 -24.113281 22.011719 -23.414062 22.839844 -22.140625 C 23.667969 -20.867188 24.113281 -19.277344 24.113281 -17.496094 Z M 24.113281 0 "/></g></g></g><path fill="#ffffff" d="M 331.832031 194.625 C 331.832031 224.46875 320.457031 252.8125 299.808594 274.421875 C 296.882812 277.476562 294.058594 280.355469 291.390625 283.074219 C 277.011719 297.660156 267.65625 307.117188 263.71875 325.199219 L 168.507812 325.199219 C 165.347656 306.726562 156.5625 298.257812 142.574219 284.730469 C 139.75 282.011719 136.796875 279.136719 133.6875 276 C 111.042969 253.125 99.152344 222.8125 100.238281 190.632812 C 102.285156 129.957031 153.351562 79.773438 214.078125 78.789062 C 245.636719 78.320312 274.9375 90.082031 297.246094 112.027344 C 319.550781 133.996094 331.832031 163.300781 331.832031 194.625 Z M 186.175781 372.5625 L 170.371094 372.5625 C 174.207031 394.273438 193.199219 410.828125 215.996094 410.828125 C 238.796875 410.828125 257.785156 394.273438 261.621094 372.5625 Z M 155.65625 61.429688 C 156.875 64.410156 159.75 66.195312 162.78125 66.195312 C 163.765625 66.195312 164.777344 66.015625 165.734375 65.601562 C 169.671875 63.96875 171.539062 59.460938 169.90625 55.523438 L 158.117188 26.972656 C 156.484375 23.03125 151.953125 21.195312 148.039062 22.800781 C 144.101562 24.433594 142.234375 28.941406 143.867188 32.878906 Z M 266.234375 65.601562 C 267.191406 65.988281 268.203125 66.195312 269.1875 66.195312 C 272.21875 66.195312 275.09375 64.410156 276.3125 61.429688 L 288.125 32.878906 C 289.757812 28.941406 287.890625 24.40625 283.953125 22.800781 C 280.015625 21.167969 275.480469 23.03125 273.875 26.972656 L 262.0625 55.523438 C 260.429688 59.460938 262.292969 63.96875 266.234375 65.601562 Z M 344.421875 141.40625 C 345.410156 141.40625 346.417969 141.226562 347.378906 140.8125 L 375.902344 128.996094 C 379.839844 127.367188 381.707031 122.832031 380.074219 118.917969 C 378.441406 114.980469 373.90625 113.117188 369.996094 114.75 L 341.46875 126.5625 C 337.53125 128.195312 335.667969 132.726562 337.300781 136.640625 C 338.515625 139.621094 341.390625 141.40625 344.421875 141.40625 Z M 375.902344 244.753906 L 347.378906 232.941406 C 343.464844 231.308594 338.929688 233.175781 337.300781 237.113281 C 335.667969 241.050781 337.53125 245.585938 341.46875 247.191406 L 369.996094 259.003906 C 370.953125 259.394531 371.964844 259.601562 372.949219 259.601562 C 375.980469 259.601562 378.855469 257.8125 380.074219 254.832031 C 381.707031 250.921875 379.839844 246.386719 375.902344 244.753906 Z M 84.617188 232.941406 L 56.089844 244.753906 C 52.152344 246.386719 50.289062 250.921875 51.921875 254.832031 C 53.136719 257.8125 56.039062 259.601562 59.042969 259.601562 C 60.027344 259.601562 61.039062 259.417969 62 259.003906 L 90.523438 247.191406 C 94.460938 245.558594 96.328125 241.023438 94.695312 237.113281 C 93.089844 233.175781 88.554688 231.308594 84.617188 232.941406 Z M 90.523438 126.5625 L 62 114.75 C 58.058594 113.117188 53.527344 114.980469 51.921875 118.917969 C 50.289062 122.859375 52.152344 127.390625 56.089844 128.996094 L 84.617188 140.8125 C 85.574219 141.199219 86.585938 141.40625 87.570312 141.40625 C 90.601562 141.40625 93.476562 139.621094 94.695312 136.640625 C 96.351562 132.703125 94.460938 128.195312 90.523438 126.5625 Z M 185.113281 340.980469 L 169.671875 340.980469 L 169.671875 356.78125 L 262.320312 356.78125 L 262.320312 340.980469 Z M 185.113281 340.980469 " fill-opacity="1" fill-rule="nonzero"/><g clip-path="url(#4de0c1c019)"><g clip-path="url(#d453d11c93)"><path fill="#1a4789" d="M 98.667969 83.691406 L 333.417969 83.691406 L 333.417969 318.441406 L 98.667969 318.441406 Z M 98.667969 83.691406 " fill-opacity="1" fill-rule="evenodd"/></g></g><path fill="#1a4789" d="M 432 366.304688 C 432 402.5625 402.613281 431.949219 366.359375 431.949219 L 65.660156 431.949219 C 29.40625 431.949219 0.015625 402.5625 0.015625 366.304688 L 0.015625 65.609375 C 0.015625 29.355469 29.40625 -0.0351562 65.660156 -0.0351562 L 366.359375 -0.0351562 C 402.613281 -0.0351562 432 29.355469 432 65.609375 Z M 432 366.304688 " fill-opacity="1" fill-rule="nonzero"/><path fill="#1a4789" d="M 286.25 249.523438 L 293.238281 195.359375 L 239.597656 195.359375 L 239.597656 160.777344 C 239.597656 145.09375 243.972656 134.40625 266.457031 134.40625 L 295.117188 134.390625 L 295.117188 85.949219 C 290.167969 85.289062 273.15625 83.8125 253.328125 83.8125 C 211.972656 83.8125 183.675781 109.058594 183.675781 155.417969 L 183.675781 195.359375 L 136.902344 195.359375 L 136.902344 249.523438 L 183.675781 249.523438 L 183.675781 388.5 L 239.597656 388.5 L 239.597656 249.523438 Z M 286.25 249.523438 " fill-opacity="1" fill-rule="nonzero"/><path fill="#ffffff" d="M 325.246094 195.839844 C 325.246094 223.988281 314.515625 250.722656 295.042969 271.101562 C 292.28125 273.984375 289.617188 276.695312 287.101562 279.261719 C 273.539062 293.019531 264.71875 301.9375 261.003906 318.996094 L 171.203125 318.996094 C 168.222656 301.570312 159.9375 293.582031 146.742188 280.828125 C 144.078125 278.261719 141.292969 275.546875 138.363281 272.589844 C 117.003906 251.015625 105.789062 222.425781 106.816406 192.078125 C 108.746094 134.847656 156.910156 87.515625 214.183594 86.589844 C 243.949219 86.148438 271.585938 97.242188 292.625 117.9375 C 313.660156 138.660156 325.246094 166.296875 325.246094 195.839844 Z M 187.867188 363.664062 L 172.960938 363.664062 C 176.578125 384.140625 194.488281 399.753906 215.992188 399.753906 C 237.496094 399.753906 255.40625 384.140625 259.023438 363.664062 Z M 159.082031 70.214844 C 160.230469 73.027344 162.945312 74.710938 165.804688 74.710938 C 166.730469 74.710938 167.683594 74.542969 168.589844 74.152344 C 172.300781 72.613281 174.0625 68.359375 172.523438 64.644531 L 161.40625 37.71875 C 159.863281 34.003906 155.589844 32.269531 151.898438 33.785156 C 148.183594 35.324219 146.425781 39.574219 147.964844 43.289062 Z M 263.375 74.152344 C 264.277344 74.515625 265.230469 74.710938 266.160156 74.710938 C 269.019531 74.710938 271.730469 73.027344 272.878906 70.214844 L 284.023438 43.289062 C 285.5625 39.574219 283.800781 35.296875 280.085938 33.785156 C 276.375 32.242188 272.097656 34.003906 270.582031 37.71875 L 259.441406 64.644531 C 257.898438 68.359375 259.660156 72.613281 263.375 74.152344 Z M 337.121094 145.648438 C 338.046875 145.648438 339 145.476562 339.90625 145.085938 L 366.808594 133.945312 C 370.523438 132.40625 372.28125 128.128906 370.742188 124.4375 C 369.203125 120.726562 364.929688 118.964844 361.238281 120.503906 L 334.335938 131.648438 C 330.621094 133.1875 328.859375 137.464844 330.402344 141.152344 C 331.550781 143.964844 334.261719 145.648438 337.121094 145.648438 Z M 366.808594 243.121094 L 339.90625 231.980469 C 336.214844 230.441406 331.941406 232.199219 330.402344 235.914062 C 328.859375 239.628906 330.621094 243.902344 334.335938 245.417969 L 361.238281 256.5625 C 362.140625 256.929688 363.09375 257.125 364.023438 257.125 C 366.882812 257.125 369.59375 255.4375 370.742188 252.628906 C 372.28125 248.9375 370.523438 244.660156 366.808594 243.121094 Z M 92.082031 231.980469 L 65.175781 243.121094 C 61.464844 244.660156 59.703125 248.9375 61.242188 252.628906 C 62.390625 255.4375 65.128906 257.125 67.964844 257.125 C 68.890625 257.125 69.84375 256.953125 70.75 256.5625 L 97.652344 245.417969 C 101.367188 243.878906 103.125 239.605469 101.585938 235.914062 C 100.070312 232.199219 95.796875 230.441406 92.082031 231.980469 Z M 97.652344 131.648438 L 70.75 120.503906 C 67.035156 118.964844 62.757812 120.726562 61.242188 124.4375 C 59.703125 128.152344 61.464844 132.429688 65.175781 133.945312 L 92.082031 145.085938 C 92.984375 145.453125 93.9375 145.648438 94.867188 145.648438 C 97.726562 145.648438 100.4375 143.964844 101.585938 141.152344 C 103.148438 137.4375 101.367188 133.1875 97.652344 131.648438 Z M 186.867188 333.875 L 172.300781 333.875 L 172.300781 348.78125 L 259.683594 348.78125 L 259.683594 333.875 Z M 186.867188 333.875 " fill-opacity="1" fill-rule="nonzero"/><g clip-path="url(#f5f88607b5)"><g clip-path="url(#6101c3e147)"><path fill="#1a4789" d="M 105.335938 91.210938 L 326.734375 91.210938 L 326.734375 312.609375 L 105.335938 312.609375 Z M 105.335938 91.210938 " fill-opacity="1" fill-rule="evenodd"/></g></g></svg>