<svg xmlns="http://www.w3.org/2000/svg" xmlns:xlink="http://www.w3.org/1999/xlink" width="500" zoomAndPan="magnify" viewBox="0 0 375 374.999991" height="500" preserveAspectRatio="xMidYMid meet" version="1.0"><defs><clipPath id="bc2d8580c3"><path d="M 52 28 L 323 28 L 323 347.382812 L 52 347.382812 Z M 52 28 " clip-rule="nonzero"/></clipPath><clipPath id="0e0b9f76b7"><path d="M 111.292969 140.042969 L 263.695312 140.042969 L 263.695312 211.34375 L 111.292969 211.34375 Z M 111.292969 140.042969 " clip-rule="nonzero"/></clipPath><clipPath id="c2b1a2b1e3"><path d="M 247.640625 163.453125 C 247.433594 163.179688 247.226562 162.902344 247.015625 162.625 C 239.8125 153.125 225.992188 149.8125 215.121094 154.699219 C 209.855469 157.070312 206.855469 161.429688 203.128906 165.644531 L 183.882812 187.40625 C 178.777344 193.175781 172.859375 200.707031 166.769531 205.253906 C 161.492188 209.191406 155.738281 211.082031 146.707031 211.082031 C 136.535156 211.082031 127.441406 207.960938 120.695312 200.164062 C 114.660156 193.183594 111.386719 185.066406 111.386719 175.800781 C 111.386719 167.304688 114.046875 159.660156 119.300781 152.988281 C 126.121094 144.328125 135.257812 140.164062 146.253906 140.164062 C 157.539062 140.164062 166.9375 144.414062 173.96875 153.28125 C 176.90625 156.984375 178.875 161.085938 180.058594 165.445312 L 168.359375 178.652344 L 124.597656 178.652344 C 125.121094 183.914062 127.019531 188.644531 130.828125 192.554688 C 134.988281 196.824219 140.023438 198.847656 145.976562 198.847656 C 148.929688 198.847656 151.8125 198.339844 154.585938 197.328125 C 162.089844 194.601562 167 187.304688 172.246094 181.398438 C 177.046875 175.996094 181.84375 170.59375 186.640625 165.195312 C 192.5 158.601562 199.71875 148.882812 207.148438 144.847656 C 222.757812 136.371094 244.859375 139.183594 256.074219 153.324219 C 261.347656 159.96875 263.5 167.894531 263.578125 176.300781 C 263.585938 177.101562 263.59375 177.898438 263.601562 178.699219 C 243.953125 178.699219 224.304688 178.699219 204.65625 178.699219 C 204.035156 174.640625 204.863281 169.660156 209.273438 166.9375 C 222.554688 166.9375 235.835938 166.9375 249.117188 166.9375 C 248.707031 165.746094 248.222656 164.570312 247.640625 163.453125 Z M 250.183594 185.074219 C 250.570312 184.4375 250.957031 183.796875 251.339844 183.15625 C 254.980469 185.070312 258.617188 186.984375 262.257812 188.898438 C 261.898438 189.597656 261.539062 190.292969 261.179688 190.992188 C 259.035156 195.144531 256.335938 199.113281 252.863281 202.273438 C 249.71875 205.132812 246.144531 207.359375 242.171875 208.875 C 228.496094 214.078125 209.402344 210.730469 199.191406 200.9375 C 195.078125 196.992188 192.148438 192.515625 190.421875 187.53125 C 192.769531 184.925781 195.117188 182.324219 197.460938 179.722656 C 198.816406 178.253906 200.171875 176.785156 201.53125 175.316406 C 201.53125 175.378906 201.527344 175.441406 201.527344 175.503906 C 201.527344 179.714844 202.617188 183.617188 204.730469 187.261719 C 206.855469 190.917969 209.769531 193.761719 213.480469 195.792969 C 217.390625 197.929688 221.660156 198.847656 226.101562 198.847656 C 235.78125 198.847656 245.636719 192.609375 250.183594 185.074219 Z M 167.015625 166.894531 C 166.207031 164.554688 165.113281 162.277344 163.585938 160.382812 C 161.597656 157.914062 159.027344 156.117188 156.164062 154.792969 C 153.0625 153.359375 149.789062 152.636719 146.371094 152.636719 C 140.851562 152.636719 136.027344 154.324219 131.890625 158 C 129.246094 160.347656 127.445312 163.5625 126.179688 166.894531 Z M 167.015625 166.894531 " clip-rule="nonzero"/></clipPath></defs><rect x="-37.5" width="450" fill="#ffffff" y="-37.499999" height="449.999989" fill-opacity="1"/><rect x="-37.5" width="450" fill="#266ffe" y="-37.499999" height="449.999989" fill-opacity="1"/><path fill="#266ffe" d="M 375 317.972656 C 375 349.445312 349.492188 374.957031 318.019531 374.957031 L 56.996094 374.957031 C 25.527344 374.957031 0.015625 349.445312 0.015625 317.972656 L 0.015625 56.953125 C 0.015625 25.480469 25.527344 -0.03125 56.996094 -0.03125 L 318.019531 -0.03125 C 349.488281 -0.03125 375 25.480469 375 56.953125 Z M 375 317.972656 " fill-opacity="1" fill-rule="nonzero"/><path fill="#266ffe" d="M 248.480469 216.597656 L 254.546875 169.582031 L 207.984375 169.582031 L 207.984375 139.5625 C 207.984375 125.949219 211.78125 116.671875 231.300781 116.671875 L 256.175781 116.65625 L 256.175781 74.609375 C 251.882812 74.035156 237.113281 72.753906 219.90625 72.753906 C 184.003906 72.753906 159.441406 94.667969 159.441406 134.910156 L 159.441406 169.582031 L 118.839844 169.582031 L 118.839844 216.597656 L 159.441406 216.597656 L 159.441406 337.238281 L 207.984375 337.238281 L 207.984375 216.597656 Z M 248.480469 216.597656 " fill-opacity="1" fill-rule="nonzero"/><g clip-path="url(#bc2d8580c3)"><path fill="#ffffff" d="M 282.332031 170 C 282.332031 194.433594 273.019531 217.640625 256.113281 235.332031 C 253.714844 237.832031 251.402344 240.1875 249.21875 242.414062 C 237.445312 254.355469 229.789062 262.097656 226.566406 276.90625 L 148.613281 276.90625 C 146.027344 261.78125 138.835938 254.84375 127.382812 243.773438 C 125.070312 241.546875 122.652344 239.191406 120.105469 236.625 C 101.566406 217.894531 91.832031 193.078125 92.722656 166.734375 C 94.398438 117.054688 136.207031 75.96875 185.925781 75.164062 C 211.761719 74.78125 235.75 84.410156 254.011719 102.378906 C 272.277344 120.363281 282.332031 144.355469 282.332031 170 Z M 163.078125 315.679688 L 150.140625 315.679688 C 153.28125 333.453125 168.828125 347.007812 187.496094 347.007812 C 206.160156 347.007812 221.707031 333.453125 224.847656 315.679688 Z M 138.09375 60.953125 C 139.089844 63.390625 141.445312 64.855469 143.925781 64.855469 C 144.730469 64.855469 145.558594 64.707031 146.34375 64.367188 C 149.566406 63.03125 151.09375 59.339844 149.757812 56.117188 L 140.109375 32.742188 C 138.773438 29.515625 135.058594 28.011719 131.855469 29.324219 C 128.632812 30.664062 127.105469 34.351562 128.441406 37.578125 Z M 228.625 64.367188 C 229.40625 64.683594 230.234375 64.855469 231.042969 64.855469 C 233.523438 64.855469 235.878906 63.390625 236.875 60.953125 L 246.546875 37.578125 C 247.882812 34.351562 246.355469 30.640625 243.132812 29.324219 C 239.90625 27.988281 236.195312 29.515625 234.878906 32.742188 L 225.207031 56.117188 C 223.871094 59.339844 225.398438 63.03125 228.625 64.367188 Z M 292.640625 126.429688 C 293.445312 126.429688 294.273438 126.28125 295.058594 125.945312 L 318.410156 116.269531 C 321.636719 114.933594 323.164062 111.222656 321.824219 108.019531 C 320.488281 104.796875 316.777344 103.269531 313.574219 104.605469 L 290.222656 114.277344 C 286.996094 115.613281 285.46875 119.324219 286.804688 122.527344 C 287.804688 124.96875 290.15625 126.429688 292.640625 126.429688 Z M 318.410156 211.042969 L 295.058594 201.371094 C 291.855469 200.035156 288.140625 201.5625 286.804688 204.785156 C 285.46875 208.011719 286.996094 211.722656 290.222656 213.039062 L 313.574219 222.710938 C 314.359375 223.027344 315.1875 223.199219 315.992188 223.199219 C 318.472656 223.199219 320.828125 221.734375 321.824219 219.296875 C 323.164062 216.09375 321.636719 212.378906 318.410156 211.042969 Z M 79.929688 201.371094 L 56.578125 211.042969 C 53.351562 212.378906 51.828125 216.09375 53.164062 219.296875 C 54.160156 221.734375 56.535156 223.199219 58.996094 223.199219 C 59.800781 223.199219 60.628906 223.050781 61.414062 222.710938 L 84.765625 213.039062 C 87.992188 211.703125 89.519531 207.988281 88.183594 204.785156 C 86.867188 201.5625 83.15625 200.035156 79.929688 201.371094 Z M 84.765625 114.277344 L 61.414062 104.605469 C 58.191406 103.269531 54.476562 104.796875 53.164062 108.019531 C 51.828125 111.246094 53.351562 114.957031 56.578125 116.269531 L 79.929688 125.945312 C 80.714844 126.261719 81.542969 126.429688 82.347656 126.429688 C 84.832031 126.429688 87.1875 124.96875 88.183594 122.527344 C 89.539062 119.304688 87.992188 115.613281 84.765625 114.277344 Z M 162.210938 289.824219 L 149.566406 289.824219 L 149.566406 302.761719 L 225.421875 302.761719 L 225.421875 289.824219 Z M 162.210938 289.824219 " fill-opacity="1" fill-rule="nonzero"/></g><g clip-path="url(#0e0b9f76b7)"><g clip-path="url(#c2b1a2b1e3)"><path fill="#266ffe" d="M 91.4375 79.175781 L 283.625 79.175781 L 283.625 271.363281 L 91.4375 271.363281 Z M 91.4375 79.175781 " fill-opacity="1" fill-rule="evenodd"/></g></g></svg>