<svg xmlns="http://www.w3.org/2000/svg" xmlns:xlink="http://www.w3.org/1999/xlink" width="500" zoomAndPan="magnify" viewBox="0 0 375 374.999991" height="500" preserveAspectRatio="xMidYMid meet" version="1.0"><defs><clipPath id="51929608ed"><path d="M 98 131.753906 L 277 131.753906 L 277 215.511719 L 98 215.511719 Z M 98 131.753906 " clip-rule="nonzero"/></clipPath><clipPath id="9501aa3866"><path d="M 258.148438 159.25 C 257.902344 158.929688 257.660156 158.605469 257.414062 158.28125 C 248.953125 147.121094 232.71875 143.230469 219.945312 148.96875 C 213.761719 151.753906 210.238281 156.875 205.859375 161.824219 L 183.25 187.390625 C 177.253906 194.167969 170.304688 203.011719 163.148438 208.355469 C 156.949219 212.984375 150.1875 215.203125 139.582031 215.203125 C 127.632812 215.203125 116.949219 211.535156 109.027344 202.375 C 101.9375 194.175781 98.089844 184.644531 98.089844 173.757812 C 98.089844 163.777344 101.214844 154.796875 107.386719 146.957031 C 115.402344 136.785156 126.132812 131.894531 139.046875 131.894531 C 152.304688 131.894531 163.34375 136.886719 171.605469 147.300781 C 175.058594 151.652344 177.371094 156.472656 178.757812 161.59375 L 165.015625 177.105469 L 113.609375 177.105469 C 114.222656 183.289062 116.453125 188.84375 120.929688 193.4375 C 125.8125 198.453125 131.730469 200.832031 138.722656 200.832031 C 142.191406 200.832031 145.578125 200.230469 148.835938 199.042969 C 157.648438 195.839844 163.417969 187.269531 169.582031 180.332031 C 175.21875 173.988281 180.855469 167.640625 186.492188 161.300781 C 193.371094 153.550781 201.855469 142.132812 210.582031 137.394531 C 228.917969 127.441406 254.878906 130.742188 268.054688 147.355469 C 274.246094 155.160156 276.777344 164.46875 276.871094 174.34375 C 276.878906 175.28125 276.886719 176.222656 276.894531 177.160156 C 253.816406 177.160156 230.730469 177.160156 207.652344 177.160156 C 206.925781 172.390625 207.894531 166.542969 213.074219 163.34375 C 228.679688 163.34375 244.28125 163.34375 259.882812 163.34375 C 259.402344 161.945312 258.828125 160.5625 258.148438 159.25 Z M 261.132812 184.648438 C 261.585938 183.898438 262.039062 183.148438 262.492188 182.398438 C 266.765625 184.644531 271.042969 186.894531 275.316406 189.140625 C 274.894531 189.964844 274.472656 190.78125 274.050781 191.601562 C 271.53125 196.480469 268.359375 201.144531 264.28125 204.855469 C 260.585938 208.214844 256.390625 210.832031 251.722656 212.605469 C 235.660156 218.722656 213.226562 214.789062 201.234375 203.285156 C 196.402344 198.648438 192.960938 193.390625 190.933594 187.535156 C 193.6875 184.476562 196.445312 181.421875 199.203125 178.363281 C 200.792969 176.640625 202.386719 174.914062 203.980469 173.1875 C 203.980469 173.261719 203.980469 173.335938 203.980469 173.40625 C 203.980469 178.355469 205.257812 182.941406 207.742188 187.21875 C 210.238281 191.515625 213.660156 194.855469 218.019531 197.242188 C 222.609375 199.753906 227.625 200.832031 232.84375 200.832031 C 244.21875 200.832031 255.792969 193.503906 261.132812 184.648438 Z M 163.4375 163.292969 C 162.488281 160.546875 161.199219 157.871094 159.410156 155.648438 C 157.074219 152.746094 154.054688 150.636719 150.691406 149.082031 C 147.042969 147.394531 143.203125 146.546875 139.1875 146.546875 C 132.699219 146.546875 127.035156 148.53125 122.179688 152.84375 C 119.070312 155.601562 116.957031 159.378906 115.46875 163.292969 Z M 163.4375 163.292969 " clip-rule="nonzero"/></clipPath></defs><path fill="#1e57be" d="M 298.898438 166.941406 C 298.898438 195.648438 287.957031 222.90625 268.097656 243.6875 C 265.285156 246.625 262.566406 249.390625 260 252.007812 C 246.171875 266.035156 237.175781 275.132812 233.390625 292.523438 L 141.820312 292.523438 C 138.78125 274.757812 130.332031 266.609375 116.878906 253.601562 C 114.164062 250.988281 111.324219 248.222656 108.332031 245.207031 C 86.554688 223.203125 75.117188 194.050781 76.164062 163.105469 C 78.132812 104.75 127.246094 56.484375 185.648438 55.539062 C 216 55.089844 244.179688 66.402344 265.632812 87.507812 C 287.085938 108.636719 298.898438 136.816406 298.898438 166.941406 Z M 158.8125 338.070312 L 143.613281 338.070312 C 147.300781 358.953125 165.566406 374.875 187.492188 374.875 C 209.421875 374.875 227.683594 358.953125 231.371094 338.070312 Z M 129.460938 38.84375 C 130.632812 41.710938 133.398438 43.429688 136.3125 43.429688 C 137.261719 43.429688 138.234375 43.253906 139.15625 42.855469 C 142.941406 41.285156 144.734375 36.953125 143.167969 33.164062 L 131.828125 5.707031 C 130.257812 1.917969 125.898438 0.148438 122.136719 1.695312 C 118.347656 3.261719 116.554688 7.597656 118.125 11.386719 Z M 235.808594 42.855469 C 236.730469 43.230469 237.699219 43.429688 238.648438 43.429688 C 241.5625 43.429688 244.328125 41.710938 245.5 38.84375 L 256.863281 11.386719 C 258.429688 7.597656 256.636719 3.238281 252.851562 1.695312 C 249.0625 0.125 244.703125 1.917969 243.15625 5.707031 L 231.796875 33.164062 C 230.226562 36.953125 232.019531 41.285156 235.808594 42.855469 Z M 311.007812 115.761719 C 311.953125 115.761719 312.925781 115.589844 313.847656 115.191406 L 341.28125 103.828125 C 345.066406 102.257812 346.863281 97.898438 345.292969 94.136719 C 343.722656 90.347656 339.363281 88.554688 335.597656 90.125 L 308.164062 101.484375 C 304.378906 103.054688 302.585938 107.417969 304.152344 111.179688 C 305.324219 114.042969 308.089844 115.761719 311.007812 115.761719 Z M 341.28125 215.15625 L 313.847656 203.792969 C 310.085938 202.226562 305.722656 204.019531 304.152344 207.804688 C 302.585938 211.59375 304.378906 215.953125 308.164062 217.5 L 335.597656 228.859375 C 336.519531 229.234375 337.492188 229.433594 338.441406 229.433594 C 341.355469 229.433594 344.121094 227.714844 345.292969 224.847656 C 346.863281 221.085938 345.066406 216.726562 341.28125 215.15625 Z M 61.140625 203.792969 L 33.707031 215.15625 C 29.917969 216.726562 28.125 221.085938 29.695312 224.847656 C 30.867188 227.714844 33.65625 229.433594 36.546875 229.433594 C 37.492188 229.433594 38.464844 229.257812 39.386719 228.859375 L 66.820312 217.5 C 70.609375 215.929688 72.402344 211.570312 70.832031 207.804688 C 69.289062 204.019531 64.925781 202.226562 61.140625 203.792969 Z M 66.820312 101.484375 L 39.386719 90.125 C 35.601562 88.554688 31.238281 90.347656 29.695312 94.136719 C 28.125 97.921875 29.917969 102.285156 33.707031 103.828125 L 61.140625 115.191406 C 62.0625 115.5625 63.035156 115.761719 63.980469 115.761719 C 66.894531 115.761719 69.660156 114.042969 70.832031 111.179688 C 72.425781 107.390625 70.609375 103.054688 66.820312 101.484375 Z M 157.792969 307.699219 L 142.941406 307.699219 L 142.941406 322.898438 L 232.042969 322.898438 L 232.042969 307.699219 Z M 157.792969 307.699219 " fill-opacity="1" fill-rule="nonzero"/><g clip-path="url(#51929608ed)"><g clip-path="url(#9501aa3866)"><path fill="#ffffff" d="M 74.65625 60.253906 L 300.414062 60.253906 L 300.414062 286.015625 L 74.65625 286.015625 Z M 74.65625 60.253906 " fill-opacity="1" fill-rule="evenodd"/></g></g></svg>