<svg xmlns="http://www.w3.org/2000/svg" xmlns:xlink="http://www.w3.org/1999/xlink" width="2000" zoomAndPan="magnify" viewBox="0 0 1500 431.999984" height="576" preserveAspectRatio="xMidYMid meet" version="1.0"><defs><g/><clipPath id="b6f554f977"><path d="M 123 158.039062 L 309 158.039062 L 309 245.132812 L 123 245.132812 Z M 123 158.039062 " clip-rule="nonzero"/></clipPath><clipPath id="fce9300887"><path d="M 289.46875 186.632812 C 289.210938 186.296875 288.957031 185.960938 288.703125 185.625 C 279.90625 174.019531 263.023438 169.972656 249.742188 175.941406 C 243.3125 178.835938 239.648438 184.164062 235.097656 189.308594 L 211.585938 215.894531 C 205.351562 222.941406 198.125 232.136719 190.6875 237.691406 C 184.238281 242.503906 177.207031 244.8125 166.179688 244.8125 C 153.753906 244.8125 142.644531 241 134.40625 231.472656 C 127.035156 222.949219 123.035156 213.035156 123.035156 201.71875 C 123.035156 191.339844 126.285156 182 132.703125 173.851562 C 141.035156 163.273438 152.195312 158.1875 165.625 158.1875 C 179.410156 158.1875 190.890625 163.375 199.480469 174.207031 C 203.066406 178.734375 205.472656 183.742188 206.914062 189.066406 L 192.628906 205.199219 L 139.171875 205.199219 C 139.8125 211.625 142.128906 217.40625 146.785156 222.183594 C 151.863281 227.398438 158.015625 229.867188 165.285156 229.867188 C 168.894531 229.867188 172.414062 229.246094 175.804688 228.011719 C 184.964844 224.679688 190.964844 215.765625 197.375 208.550781 C 203.238281 201.957031 209.097656 195.359375 214.957031 188.761719 C 222.113281 180.707031 230.929688 168.835938 240.003906 163.90625 C 259.070312 153.554688 286.066406 156.992188 299.769531 174.261719 C 306.207031 182.378906 308.839844 192.058594 308.933594 202.328125 C 308.941406 203.304688 308.953125 204.28125 308.960938 205.253906 C 284.960938 205.253906 260.960938 205.253906 236.960938 205.253906 C 236.203125 200.296875 237.214844 194.214844 242.597656 190.890625 C 258.824219 190.890625 275.046875 190.890625 291.269531 190.890625 C 290.769531 189.433594 290.175781 187.996094 289.46875 186.632812 Z M 292.570312 213.042969 C 293.042969 212.261719 293.515625 211.480469 293.984375 210.703125 C 298.429688 213.039062 302.875 215.375 307.320312 217.714844 C 306.878906 218.566406 306.441406 219.417969 306 220.273438 C 303.382812 225.347656 300.085938 230.195312 295.84375 234.050781 C 292.003906 237.546875 287.636719 240.265625 282.785156 242.113281 C 266.082031 248.472656 242.757812 244.378906 230.289062 232.421875 C 225.261719 227.601562 221.683594 222.132812 219.578125 216.042969 C 222.441406 212.863281 225.308594 209.6875 228.175781 206.507812 C 229.828125 204.710938 231.488281 202.921875 233.144531 201.125 C 233.144531 201.199219 233.140625 201.277344 233.140625 201.355469 C 233.140625 206.5 234.46875 211.265625 237.054688 215.714844 C 239.648438 220.179688 243.207031 223.65625 247.738281 226.136719 C 252.515625 228.746094 257.730469 229.867188 263.152344 229.867188 C 274.980469 229.867188 287.019531 222.25 292.570312 213.042969 Z M 190.984375 190.835938 C 189.996094 187.980469 188.660156 185.195312 186.796875 182.886719 C 184.367188 179.871094 181.226562 177.675781 177.730469 176.058594 C 173.941406 174.304688 169.945312 173.425781 165.769531 173.425781 C 159.023438 173.425781 153.136719 175.484375 148.082031 179.972656 C 144.851562 182.839844 142.652344 186.765625 141.109375 190.835938 Z M 190.984375 190.835938 " clip-rule="nonzero"/></clipPath><clipPath id="867bd25146"><path d="M 128.207031 161.328125 L 303.777344 161.328125 L 303.777344 243.46875 L 128.207031 243.46875 Z M 128.207031 161.328125 " clip-rule="nonzero"/></clipPath><clipPath id="78ba29b0ac"><path d="M 285.285156 188.296875 C 285.042969 187.980469 284.804688 187.660156 284.5625 187.34375 C 276.265625 176.398438 260.34375 172.585938 247.820312 178.214844 C 241.753906 180.945312 238.300781 185.96875 234.007812 190.820312 L 211.832031 215.894531 C 205.949219 222.539062 199.136719 231.214844 192.121094 236.449219 C 186.039062 240.992188 179.410156 243.167969 169.007812 243.167969 C 157.289062 243.167969 146.808594 239.570312 139.042969 230.589844 C 132.089844 222.546875 128.316406 213.199219 128.316406 202.523438 C 128.316406 192.734375 131.382812 183.929688 137.433594 176.242188 C 145.292969 166.265625 155.816406 161.46875 168.484375 161.46875 C 181.484375 161.46875 192.3125 166.363281 200.414062 176.578125 C 203.796875 180.847656 206.066406 185.570312 207.425781 190.59375 L 193.949219 205.808594 L 143.535156 205.808594 C 144.136719 211.867188 146.324219 217.320312 150.714844 221.824219 C 155.503906 226.742188 161.308594 229.074219 168.164062 229.074219 C 171.566406 229.074219 174.886719 228.484375 178.085938 227.320312 C 186.726562 224.179688 192.382812 215.773438 198.429688 208.96875 C 203.957031 202.75 209.484375 196.527344 215.011719 190.304688 C 221.757812 182.707031 230.078125 171.511719 238.636719 166.863281 C 256.617188 157.101562 282.078125 160.339844 295 176.628906 C 301.070312 184.285156 303.554688 193.414062 303.644531 203.097656 C 303.652344 204.019531 303.660156 204.941406 303.667969 205.859375 C 281.035156 205.859375 258.398438 205.859375 235.761719 205.859375 C 235.050781 201.183594 236 195.449219 241.082031 192.3125 C 256.382812 192.3125 271.683594 192.3125 286.984375 192.3125 C 286.511719 190.9375 285.953125 189.582031 285.285156 188.296875 Z M 288.210938 213.203125 C 288.65625 212.46875 289.101562 211.734375 289.542969 210.996094 C 293.734375 213.203125 297.929688 215.40625 302.121094 217.609375 C 301.707031 218.414062 301.292969 219.21875 300.878906 220.023438 C 298.410156 224.808594 295.296875 229.378906 291.296875 233.019531 C 287.675781 236.3125 283.558594 238.878906 278.980469 240.621094 C 263.230469 246.621094 241.230469 242.761719 229.46875 231.480469 C 224.730469 226.933594 221.355469 221.777344 219.367188 216.035156 C 222.070312 213.035156 224.773438 210.039062 227.476562 207.042969 C 229.039062 205.347656 230.601562 203.65625 232.164062 201.964844 C 232.164062 202.035156 232.160156 202.109375 232.160156 202.179688 C 232.160156 207.03125 233.414062 211.527344 235.851562 215.722656 C 238.296875 219.9375 241.652344 223.214844 245.929688 225.554688 C 250.433594 228.015625 255.351562 229.074219 260.46875 229.074219 C 271.621094 229.074219 282.972656 221.886719 288.210938 213.203125 Z M 192.402344 192.261719 C 191.472656 189.566406 190.210938 186.941406 188.453125 184.761719 C 186.160156 181.917969 183.199219 179.847656 179.902344 178.324219 C 176.328125 176.667969 172.558594 175.839844 168.621094 175.839844 C 162.257812 175.839844 156.703125 177.78125 151.941406 182.015625 C 148.894531 184.71875 146.816406 188.421875 145.359375 192.261719 Z M 192.402344 192.261719 " clip-rule="nonzero"/></clipPath></defs><g fill="#266ffe" fill-opacity="1"><g transform="translate(476.17919, 217.132615)"><g><path d="M 39.402344 -68.589844 C 20.242188 -68.589844 5.773438 -54.820312 5.773438 -33.566406 C 5.773438 -12.054688 21.257812 1.460938 40.101562 1.460938 C 50.316406 1.460938 60.277344 -2.855469 67.765625 -10.722656 C 69.097656 -12.054688 69.097656 -13.324219 67.828125 -14.277344 L 61.609375 -21.128906 C 60.40625 -22.082031 59.453125 -22.019531 58.25 -20.875 C 53.234375 -15.734375 46.765625 -13.007812 40.546875 -13.007812 C 30.773438 -13.007812 22.207031 -19.542969 21.765625 -31.28125 L 69.542969 -31.28125 C 71.382812 -31.28125 72.335938 -31.917969 72.335938 -34.199219 C 72.335938 -54.820312 58.566406 -68.589844 39.402344 -68.589844 Z M 39.71875 -55.074219 C 46.636719 -55.074219 53.363281 -51.332031 55.328125 -42.765625 L 22.90625 -42.765625 C 25.316406 -51.394531 32.996094 -55.074219 39.71875 -55.074219 Z M 39.71875 -55.074219 "/></g></g></g><g fill="#266ffe" fill-opacity="1"><g transform="translate(554.029122, 217.132615)"><g><path d="M 44.988281 -68.589844 C 37.5 -68.589844 29.441406 -65.671875 22.714844 -59.074219 L 21.191406 -64.910156 C 20.8125 -66.496094 19.796875 -67.195312 18.335938 -67.195312 L 11.292969 -67.195312 C 9.644531 -67.195312 8.691406 -66.242188 8.691406 -64.59375 L 8.691406 -2.601562 C 8.691406 -0.886719 9.644531 0 11.292969 0 L 22.460938 0 C 24.175781 0 25.0625 -0.886719 25.0625 -2.601562 L 25.0625 -38.769531 C 25.0625 -48.351562 31.726562 -54.1875 39.972656 -54.1875 C 48.414062 -54.1875 53.488281 -47.96875 53.488281 -39.148438 L 53.488281 -2.601562 C 53.488281 -0.886719 54.378906 0 56.089844 0 L 67.257812 0 C 68.910156 0 69.859375 -0.886719 69.859375 -2.601562 L 69.859375 -41.496094 C 69.859375 -54.695312 63.324219 -68.589844 44.988281 -68.589844 Z M 44.988281 -68.589844 "/></g></g></g><g fill="#266ffe" fill-opacity="1"><g transform="translate(631.879054, 217.132615)"><g><path d="M 78.617188 -94.859375 C 78.617188 -96.574219 77.664062 -97.460938 76.015625 -97.460938 L 64.847656 -97.460938 C 63.132812 -97.460938 62.246094 -96.574219 62.246094 -94.859375 L 62.308594 -60.023438 C 56.28125 -65.546875 48.160156 -68.589844 39.71875 -68.589844 C 20.367188 -68.589844 5.710938 -52.917969 5.710938 -33.566406 C 5.710938 -14.277344 20.367188 1.460938 39.71875 1.460938 C 49.429688 1.460938 58.375 -2.472656 64.339844 -9.390625 L 66.242188 -2.285156 C 66.625 -0.699219 67.640625 0 69.097656 0 L 76.140625 0 C 77.792969 0 78.742188 -0.886719 78.742188 -2.601562 Z M 42.449219 -13.199219 C 31.21875 -13.199219 22.082031 -22.335938 22.082031 -33.566406 C 22.082031 -44.859375 31.21875 -53.996094 42.449219 -53.996094 C 53.742188 -53.996094 62.878906 -44.859375 62.878906 -33.566406 C 62.878906 -22.335938 53.742188 -13.199219 42.449219 -13.199219 Z M 42.449219 -13.199219 "/></g></g></g><g fill="#266ffe" fill-opacity="1"><g transform="translate(719.309502, 217.132615)"><g><path d="M 41.5625 1.460938 C 62.183594 1.460938 77.726562 -13.007812 77.726562 -33.566406 C 77.726562 -54.1875 62.183594 -68.589844 41.5625 -68.589844 C 21.128906 -68.589844 5.582031 -54.1875 5.582031 -33.566406 C 5.582031 -13.007812 21.128906 1.460938 41.5625 1.460938 Z M 41.5625 -13.199219 C 30.203125 -13.199219 21.890625 -21.699219 21.890625 -33.566406 C 21.890625 -45.496094 30.203125 -53.996094 41.5625 -53.996094 C 53.171875 -53.996094 61.421875 -45.496094 61.421875 -33.566406 C 61.421875 -21.699219 53.171875 -13.199219 41.5625 -13.199219 Z M 41.5625 -13.199219 "/></g></g></g><g fill="#266ffe" fill-opacity="1"><g transform="translate(802.67932, 217.132615)"><g><path d="M 22.460938 0 C 24.175781 0 25.0625 -0.886719 25.0625 -2.601562 L 25.0625 -36.230469 C 25.0625 -47.714844 29.820312 -53.679688 38.261719 -53.679688 C 39.59375 -53.679688 41.371094 -53.488281 43.335938 -53.046875 C 44.988281 -52.664062 46.128906 -53.234375 46.511719 -54.820312 L 49.046875 -64.53125 C 49.429688 -66.054688 48.859375 -67.257812 47.335938 -67.703125 C 45.242188 -68.273438 43.148438 -68.589844 41.308594 -68.589844 C 34.515625 -68.589844 27.601562 -65.546875 22.90625 -57.804688 L 21.128906 -64.910156 C 20.75 -66.496094 19.734375 -67.195312 18.273438 -67.195312 L 11.230469 -67.195312 C 9.582031 -67.195312 8.628906 -66.242188 8.628906 -64.59375 L 8.691406 -2.601562 C 8.691406 -0.886719 9.644531 0 11.292969 0 Z M 22.460938 0 "/></g></g></g><g fill="#266ffe" fill-opacity="1"><g transform="translate(854.642733, 217.132615)"><g><path d="M 28.554688 1.460938 C 41.371094 1.460938 54.0625 -3.742188 54.0625 -19.351562 C 54.0625 -30.328125 45.367188 -35.597656 37.183594 -39.53125 C 29.632812 -43.148438 22.523438 -45.496094 22.523438 -49.9375 C 22.523438 -53.488281 25.632812 -55.140625 30.203125 -55.140625 C 34.074219 -55.140625 39.085938 -53.996094 43.972656 -52.21875 C 45.621094 -51.648438 46.765625 -52.15625 47.269531 -53.808594 L 49.9375 -62.308594 C 50.570312 -63.960938 49.871094 -65.101562 48.351562 -65.546875 C 42.003906 -67.574219 35.46875 -68.589844 30.203125 -68.589844 C 17.765625 -68.589844 6.28125 -62.246094 6.28125 -48.160156 C 6.28125 -38.199219 14.148438 -33.058594 21.890625 -28.933594 C 29.566406 -24.808594 37.4375 -22.082031 37.4375 -18.019531 C 37.4375 -13.261719 33.757812 -11.675781 28.742188 -11.675781 C 24.238281 -11.675781 18.527344 -12.878906 12.878906 -15.039062 C 11.105469 -15.671875 10.152344 -15.226562 9.582031 -13.640625 L 6.535156 -5.011719 C 5.964844 -3.554688 6.28125 -2.347656 8.25 -1.777344 C 15.546875 0.378906 22.207031 1.460938 28.554688 1.460938 Z M 28.554688 1.460938 "/></g></g></g><g fill="#266ffe" fill-opacity="1"><g transform="translate(914.219828, 217.132615)"><g><path d="M 39.402344 -68.589844 C 20.242188 -68.589844 5.773438 -54.820312 5.773438 -33.566406 C 5.773438 -12.054688 21.257812 1.460938 40.101562 1.460938 C 50.316406 1.460938 60.277344 -2.855469 67.765625 -10.722656 C 69.097656 -12.054688 69.097656 -13.324219 67.828125 -14.277344 L 61.609375 -21.128906 C 60.40625 -22.082031 59.453125 -22.019531 58.25 -20.875 C 53.234375 -15.734375 46.765625 -13.007812 40.546875 -13.007812 C 30.773438 -13.007812 22.207031 -19.542969 21.765625 -31.28125 L 69.542969 -31.28125 C 71.382812 -31.28125 72.335938 -31.917969 72.335938 -34.199219 C 72.335938 -54.820312 58.566406 -68.589844 39.402344 -68.589844 Z M 39.71875 -55.074219 C 46.636719 -55.074219 53.363281 -51.332031 55.328125 -42.765625 L 22.90625 -42.765625 C 25.316406 -51.394531 32.996094 -55.074219 39.71875 -55.074219 Z M 39.71875 -55.074219 "/></g></g></g><g fill="#266ffe" fill-opacity="1"><g transform="translate(992.06976, 217.132615)"><g/></g></g><g fill="#266ffe" fill-opacity="1"><g transform="translate(1031.026433, 217.132615)"><g><path d="M 34.199219 -68.589844 C 26.777344 -68.589844 18.78125 -67.195312 11.230469 -64.71875 C 9.644531 -64.148438 9.011719 -63.070312 9.582031 -61.421875 L 12.246094 -53.046875 C 12.753906 -51.394531 13.894531 -50.953125 15.546875 -51.523438 C 21.382812 -53.679688 27.472656 -55.074219 32.742188 -55.074219 C 40.609375 -55.074219 46.574219 -51.964844 46.574219 -43.273438 L 46.574219 -39.023438 C 41.75 -40.226562 36.992188 -40.863281 32.488281 -40.863281 C 17.386719 -40.863281 5.648438 -33.628906 5.648438 -19.164062 C 5.648438 -5.203125 16.308594 1.460938 28.234375 1.460938 C 35.46875 1.460938 43.527344 -0.953125 48.921875 -8.25 L 50.507812 -2.285156 C 50.824219 -0.699219 51.839844 0 53.363281 0 L 60.34375 0 C 62.054688 0 62.945312 -0.886719 62.945312 -2.601562 L 62.945312 -43.972656 C 62.945312 -61.929688 50 -68.589844 34.199219 -68.589844 Z M 32.167969 -10.46875 C 26.714844 -10.46875 22.019531 -13.261719 22.019531 -19.417969 C 22.019531 -26.523438 28.171875 -29.316406 36.292969 -29.316406 C 39.59375 -29.316406 43.019531 -28.871094 46.574219 -28.046875 L 46.574219 -25.191406 C 46.574219 -14.148438 38.199219 -10.46875 32.167969 -10.46875 Z M 32.167969 -10.46875 "/></g></g></g><g fill="#266ffe" fill-opacity="1"><g transform="translate(1102.087464, 217.132615)"><g><path d="M 44.988281 -68.589844 C 37.5 -68.589844 29.441406 -65.671875 22.714844 -59.074219 L 21.191406 -64.910156 C 20.8125 -66.496094 19.796875 -67.195312 18.335938 -67.195312 L 11.292969 -67.195312 C 9.644531 -67.195312 8.691406 -66.242188 8.691406 -64.59375 L 8.691406 -2.601562 C 8.691406 -0.886719 9.644531 0 11.292969 0 L 22.460938 0 C 24.175781 0 25.0625 -0.886719 25.0625 -2.601562 L 25.0625 -38.769531 C 25.0625 -48.351562 31.726562 -54.1875 39.972656 -54.1875 C 48.414062 -54.1875 53.488281 -47.96875 53.488281 -39.148438 L 53.488281 -2.601562 C 53.488281 -0.886719 54.378906 0 56.089844 0 L 67.257812 0 C 68.910156 0 69.859375 -0.886719 69.859375 -2.601562 L 69.859375 -41.496094 C 69.859375 -54.695312 63.324219 -68.589844 44.988281 -68.589844 Z M 44.988281 -68.589844 "/></g></g></g><g fill="#266ffe" fill-opacity="1"><g transform="translate(1179.937396, 217.132615)"><g/></g></g><g fill="#266ffe" fill-opacity="1"><g transform="translate(1218.894068, 217.132615)"><g><path d="M 16.816406 -73.667969 C 22.523438 -73.667969 26.777344 -77.980469 26.777344 -83.691406 C 26.777344 -89.339844 22.523438 -93.78125 16.816406 -93.78125 C 11.105469 -93.78125 6.789062 -89.339844 6.789062 -83.691406 C 6.789062 -77.980469 11.105469 -73.667969 16.816406 -73.667969 Z M 22.460938 0 C 24.175781 0 25.0625 -0.886719 25.0625 -2.601562 L 25.0625 -64.59375 C 25.0625 -66.242188 24.175781 -67.195312 22.460938 -67.195312 L 11.292969 -67.195312 C 9.644531 -67.195312 8.691406 -66.242188 8.691406 -64.59375 L 8.691406 -2.601562 C 8.691406 -0.886719 9.644531 0 11.292969 0 Z M 22.460938 0 "/></g></g></g><g fill="#266ffe" fill-opacity="1"><g transform="translate(1252.774953, 217.132615)"><g><path d="M 78.617188 -94.859375 C 78.617188 -96.574219 77.664062 -97.460938 76.015625 -97.460938 L 64.847656 -97.460938 C 63.132812 -97.460938 62.246094 -96.574219 62.246094 -94.859375 L 62.308594 -60.023438 C 56.28125 -65.546875 48.160156 -68.589844 39.71875 -68.589844 C 20.367188 -68.589844 5.710938 -52.917969 5.710938 -33.566406 C 5.710938 -14.277344 20.367188 1.460938 39.71875 1.460938 C 49.429688 1.460938 58.375 -2.472656 64.339844 -9.390625 L 66.242188 -2.285156 C 66.625 -0.699219 67.640625 0 69.097656 0 L 76.140625 0 C 77.792969 0 78.742188 -0.886719 78.742188 -2.601562 Z M 42.449219 -13.199219 C 31.21875 -13.199219 22.082031 -22.335938 22.082031 -33.566406 C 22.082031 -44.859375 31.21875 -53.996094 42.449219 -53.996094 C 53.742188 -53.996094 62.878906 -44.859375 62.878906 -33.566406 C 62.878906 -22.335938 53.742188 -13.199219 42.449219 -13.199219 Z M 42.449219 -13.199219 "/></g></g></g><g fill="#266ffe" fill-opacity="1"><g transform="translate(1340.205402, 217.132615)"><g><path d="M 39.402344 -68.589844 C 20.242188 -68.589844 5.773438 -54.820312 5.773438 -33.566406 C 5.773438 -12.054688 21.257812 1.460938 40.101562 1.460938 C 50.316406 1.460938 60.277344 -2.855469 67.765625 -10.722656 C 69.097656 -12.054688 69.097656 -13.324219 67.828125 -14.277344 L 61.609375 -21.128906 C 60.40625 -22.082031 59.453125 -22.019531 58.25 -20.875 C 53.234375 -15.734375 46.765625 -13.007812 40.546875 -13.007812 C 30.773438 -13.007812 22.207031 -19.542969 21.765625 -31.28125 L 69.542969 -31.28125 C 71.382812 -31.28125 72.335938 -31.917969 72.335938 -34.199219 C 72.335938 -54.820312 58.566406 -68.589844 39.402344 -68.589844 Z M 39.71875 -55.074219 C 46.636719 -55.074219 53.363281 -51.332031 55.328125 -42.765625 L 22.90625 -42.765625 C 25.316406 -51.394531 32.996094 -55.074219 39.71875 -55.074219 Z M 39.71875 -55.074219 "/></g></g></g><g fill="#266ffe" fill-opacity="1"><g transform="translate(1418.055333, 217.132615)"><g><path d="M 34.199219 -68.589844 C 26.777344 -68.589844 18.78125 -67.195312 11.230469 -64.71875 C 9.644531 -64.148438 9.011719 -63.070312 9.582031 -61.421875 L 12.246094 -53.046875 C 12.753906 -51.394531 13.894531 -50.953125 15.546875 -51.523438 C 21.382812 -53.679688 27.472656 -55.074219 32.742188 -55.074219 C 40.609375 -55.074219 46.574219 -51.964844 46.574219 -43.273438 L 46.574219 -39.023438 C 41.75 -40.226562 36.992188 -40.863281 32.488281 -40.863281 C 17.386719 -40.863281 5.648438 -33.628906 5.648438 -19.164062 C 5.648438 -5.203125 16.308594 1.460938 28.234375 1.460938 C 35.46875 1.460938 43.527344 -0.953125 48.921875 -8.25 L 50.507812 -2.285156 C 50.824219 -0.699219 51.839844 0 53.363281 0 L 60.34375 0 C 62.054688 0 62.945312 -0.886719 62.945312 -2.601562 L 62.945312 -43.972656 C 62.945312 -61.929688 50 -68.589844 34.199219 -68.589844 Z M 32.167969 -10.46875 C 26.714844 -10.46875 22.019531 -13.261719 22.019531 -19.417969 C 22.019531 -26.523438 28.171875 -29.316406 36.292969 -29.316406 C 39.59375 -29.316406 43.019531 -28.871094 46.574219 -28.046875 L 46.574219 -25.191406 C 46.574219 -14.148438 38.199219 -10.46875 32.167969 -10.46875 Z M 32.167969 -10.46875 "/></g></g></g><g fill="#266ffe" fill-opacity="1"><g transform="translate(608.073715, 317.107974)"><g><path d="M 28.738281 0 L 28.738281 -3.898438 L 8.699219 -3.898438 L 8.699219 -18.421875 L 28.140625 -18.421875 L 28.140625 -22.378906 L 8.699219 -22.378906 L 8.699219 -36.898438 L 28.738281 -36.898438 L 28.738281 -40.800781 L 4.5 -40.800781 L 4.5 0 Z M 28.738281 0 "/></g></g></g><g fill="#266ffe" fill-opacity="1"><g transform="translate(641.313684, 317.107974)"><g><path d="M 37.980469 -0.121094 L 42.179688 -0.121094 L 42.179688 -16.621094 C 42.179688 -19.558594 41.398438 -22.019531 39.960938 -23.941406 C 39.238281 -24.898438 38.28125 -25.621094 37.199219 -26.21875 C 36.058594 -26.820312 34.558594 -27.121094 32.761719 -27.121094 C 30.898438 -27.121094 29.28125 -26.578125 27.898438 -25.621094 C 26.640625 -24.660156 25.621094 -23.519531 24.78125 -22.078125 C 24.480469 -22.738281 24.121094 -23.339844 23.699219 -23.941406 C 22.980469 -24.898438 22.019531 -25.621094 20.941406 -26.21875 C 19.800781 -26.820312 18.300781 -27.121094 16.5 -27.121094 C 14.640625 -27.121094 13.019531 -26.578125 11.640625 -25.621094 C 10.441406 -24.71875 9.480469 -23.640625 8.699219 -22.261719 L 8.699219 -26.519531 L 4.5 -26.519531 L 4.5 -0.121094 L 8.699219 -0.121094 L 8.699219 -13.621094 C 8.878906 -15.71875 9.421875 -17.578125 10.320312 -19.078125 C 10.921875 -20.160156 11.820312 -21.121094 12.898438 -21.839844 C 13.980469 -22.558594 15.121094 -22.921875 16.378906 -22.921875 C 17.578125 -22.921875 18.539062 -22.679688 19.140625 -22.320312 C 20.820312 -21.238281 21.71875 -19.320312 21.71875 -16.621094 L 21.71875 -0.121094 L 25.921875 -0.121094 L 25.921875 -16.621094 C 25.921875 -16.921875 25.859375 -17.28125 25.859375 -17.578125 C 26.039062 -18.121094 26.28125 -18.601562 26.578125 -19.078125 C 27.179688 -20.160156 28.078125 -21.121094 29.160156 -21.839844 C 30.238281 -22.558594 31.378906 -22.921875 32.640625 -22.921875 C 33.839844 -22.921875 34.800781 -22.679688 35.398438 -22.320312 C 37.078125 -21.238281 37.980469 -19.320312 37.980469 -16.621094 Z M 37.980469 -0.121094 "/></g></g></g><g fill="#266ffe" fill-opacity="1"><g transform="translate(687.093641, 317.107974)"><g><path d="M 8.699219 15 L 8.699219 -4.5 C 8.878906 -4.140625 9.179688 -3.839844 9.421875 -3.601562 C 11.941406 -0.78125 15 0.601562 18.660156 0.601562 C 22.261719 0.601562 25.320312 -0.78125 27.839844 -3.601562 C 30.238281 -6.300781 31.5 -9.480469 31.5 -13.199219 C 31.5 -16.859375 30.238281 -20.039062 27.839844 -22.800781 C 25.320312 -25.558594 22.261719 -27 18.660156 -27 C 15 -27 11.941406 -25.558594 9.421875 -22.800781 C 9.179688 -22.5 8.878906 -22.199219 8.699219 -21.839844 L 8.699219 -26.398438 L 4.5 -26.398438 L 4.5 15 Z M 27.300781 -13.199219 C 27.300781 -10.621094 26.398438 -8.339844 24.601562 -6.480469 C 22.800781 -4.558594 20.578125 -3.601562 18 -3.601562 C 15.359375 -3.601562 13.140625 -4.558594 11.339844 -6.480469 C 9.539062 -8.339844 8.699219 -10.621094 8.699219 -13.199219 C 8.699219 -15.71875 9.539062 -18 11.339844 -19.921875 C 13.140625 -21.839844 15.359375 -22.800781 18 -22.800781 C 20.578125 -22.800781 22.800781 -21.839844 24.601562 -19.921875 C 26.398438 -18 27.300781 -15.71875 27.300781 -13.199219 Z M 27.300781 -13.199219 "/></g></g></g><g fill="#266ffe" fill-opacity="1"><g transform="translate(721.293609, 317.107974)"><g><path d="M 26.101562 -13.320312 C 26.101562 -10.679688 25.140625 -8.460938 23.28125 -6.601562 C 21.359375 -4.679688 19.140625 -3.78125 16.5 -3.78125 C 13.859375 -3.78125 11.578125 -4.679688 9.71875 -6.601562 C 7.800781 -8.460938 6.898438 -10.679688 6.898438 -13.320312 C 6.898438 -15.960938 7.800781 -18.179688 9.71875 -20.101562 C 11.578125 -21.960938 13.859375 -22.921875 16.5 -22.921875 C 19.140625 -22.921875 21.359375 -21.960938 23.28125 -20.101562 C 25.140625 -18.179688 26.101562 -15.960938 26.101562 -13.320312 Z M 30.300781 -13.320312 C 30.300781 -17.101562 28.921875 -20.339844 26.21875 -23.039062 C 23.519531 -25.738281 20.28125 -27.121094 16.5 -27.121094 C 12.660156 -27.121094 9.421875 -25.738281 6.71875 -23.039062 C 4.019531 -20.339844 2.699219 -17.101562 2.699219 -13.320312 C 2.699219 -9.480469 4.019531 -6.238281 6.71875 -3.601562 C 9.421875 -0.898438 12.71875 0.421875 16.5 0.421875 C 20.21875 0.421875 23.519531 -0.898438 26.21875 -3.601562 C 28.921875 -6.238281 30.300781 -9.480469 30.300781 -13.320312 Z M 30.300781 -13.320312 "/></g></g></g><g fill="#266ffe" fill-opacity="1"><g transform="translate(754.293571, 317.107974)"><g><path d="M 30.300781 3.359375 L 42.839844 -26.398438 L 38.160156 -26.398438 L 30.238281 -6.058594 L 21.71875 -27.78125 L 13.199219 -6.058594 L 5.28125 -26.398438 L 0.601562 -26.398438 L 13.261719 3.359375 L 21.71875 -17.941406 Z M 30.300781 3.359375 "/></g></g></g><g fill="#266ffe" fill-opacity="1"><g transform="translate(797.733532, 317.107974)"><g><path d="M 30.300781 -13.800781 C 30.300781 -17.398438 28.859375 -20.519531 26.101562 -23.21875 C 23.398438 -25.800781 20.160156 -27.121094 16.5 -27.121094 C 12.660156 -27.121094 9.421875 -25.738281 6.71875 -23.039062 C 4.019531 -20.339844 2.699219 -17.101562 2.699219 -13.320312 C 2.699219 -9.480469 4.019531 -6.238281 6.71875 -3.601562 C 7.980469 -2.339844 9.421875 -1.378906 11.101562 -0.660156 C 12.78125 0.0585938 14.761719 0.421875 17.101562 0.421875 C 19.441406 0.421875 21.71875 -0.300781 24 -1.738281 C 26.28125 -3.179688 27.960938 -5.21875 29.101562 -7.738281 L 24.300781 -7.738281 C 23.339844 -6.480469 22.199219 -5.519531 20.820312 -4.800781 C 19.441406 -4.078125 18 -3.78125 16.5 -3.78125 C 14.21875 -3.78125 12.179688 -4.5 10.378906 -6 C 8.578125 -7.441406 7.441406 -9.300781 7.078125 -11.578125 L 30.300781 -11.578125 Z M 25.859375 -15.179688 L 7.140625 -15.179688 C 7.378906 -16.261719 7.800781 -17.28125 8.398438 -18.238281 C 10.320312 -21.359375 13.019531 -22.921875 16.5 -22.921875 C 18.71875 -22.921875 20.699219 -22.199219 22.441406 -20.761719 C 24.238281 -19.261719 25.320312 -17.398438 25.859375 -15.179688 Z M 25.859375 -15.179688 "/></g></g></g><g fill="#266ffe" fill-opacity="1"><g transform="translate(830.433499, 317.107974)"><g><path d="M 18.058594 -20.941406 L 18.058594 -26.398438 C 17.21875 -26.761719 16.320312 -26.941406 15.421875 -26.941406 C 12.421875 -26.941406 10.261719 -25.261719 8.878906 -22.019531 L 8.699219 -20.941406 L 8.699219 -26.398438 L 4.5 -26.398438 L 4.5 0 L 8.699219 0 L 8.699219 -13.199219 C 8.699219 -15.359375 9.179688 -17.28125 10.199219 -19.019531 C 10.679688 -19.921875 11.339844 -20.699219 12.121094 -21.300781 C 12.898438 -21.898438 13.859375 -22.261719 14.941406 -22.261719 C 16.019531 -22.261719 17.039062 -21.78125 18.058594 -20.941406 Z M 18.058594 -20.941406 "/></g></g></g><g fill="#266ffe" fill-opacity="1"><g transform="translate(849.093478, 317.107974)"><g><path d="M 8.761719 -35.519531 C 8.21875 -36 7.558594 -36.300781 6.839844 -36.300781 C 6.121094 -36.300781 5.460938 -36 4.980469 -35.519531 C 4.441406 -34.980469 4.199219 -34.320312 4.199219 -33.601562 C 4.199219 -32.878906 4.441406 -32.21875 4.980469 -31.738281 C 5.460938 -31.199219 6.121094 -30.960938 6.839844 -30.960938 C 7.558594 -30.960938 8.21875 -31.199219 8.761719 -31.738281 C 9.238281 -32.21875 9.539062 -32.878906 9.539062 -33.601562 C 9.539062 -34.320312 9.238281 -34.980469 8.761719 -35.519531 Z M 9 0 L 9 -26.398438 L 4.800781 -26.398438 L 4.800781 0 Z M 9 0 "/></g></g></g><g fill="#266ffe" fill-opacity="1"><g transform="translate(862.83346, 317.107974)"><g><path d="M 22.738281 0 L 26.941406 0 L 26.941406 -16.5 C 26.941406 -19.558594 26.101562 -22.019531 24.539062 -23.878906 C 23.699219 -24.839844 22.738281 -25.558594 21.601562 -26.101562 C 20.398438 -26.640625 18.898438 -26.941406 17.039062 -26.941406 C 15.121094 -26.941406 13.5 -26.398438 12.058594 -25.441406 C 10.679688 -24.539062 9.539062 -23.339844 8.699219 -21.839844 L 8.699219 -26.398438 L 4.5 -26.398438 L 4.5 0 L 8.699219 0 L 8.699219 -11.039062 C 8.699219 -14.398438 9.300781 -17.039062 10.558594 -19.019531 C 11.28125 -20.101562 12.179688 -21 13.320312 -21.71875 C 14.398438 -22.378906 15.898438 -22.738281 17.699219 -22.738281 C 19.5 -22.738281 20.761719 -22.078125 21.539062 -20.878906 C 22.320312 -19.679688 22.738281 -18.179688 22.738281 -16.5 Z M 22.738281 0 "/></g></g></g><g fill="#266ffe" fill-opacity="1"><g transform="translate(893.373436, 317.107974)"><g><path d="M 25.859375 -13.199219 C 25.859375 -10.621094 24.960938 -8.339844 23.160156 -6.480469 C 21.359375 -4.558594 19.140625 -3.601562 16.558594 -3.601562 C 13.980469 -3.601562 11.761719 -4.558594 9.960938 -6.480469 C 8.160156 -8.339844 7.261719 -10.558594 7.261719 -13.199219 C 7.261719 -15.78125 8.160156 -18 9.960938 -19.921875 C 11.761719 -21.839844 13.980469 -22.800781 16.558594 -22.800781 C 19.140625 -22.800781 21.359375 -21.839844 23.160156 -19.921875 C 24.960938 -18 25.859375 -15.71875 25.859375 -13.199219 Z M 7.140625 3.601562 L 2.820312 3.601562 C 3.300781 6.421875 4.558594 8.878906 6.71875 10.980469 C 9.359375 13.679688 12.601562 15 16.378906 15 C 20.101562 15 23.339844 13.679688 26.039062 10.980469 C 28.679688 8.339844 30.058594 5.101562 30.058594 1.320312 L 30.058594 -26.398438 L 25.859375 -26.398438 L 25.859375 -21.960938 C 25.621094 -22.199219 25.378906 -22.5 25.140625 -22.800781 C 22.5 -25.558594 19.441406 -27 15.960938 -27 C 12.238281 -27 9.179688 -25.558594 6.660156 -22.800781 C 4.261719 -20.039062 3.058594 -16.859375 3.058594 -13.199219 C 3.058594 -9.480469 4.261719 -6.300781 6.660156 -3.601562 C 9.179688 -0.78125 12.238281 0.601562 15.960938 0.601562 C 19.558594 0.601562 22.621094 -0.78125 25.140625 -3.601562 C 25.378906 -3.839844 25.621094 -4.140625 25.859375 -4.378906 L 25.859375 1.320312 C 25.859375 3.960938 24.898438 6.179688 23.039062 8.039062 C 21.179688 9.898438 18.960938 10.800781 16.378906 10.800781 C 13.738281 10.800781 11.519531 9.898438 9.660156 8.039062 C 8.339844 6.71875 7.5 5.28125 7.140625 3.601562 Z M 7.140625 3.601562 "/></g></g></g><g fill="#266ffe" fill-opacity="1"><g transform="translate(927.9334, 317.107974)"><g/></g></g><g fill="#266ffe" fill-opacity="1"><g transform="translate(944.133381, 317.107974)"><g><path d="M 8.699219 -20.21875 L 8.699219 -36.78125 L 18.179688 -36.78125 C 20.640625 -36.78125 22.621094 -36 24.121094 -34.5 C 25.558594 -32.941406 26.339844 -31.019531 26.339844 -28.621094 C 26.339844 -26.160156 25.558594 -24.179688 24 -22.558594 C 22.441406 -21 20.519531 -20.21875 18.179688 -20.21875 Z M 30.539062 -28.5 C 30.539062 -32.101562 29.21875 -35.039062 26.699219 -37.378906 C 24.179688 -39.660156 21.179688 -40.800781 17.578125 -40.800781 L 4.5 -40.800781 L 4.5 0 L 8.699219 0 L 8.699219 -16.140625 L 17.578125 -16.140625 C 21.179688 -16.140625 24.238281 -17.28125 26.699219 -19.558594 C 29.21875 -21.960938 30.539062 -24.898438 30.539062 -28.5 Z M 30.539062 -28.5 "/></g></g></g><g fill="#266ffe" fill-opacity="1"><g transform="translate(975.873338, 317.107974)"><g><path d="M 30.300781 -13.800781 C 30.300781 -17.398438 28.859375 -20.519531 26.101562 -23.21875 C 23.398438 -25.800781 20.160156 -27.121094 16.5 -27.121094 C 12.660156 -27.121094 9.421875 -25.738281 6.71875 -23.039062 C 4.019531 -20.339844 2.699219 -17.101562 2.699219 -13.320312 C 2.699219 -9.480469 4.019531 -6.238281 6.71875 -3.601562 C 7.980469 -2.339844 9.421875 -1.378906 11.101562 -0.660156 C 12.78125 0.0585938 14.761719 0.421875 17.101562 0.421875 C 19.441406 0.421875 21.71875 -0.300781 24 -1.738281 C 26.28125 -3.179688 27.960938 -5.21875 29.101562 -7.738281 L 24.300781 -7.738281 C 23.339844 -6.480469 22.199219 -5.519531 20.820312 -4.800781 C 19.441406 -4.078125 18 -3.78125 16.5 -3.78125 C 14.21875 -3.78125 12.179688 -4.5 10.378906 -6 C 8.578125 -7.441406 7.441406 -9.300781 7.078125 -11.578125 L 30.300781 -11.578125 Z M 25.859375 -15.179688 L 7.140625 -15.179688 C 7.378906 -16.261719 7.800781 -17.28125 8.398438 -18.238281 C 10.320312 -21.359375 13.019531 -22.921875 16.5 -22.921875 C 18.71875 -22.921875 20.699219 -22.199219 22.441406 -20.761719 C 24.238281 -19.261719 25.320312 -17.398438 25.859375 -15.179688 Z M 25.859375 -15.179688 "/></g></g></g><g fill="#266ffe" fill-opacity="1"><g transform="translate(1008.573317, 317.107974)"><g><path d="M 26.101562 -13.320312 C 26.101562 -10.679688 25.140625 -8.460938 23.28125 -6.601562 C 21.359375 -4.679688 19.140625 -3.78125 16.5 -3.78125 C 13.859375 -3.78125 11.578125 -4.679688 9.71875 -6.601562 C 7.800781 -8.460938 6.898438 -10.679688 6.898438 -13.320312 C 6.898438 -15.960938 7.800781 -18.179688 9.71875 -20.101562 C 11.578125 -21.960938 13.859375 -22.921875 16.5 -22.921875 C 19.140625 -22.921875 21.359375 -21.960938 23.28125 -20.101562 C 25.140625 -18.179688 26.101562 -15.960938 26.101562 -13.320312 Z M 30.300781 -13.320312 C 30.300781 -17.101562 28.921875 -20.339844 26.21875 -23.039062 C 23.519531 -25.738281 20.28125 -27.121094 16.5 -27.121094 C 12.660156 -27.121094 9.421875 -25.738281 6.71875 -23.039062 C 4.019531 -20.339844 2.699219 -17.101562 2.699219 -13.320312 C 2.699219 -9.480469 4.019531 -6.238281 6.71875 -3.601562 C 9.421875 -0.898438 12.71875 0.421875 16.5 0.421875 C 20.21875 0.421875 23.519531 -0.898438 26.21875 -3.601562 C 28.921875 -6.238281 30.300781 -9.480469 30.300781 -13.320312 Z M 30.300781 -13.320312 "/></g></g></g><g fill="#266ffe" fill-opacity="1"><g transform="translate(1041.573269, 317.107974)"><g><path d="M 8.699219 15 L 8.699219 -4.5 C 8.878906 -4.140625 9.179688 -3.839844 9.421875 -3.601562 C 11.941406 -0.78125 15 0.601562 18.660156 0.601562 C 22.261719 0.601562 25.320312 -0.78125 27.839844 -3.601562 C 30.238281 -6.300781 31.5 -9.480469 31.5 -13.199219 C 31.5 -16.859375 30.238281 -20.039062 27.839844 -22.800781 C 25.320312 -25.558594 22.261719 -27 18.660156 -27 C 15 -27 11.941406 -25.558594 9.421875 -22.800781 C 9.179688 -22.5 8.878906 -22.199219 8.699219 -21.839844 L 8.699219 -26.398438 L 4.5 -26.398438 L 4.5 15 Z M 27.300781 -13.199219 C 27.300781 -10.621094 26.398438 -8.339844 24.601562 -6.480469 C 22.800781 -4.558594 20.578125 -3.601562 18 -3.601562 C 15.359375 -3.601562 13.140625 -4.558594 11.339844 -6.480469 C 9.539062 -8.339844 8.699219 -10.621094 8.699219 -13.199219 C 8.699219 -15.71875 9.539062 -18 11.339844 -19.921875 C 13.140625 -21.839844 15.359375 -22.800781 18 -22.800781 C 20.578125 -22.800781 22.800781 -21.839844 24.601562 -19.921875 C 26.398438 -18 27.300781 -15.71875 27.300781 -13.199219 Z M 27.300781 -13.199219 "/></g></g></g><g fill="#266ffe" fill-opacity="1"><g transform="translate(1075.773248, 317.107974)"><g><path d="M 8.699219 0 L 8.699219 -45 L 4.5 -45 L 4.5 0 Z M 8.699219 0 "/></g></g></g><g fill="#266ffe" fill-opacity="1"><g transform="translate(1088.973229, 317.107974)"><g><path d="M 30.300781 -13.800781 C 30.300781 -17.398438 28.859375 -20.519531 26.101562 -23.21875 C 23.398438 -25.800781 20.160156 -27.121094 16.5 -27.121094 C 12.660156 -27.121094 9.421875 -25.738281 6.71875 -23.039062 C 4.019531 -20.339844 2.699219 -17.101562 2.699219 -13.320312 C 2.699219 -9.480469 4.019531 -6.238281 6.71875 -3.601562 C 7.980469 -2.339844 9.421875 -1.378906 11.101562 -0.660156 C 12.78125 0.0585938 14.761719 0.421875 17.101562 0.421875 C 19.441406 0.421875 21.71875 -0.300781 24 -1.738281 C 26.28125 -3.179688 27.960938 -5.21875 29.101562 -7.738281 L 24.300781 -7.738281 C 23.339844 -6.480469 22.199219 -5.519531 20.820312 -4.800781 C 19.441406 -4.078125 18 -3.78125 16.5 -3.78125 C 14.21875 -3.78125 12.179688 -4.5 10.378906 -6 C 8.578125 -7.441406 7.441406 -9.300781 7.078125 -11.578125 L 30.300781 -11.578125 Z M 25.859375 -15.179688 L 7.140625 -15.179688 C 7.378906 -16.261719 7.800781 -17.28125 8.398438 -18.238281 C 10.320312 -21.359375 13.019531 -22.921875 16.5 -22.921875 C 18.71875 -22.921875 20.699219 -22.199219 22.441406 -20.761719 C 24.238281 -19.261719 25.320312 -17.398438 25.859375 -15.179688 Z M 25.859375 -15.179688 "/></g></g></g><g fill="#266ffe" fill-opacity="1"><g transform="translate(1121.673209, 317.107974)"><g/></g></g><g fill="#266ffe" fill-opacity="1"><g transform="translate(1137.873189, 317.107974)"><g><path d="M 8.699219 -4.199219 L 8.699219 -40.800781 L 4.5 -40.800781 L 4.5 0 L 23.28125 0 L 23.28125 -4.199219 Z M 8.699219 -4.199219 "/></g></g></g><g fill="#266ffe" fill-opacity="1"><g transform="translate(1162.353153, 317.107974)"><g><path d="M 8.761719 -35.519531 C 8.21875 -36 7.558594 -36.300781 6.839844 -36.300781 C 6.121094 -36.300781 5.460938 -36 4.980469 -35.519531 C 4.441406 -34.980469 4.199219 -34.320312 4.199219 -33.601562 C 4.199219 -32.878906 4.441406 -32.21875 4.980469 -31.738281 C 5.460938 -31.199219 6.121094 -30.960938 6.839844 -30.960938 C 7.558594 -30.960938 8.21875 -31.199219 8.761719 -31.738281 C 9.238281 -32.21875 9.539062 -32.878906 9.539062 -33.601562 C 9.539062 -34.320312 9.238281 -34.980469 8.761719 -35.519531 Z M 9 0 L 9 -26.398438 L 4.800781 -26.398438 L 4.800781 0 Z M 9 0 "/></g></g></g><g fill="#266ffe" fill-opacity="1"><g transform="translate(1176.093111, 317.107974)"><g><path d="M 8.699219 0 L 8.699219 -12.660156 L 19.078125 0 L 24.660156 0 L 13.078125 -13.621094 L 23.941406 -26.460938 L 18.359375 -26.460938 L 8.699219 -14.519531 L 8.699219 -45 L 4.5 -45 L 4.5 0 Z M 8.699219 0 "/></g></g></g><g fill="#266ffe" fill-opacity="1"><g transform="translate(1201.353058, 317.107974)"><g><path d="M 30.300781 -13.800781 C 30.300781 -17.398438 28.859375 -20.519531 26.101562 -23.21875 C 23.398438 -25.800781 20.160156 -27.121094 16.5 -27.121094 C 12.660156 -27.121094 9.421875 -25.738281 6.71875 -23.039062 C 4.019531 -20.339844 2.699219 -17.101562 2.699219 -13.320312 C 2.699219 -9.480469 4.019531 -6.238281 6.71875 -3.601562 C 7.980469 -2.339844 9.421875 -1.378906 11.101562 -0.660156 C 12.78125 0.0585938 14.761719 0.421875 17.101562 0.421875 C 19.441406 0.421875 21.71875 -0.300781 24 -1.738281 C 26.28125 -3.179688 27.960938 -5.21875 29.101562 -7.738281 L 24.300781 -7.738281 C 23.339844 -6.480469 22.199219 -5.519531 20.820312 -4.800781 C 19.441406 -4.078125 18 -3.78125 16.5 -3.78125 C 14.21875 -3.78125 12.179688 -4.5 10.378906 -6 C 8.578125 -7.441406 7.441406 -9.300781 7.078125 -11.578125 L 30.300781 -11.578125 Z M 25.859375 -15.179688 L 7.140625 -15.179688 C 7.378906 -16.261719 7.800781 -17.28125 8.398438 -18.238281 C 10.320312 -21.359375 13.019531 -22.921875 16.5 -22.921875 C 18.71875 -22.921875 20.699219 -22.199219 22.441406 -20.761719 C 24.238281 -19.261719 25.320312 -17.398438 25.859375 -15.179688 Z M 25.859375 -15.179688 "/></g></g></g><g fill="#266ffe" fill-opacity="1"><g transform="translate(1234.053038, 317.107974)"><g/></g></g><g fill="#266ffe" fill-opacity="1"><g transform="translate(1250.253019, 317.107974)"><g><path d="M 20.28125 -19.199219 L 35.699219 -40.800781 L 30.359375 -40.800781 L 18.179688 -23.339844 L 6 -40.800781 L 0.601562 -40.800781 L 16.078125 -19.140625 L 16.078125 0 L 20.28125 0 Z M 20.28125 -19.199219 "/></g></g></g><g fill="#266ffe" fill-opacity="1"><g transform="translate(1286.552988, 317.107974)"><g><path d="M 26.101562 -13.320312 C 26.101562 -10.679688 25.140625 -8.460938 23.28125 -6.601562 C 21.359375 -4.679688 19.140625 -3.78125 16.5 -3.78125 C 13.859375 -3.78125 11.578125 -4.679688 9.71875 -6.601562 C 7.800781 -8.460938 6.898438 -10.679688 6.898438 -13.320312 C 6.898438 -15.960938 7.800781 -18.179688 9.71875 -20.101562 C 11.578125 -21.960938 13.859375 -22.921875 16.5 -22.921875 C 19.140625 -22.921875 21.359375 -21.960938 23.28125 -20.101562 C 25.140625 -18.179688 26.101562 -15.960938 26.101562 -13.320312 Z M 30.300781 -13.320312 C 30.300781 -17.101562 28.921875 -20.339844 26.21875 -23.039062 C 23.519531 -25.738281 20.28125 -27.121094 16.5 -27.121094 C 12.660156 -27.121094 9.421875 -25.738281 6.71875 -23.039062 C 4.019531 -20.339844 2.699219 -17.101562 2.699219 -13.320312 C 2.699219 -9.480469 4.019531 -6.238281 6.71875 -3.601562 C 9.421875 -0.898438 12.71875 0.421875 16.5 0.421875 C 20.21875 0.421875 23.519531 -0.898438 26.21875 -3.601562 C 28.921875 -6.238281 30.300781 -9.480469 30.300781 -13.320312 Z M 30.300781 -13.320312 "/></g></g></g><g fill="#266ffe" fill-opacity="1"><g transform="translate(1319.55294, 317.107974)"><g><path d="M 22.738281 -4.5 L 22.738281 0 L 26.941406 0 L 26.941406 -26.398438 L 22.738281 -26.398438 L 22.738281 -15.359375 C 22.738281 -11.640625 22.019531 -8.820312 20.640625 -6.71875 C 19.320312 -4.679688 16.980469 -3.660156 13.738281 -3.660156 C 11.941406 -3.660156 10.621094 -4.261719 9.839844 -5.460938 C 9.058594 -6.660156 8.699219 -8.160156 8.699219 -9.898438 L 8.699219 -26.398438 L 4.5 -26.398438 L 4.5 -9.898438 C 4.5 -6.839844 5.28125 -4.320312 6.960938 -2.339844 C 8.640625 -0.421875 10.921875 0.539062 13.921875 0.539062 C 17.820312 0.539062 20.761719 -1.140625 22.738281 -4.5 Z M 22.738281 -4.5 "/></g></g></g><g fill="#266ffe" fill-opacity="1"><g transform="translate(1350.092916, 317.107974)"><g><path d="M 11.460938 -0.359375 C 12.179688 -1.019531 12.539062 -1.800781 12.539062 -2.761719 C 12.539062 -3.71875 12.179688 -4.5 11.460938 -5.160156 C 10.738281 -5.820312 9.960938 -6.179688 9 -6.179688 C 8.039062 -6.179688 7.261719 -5.820312 6.539062 -5.160156 C 5.820312 -4.441406 5.519531 -3.660156 5.519531 -2.761719 C 5.519531 -1.800781 5.820312 -1.019531 6.539062 -0.359375 C 7.261719 0.300781 8.039062 0.601562 9 0.601562 C 9.960938 0.601562 10.738281 0.300781 11.460938 -0.359375 Z M 12.121094 -45 L 5.878906 -45 L 7.019531 -12.179688 L 10.980469 -12.179688 Z M 12.121094 -45 "/></g></g></g><path fill="#ffffff" d="M 331.832031 194.625 C 331.832031 224.46875 320.457031 252.8125 299.808594 274.421875 C 296.882812 277.476562 294.058594 280.355469 291.390625 283.074219 C 277.011719 297.660156 267.65625 307.117188 263.71875 325.199219 L 168.507812 325.199219 C 165.347656 306.726562 156.5625 298.257812 142.574219 284.730469 C 139.75 282.011719 136.796875 279.136719 133.6875 276 C 111.042969 253.125 99.152344 222.8125 100.238281 190.632812 C 102.285156 129.957031 153.351562 79.773438 214.078125 78.789062 C 245.636719 78.320312 274.9375 90.082031 297.246094 112.027344 C 319.550781 133.996094 331.832031 163.300781 331.832031 194.625 Z M 186.175781 372.5625 L 170.371094 372.5625 C 174.207031 394.273438 193.199219 410.828125 215.996094 410.828125 C 238.796875 410.828125 257.785156 394.273438 261.621094 372.5625 Z M 155.65625 61.429688 C 156.875 64.410156 159.75 66.195312 162.78125 66.195312 C 163.765625 66.195312 164.777344 66.015625 165.734375 65.601562 C 169.671875 63.96875 171.539062 59.460938 169.90625 55.523438 L 158.117188 26.972656 C 156.484375 23.03125 151.953125 21.195312 148.039062 22.800781 C 144.101562 24.433594 142.234375 28.941406 143.867188 32.878906 Z M 266.234375 65.601562 C 267.191406 65.988281 268.203125 66.195312 269.1875 66.195312 C 272.21875 66.195312 275.09375 64.410156 276.3125 61.429688 L 288.125 32.878906 C 289.757812 28.941406 287.890625 24.40625 283.953125 22.800781 C 280.015625 21.167969 275.480469 23.03125 273.875 26.972656 L 262.0625 55.523438 C 260.429688 59.460938 262.292969 63.96875 266.234375 65.601562 Z M 344.421875 141.40625 C 345.410156 141.40625 346.417969 141.226562 347.378906 140.8125 L 375.902344 128.996094 C 379.839844 127.367188 381.707031 122.832031 380.074219 118.917969 C 378.441406 114.980469 373.90625 113.117188 369.996094 114.75 L 341.46875 126.5625 C 337.53125 128.195312 335.667969 132.726562 337.300781 136.640625 C 338.515625 139.621094 341.390625 141.40625 344.421875 141.40625 Z M 375.902344 244.753906 L 347.378906 232.941406 C 343.464844 231.308594 338.929688 233.175781 337.300781 237.113281 C 335.667969 241.050781 337.53125 245.585938 341.46875 247.191406 L 369.996094 259.003906 C 370.953125 259.394531 371.964844 259.601562 372.949219 259.601562 C 375.980469 259.601562 378.855469 257.8125 380.074219 254.832031 C 381.707031 250.921875 379.839844 246.386719 375.902344 244.753906 Z M 84.617188 232.941406 L 56.089844 244.753906 C 52.152344 246.386719 50.289062 250.921875 51.921875 254.832031 C 53.136719 257.8125 56.039062 259.601562 59.042969 259.601562 C 60.027344 259.601562 61.039062 259.417969 62 259.003906 L 90.523438 247.191406 C 94.460938 245.558594 96.328125 241.023438 94.695312 237.113281 C 93.089844 233.175781 88.554688 231.308594 84.617188 232.941406 Z M 90.523438 126.5625 L 62 114.75 C 58.058594 113.117188 53.527344 114.980469 51.921875 118.917969 C 50.289062 122.859375 52.152344 127.390625 56.089844 128.996094 L 84.617188 140.8125 C 85.574219 141.199219 86.585938 141.40625 87.570312 141.40625 C 90.601562 141.40625 93.476562 139.621094 94.695312 136.640625 C 96.351562 132.703125 94.460938 128.195312 90.523438 126.5625 Z M 185.113281 340.980469 L 169.671875 340.980469 L 169.671875 356.78125 L 262.320312 356.78125 L 262.320312 340.980469 Z M 185.113281 340.980469 " fill-opacity="1" fill-rule="nonzero"/><g clip-path="url(#b6f554f977)"><g clip-path="url(#fce9300887)"><path fill="#1a4789" d="M 98.667969 83.691406 L 333.417969 83.691406 L 333.417969 318.441406 L 98.667969 318.441406 Z M 98.667969 83.691406 " fill-opacity="1" fill-rule="evenodd"/></g></g><path fill="#266ffe" d="M 432 366.304688 C 432 402.5625 402.613281 431.949219 366.359375 431.949219 L 65.660156 431.949219 C 29.40625 431.949219 0.015625 402.5625 0.015625 366.304688 L 0.015625 65.609375 C 0.015625 29.355469 29.40625 -0.0351562 65.660156 -0.0351562 L 366.359375 -0.0351562 C 402.613281 -0.0351562 432 29.355469 432 65.609375 Z M 432 366.304688 " fill-opacity="1" fill-rule="nonzero"/><path fill="#266ffe" d="M 286.25 249.523438 L 293.238281 195.359375 L 239.597656 195.359375 L 239.597656 160.777344 C 239.597656 145.09375 243.972656 134.40625 266.457031 134.40625 L 295.117188 134.390625 L 295.117188 85.949219 C 290.167969 85.289062 273.15625 83.8125 253.328125 83.8125 C 211.972656 83.8125 183.675781 109.058594 183.675781 155.417969 L 183.675781 195.359375 L 136.902344 195.359375 L 136.902344 249.523438 L 183.675781 249.523438 L 183.675781 388.5 L 239.597656 388.5 L 239.597656 249.523438 Z M 286.25 249.523438 " fill-opacity="1" fill-rule="nonzero"/><path fill="#ffffff" d="M 325.246094 195.839844 C 325.246094 223.988281 314.515625 250.722656 295.042969 271.101562 C 292.28125 273.984375 289.617188 276.695312 287.101562 279.261719 C 273.539062 293.019531 264.71875 301.9375 261.003906 318.996094 L 171.203125 318.996094 C 168.222656 301.570312 159.9375 293.582031 146.742188 280.828125 C 144.078125 278.261719 141.292969 275.546875 138.363281 272.589844 C 117.003906 251.015625 105.789062 222.425781 106.816406 192.078125 C 108.746094 134.847656 156.910156 87.515625 214.183594 86.589844 C 243.949219 86.148438 271.585938 97.242188 292.625 117.9375 C 313.660156 138.660156 325.246094 166.296875 325.246094 195.839844 Z M 187.867188 363.664062 L 172.960938 363.664062 C 176.578125 384.140625 194.488281 399.753906 215.992188 399.753906 C 237.496094 399.753906 255.40625 384.140625 259.023438 363.664062 Z M 159.082031 70.214844 C 160.230469 73.027344 162.945312 74.710938 165.804688 74.710938 C 166.730469 74.710938 167.683594 74.542969 168.589844 74.152344 C 172.300781 72.613281 174.0625 68.359375 172.523438 64.644531 L 161.40625 37.71875 C 159.863281 34.003906 155.589844 32.269531 151.898438 33.785156 C 148.183594 35.324219 146.425781 39.574219 147.964844 43.289062 Z M 263.375 74.152344 C 264.277344 74.515625 265.230469 74.710938 266.160156 74.710938 C 269.019531 74.710938 271.730469 73.027344 272.878906 70.214844 L 284.023438 43.289062 C 285.5625 39.574219 283.800781 35.296875 280.085938 33.785156 C 276.375 32.242188 272.097656 34.003906 270.582031 37.71875 L 259.441406 64.644531 C 257.898438 68.359375 259.660156 72.613281 263.375 74.152344 Z M 337.121094 145.648438 C 338.046875 145.648438 339 145.476562 339.90625 145.085938 L 366.808594 133.945312 C 370.523438 132.40625 372.28125 128.128906 370.742188 124.4375 C 369.203125 120.726562 364.929688 118.964844 361.238281 120.503906 L 334.335938 131.648438 C 330.621094 133.1875 328.859375 137.464844 330.402344 141.152344 C 331.550781 143.964844 334.261719 145.648438 337.121094 145.648438 Z M 366.808594 243.121094 L 339.90625 231.980469 C 336.214844 230.441406 331.941406 232.199219 330.402344 235.914062 C 328.859375 239.628906 330.621094 243.902344 334.335938 245.417969 L 361.238281 256.5625 C 362.140625 256.929688 363.09375 257.125 364.023438 257.125 C 366.882812 257.125 369.59375 255.4375 370.742188 252.628906 C 372.28125 248.9375 370.523438 244.660156 366.808594 243.121094 Z M 92.082031 231.980469 L 65.175781 243.121094 C 61.464844 244.660156 59.703125 248.9375 61.242188 252.628906 C 62.390625 255.4375 65.128906 257.125 67.964844 257.125 C 68.890625 257.125 69.84375 256.953125 70.75 256.5625 L 97.652344 245.417969 C 101.367188 243.878906 103.125 239.605469 101.585938 235.914062 C 100.070312 232.199219 95.796875 230.441406 92.082031 231.980469 Z M 97.652344 131.648438 L 70.75 120.503906 C 67.035156 118.964844 62.757812 120.726562 61.242188 124.4375 C 59.703125 128.152344 61.464844 132.429688 65.175781 133.945312 L 92.082031 145.085938 C 92.984375 145.453125 93.9375 145.648438 94.867188 145.648438 C 97.726562 145.648438 100.4375 143.964844 101.585938 141.152344 C 103.148438 137.4375 101.367188 133.1875 97.652344 131.648438 Z M 186.867188 333.875 L 172.300781 333.875 L 172.300781 348.78125 L 259.683594 348.78125 L 259.683594 333.875 Z M 186.867188 333.875 " fill-opacity="1" fill-rule="nonzero"/><g clip-path="url(#867bd25146)"><g clip-path="url(#78ba29b0ac)"><path fill="#266ffe" d="M 105.335938 91.210938 L 326.734375 91.210938 L 326.734375 312.609375 L 105.335938 312.609375 Z M 105.335938 91.210938 " fill-opacity="1" fill-rule="evenodd"/></g></g></svg>