<svg xmlns="http://www.w3.org/2000/svg" xmlns:xlink="http://www.w3.org/1999/xlink" width="500" zoomAndPan="magnify" viewBox="0 0 375 374.999991" height="500" preserveAspectRatio="xMidYMid meet" version="1.0"><defs><clipPath id="49765da9a2"><path d="M 17.25 0 L 357.75 0 C 362.324219 0 366.710938 1.816406 369.949219 5.050781 C 373.183594 8.289062 375 12.675781 375 17.25 L 375 357.75 C 375 362.324219 373.183594 366.710938 369.949219 369.949219 C 366.710938 373.183594 362.324219 375 357.75 375 L 17.25 375 C 12.675781 375 8.289062 373.183594 5.050781 369.949219 C 1.816406 366.710938 0 362.324219 0 357.75 L 0 17.25 C 0 12.675781 1.816406 8.289062 5.050781 5.050781 C 8.289062 1.816406 12.675781 0 17.25 0 Z M 17.25 0 " clip-rule="nonzero"/></clipPath><clipPath id="23cdd3ed93"><path d="M 16.394531 107.386719 L 358.375 107.386719 L 358.375 267.378906 L 16.394531 267.378906 Z M 16.394531 107.386719 " clip-rule="nonzero"/></clipPath><clipPath id="0b0ebd0281"><path d="M 322.347656 159.914062 C 321.878906 159.296875 321.414062 158.675781 320.945312 158.058594 C 304.78125 136.738281 273.769531 129.308594 249.375 140.277344 C 237.5625 145.589844 230.832031 155.378906 222.46875 164.828125 L 179.277344 213.664062 C 167.820312 226.613281 154.546875 243.507812 140.882812 253.710938 C 129.035156 262.550781 116.125 266.792969 95.863281 266.792969 C 73.039062 266.792969 52.625 259.789062 37.496094 242.289062 C 23.953125 226.628906 16.605469 208.417969 16.605469 187.625 C 16.605469 168.558594 22.574219 151.40625 34.363281 136.433594 C 49.671875 117 70.171875 107.65625 94.839844 107.65625 C 120.167969 107.65625 141.253906 117.191406 157.035156 137.089844 C 163.628906 145.402344 168.046875 154.605469 170.695312 164.386719 L 144.449219 194.023438 L 46.25 194.023438 C 47.421875 205.828125 51.683594 216.445312 60.230469 225.21875 C 69.5625 234.800781 80.867188 239.339844 94.21875 239.339844 C 100.847656 239.339844 107.316406 238.195312 113.542969 235.925781 C 130.375 229.808594 141.394531 213.433594 153.171875 200.179688 C 163.9375 188.0625 174.703125 175.941406 185.46875 163.828125 C 198.613281 149.027344 214.816406 127.21875 231.484375 118.164062 C 266.511719 99.148438 316.101562 105.457031 341.273438 137.1875 C 353.101562 152.097656 357.9375 169.882812 358.109375 188.746094 C 358.125 190.539062 358.144531 192.332031 358.160156 194.125 C 314.070312 194.125 269.976562 194.125 225.890625 194.125 C 224.5 185.015625 226.355469 173.84375 236.25 167.734375 C 266.054688 167.734375 295.859375 167.734375 325.664062 167.734375 C 324.742188 165.058594 323.648438 162.421875 322.347656 159.914062 Z M 328.050781 208.429688 C 328.917969 207 329.785156 205.5625 330.648438 204.128906 C 338.8125 208.425781 346.980469 212.71875 355.144531 217.011719 C 354.335938 218.578125 353.527344 220.144531 352.722656 221.714844 C 347.914062 231.03125 341.855469 239.9375 334.0625 247.023438 C 327.007812 253.441406 318.988281 258.441406 310.074219 261.835938 C 279.390625 273.515625 236.539062 266 213.632812 244.027344 C 204.402344 235.171875 197.824219 225.128906 193.957031 213.941406 C 199.21875 208.101562 204.488281 202.261719 209.75 196.425781 C 212.789062 193.128906 215.835938 189.835938 218.878906 186.539062 C 218.878906 186.675781 218.875 186.816406 218.875 186.957031 C 218.875 196.40625 221.316406 205.164062 226.0625 213.335938 C 230.828125 221.542969 237.363281 227.925781 245.691406 232.484375 C 254.464844 237.28125 264.042969 239.339844 274.011719 239.339844 C 295.738281 239.339844 317.851562 225.34375 328.050781 208.429688 Z M 141.429688 167.632812 C 139.617188 162.386719 137.160156 157.277344 133.738281 153.03125 C 129.277344 147.488281 123.507812 143.457031 117.082031 140.488281 C 110.117188 137.261719 102.78125 135.648438 95.109375 135.648438 C 82.71875 135.648438 71.898438 139.433594 62.617188 147.675781 C 56.683594 152.945312 52.640625 160.160156 49.804688 167.636719 L 141.429688 167.636719 Z M 141.429688 167.632812 " clip-rule="nonzero"/></clipPath></defs><g clip-path="url(#49765da9a2)"><rect x="-37.5" width="450" fill="#1e57be" y="-37.499999" height="449.999989" fill-opacity="1"/></g><g clip-path="url(#23cdd3ed93)"><g clip-path="url(#0b0ebd0281)"><rect x="-37.5" width="450" fill="#ffffff" y="-37.499999" height="449.999989" fill-opacity="1"/></g></g></svg>