<svg xmlns="http://www.w3.org/2000/svg" xmlns:xlink="http://www.w3.org/1999/xlink" width="500" zoomAndPan="magnify" viewBox="0 0 375 374.999991" height="500" preserveAspectRatio="xMidYMid meet" version="1.0"><defs><clipPath id="16013ba302"><path d="M 39 118 L 336 118 L 336 257 L 39 257 Z M 39 118 " clip-rule="nonzero"/></clipPath><clipPath id="cf9e48da77"><path d="M 304.863281 163.613281 C 304.453125 163.078125 304.046875 162.539062 303.640625 162 C 289.585938 143.460938 262.621094 137 241.40625 146.535156 C 231.136719 151.160156 225.28125 159.667969 218.011719 167.886719 L 180.453125 210.355469 C 170.488281 221.613281 158.949219 236.304688 147.0625 245.175781 C 136.761719 252.863281 125.535156 256.550781 107.917969 256.550781 C 88.070312 256.550781 70.320312 250.460938 57.164062 235.246094 C 45.386719 221.625 39 205.789062 39 187.710938 C 39 171.132812 44.1875 156.214844 54.441406 143.195312 C 67.75 126.296875 85.578125 118.171875 107.027344 118.171875 C 129.050781 118.171875 147.386719 126.464844 161.109375 143.765625 C 166.84375 150.992188 170.683594 159 172.988281 167.503906 L 150.164062 193.273438 L 64.777344 193.273438 C 65.792969 203.539062 69.5 212.769531 76.933594 220.402344 C 85.046875 228.730469 94.875 232.679688 106.488281 232.679688 C 112.25 232.679688 117.875 231.683594 123.289062 229.710938 C 137.925781 224.390625 147.511719 210.152344 157.75 198.628906 C 167.113281 188.089844 176.472656 177.550781 185.835938 167.015625 C 197.265625 154.144531 211.355469 135.183594 225.847656 127.3125 C 256.308594 110.773438 299.429688 116.261719 321.316406 143.851562 C 331.601562 156.816406 335.808594 172.28125 335.957031 188.683594 C 335.972656 190.242188 335.988281 191.804688 336 193.359375 C 297.664062 193.359375 259.320312 193.359375 220.984375 193.359375 C 219.777344 185.441406 221.390625 175.726562 229.992188 170.414062 C 255.910156 170.414062 281.824219 170.414062 307.742188 170.414062 C 306.941406 168.089844 305.992188 165.792969 304.863281 163.613281 Z M 309.820312 205.800781 C 310.574219 204.558594 311.328125 203.308594 312.078125 202.0625 C 319.175781 205.796875 326.28125 209.53125 333.378906 213.265625 C 332.675781 214.628906 331.972656 215.988281 331.273438 217.351562 C 327.09375 225.457031 321.824219 233.199219 315.046875 239.363281 C 308.910156 244.941406 301.941406 249.289062 294.1875 252.238281 C 267.507812 262.398438 230.246094 255.863281 210.328125 236.757812 C 202.300781 229.054688 196.582031 220.320312 193.214844 210.59375 C 197.792969 205.515625 202.371094 200.4375 206.949219 195.363281 C 209.59375 192.496094 212.242188 189.632812 214.886719 186.765625 C 214.886719 186.886719 214.882812 187.007812 214.882812 187.128906 C 214.882812 195.347656 217.007812 202.960938 221.132812 210.066406 C 225.28125 217.203125 230.960938 222.753906 238.203125 226.71875 C 245.832031 230.890625 254.160156 232.679688 262.828125 232.679688 C 281.71875 232.679688 300.949219 220.507812 309.820312 205.800781 Z M 147.539062 170.328125 C 145.964844 165.761719 143.828125 161.320312 140.851562 157.628906 C 136.972656 152.808594 131.953125 149.300781 126.371094 146.71875 C 120.3125 143.917969 113.933594 142.511719 107.261719 142.511719 C 96.488281 142.511719 87.078125 145.804688 79.007812 152.972656 C 73.847656 157.550781 70.332031 163.828125 67.867188 170.328125 Z M 147.539062 170.328125 " clip-rule="nonzero"/></clipPath></defs><path fill="#1a4789" d="M 375 317.972656 C 375 349.445312 349.492188 374.957031 318.019531 374.957031 L 56.996094 374.957031 C 25.527344 374.957031 0.015625 349.445312 0.015625 317.972656 L 0.015625 56.953125 C 0.015625 25.480469 25.527344 -0.03125 56.996094 -0.03125 L 318.019531 -0.03125 C 349.488281 -0.03125 375 25.480469 375 56.953125 Z M 375 317.972656 " fill-opacity="1" fill-rule="nonzero"/><path fill="#1a4789" d="M 248.480469 216.597656 L 254.546875 169.582031 L 207.984375 169.582031 L 207.984375 139.5625 C 207.984375 125.949219 211.78125 116.671875 231.300781 116.671875 L 256.175781 116.65625 L 256.175781 74.609375 C 251.882812 74.035156 237.113281 72.753906 219.90625 72.753906 C 184.003906 72.753906 159.441406 94.667969 159.441406 134.910156 L 159.441406 169.582031 L 118.839844 169.582031 L 118.839844 216.597656 L 159.441406 216.597656 L 159.441406 337.238281 L 207.984375 337.238281 L 207.984375 216.597656 Z M 248.480469 216.597656 " fill-opacity="1" fill-rule="nonzero"/><g clip-path="url(#16013ba302)"><g clip-path="url(#cf9e48da77)"><path fill="#ffffff" d="M 0.0703125 -0.828125 L 375.070312 -0.828125 L 375.070312 374.171875 L 0.0703125 374.171875 Z M 0.0703125 -0.828125 " fill-opacity="1" fill-rule="evenodd"/></g></g></svg>